<svg width="160" height="134" viewBox="0 0 160 134" xmlns="http://www.w3.org/2000/svg" xmlns:xlink="http://www.w3.org/1999/xlink"><title>Group 20</title><desc>Created using Figma</desc><use xlink:href="#a" transform="translate(.368)" fill="#E9EDF4"/><use xlink:href="#b" transform="translate(68.625 104.023)" fill="url(#c)"/><use xlink:href="#d" transform="translate(37 20.059)" fill="url(#e)"/><g transform="translate(-827 125)"><mask id="g"><use xlink:href="#f" transform="translate(870.321 -101.285)" fill="#FFF"/></mask><g mask="url(#g)"><use xlink:href="#h" transform="translate(870.321 -101.285)" fill="url(#i)"/></g></g><use xlink:href="#j" transform="translate(71.8 44.556)" fill="#FFF"/><use xlink:href="#k" transform="translate(61.511 68.884)" fill="#FFF"/><defs><linearGradient id="c" x2="1" gradientUnits="userSpaceOnUse" gradientTransform="matrix(0 14.735 -14.1754 0 7.088 0)"><stop offset="0" stop-color="#E3D1E4"/><stop offset="1" stop-color="#B79ABA"/></linearGradient><linearGradient id="e" x2="1" gradientUnits="userSpaceOnUse" gradientTransform="matrix(0 99.088 -81.1771 0 40.589 0)"><stop offset="0" stop-color="#EBD0ED"/><stop offset="1" stop-color="#A38CA5"/></linearGradient><linearGradient id="i" x2="1" gradientUnits="userSpaceOnUse" gradientTransform="matrix(0 96.2855 -78.654 0 39.327 0)"><stop offset="0" stop-color="#D0BAD1"/><stop offset="1" stop-color="#A384A5"/></linearGradient><path id="a" fill-rule="evenodd" d="M74.138 105.682l-1.356 33.272-.18 1.989-37.974-2.622c-2.17-.181-4.19-1.13-6.058-2.848-1.868-1.718-3.285-3.692-4.249-5.922a19.558 19.558 0 0 1-1.311-4.973c-.211-1.687-.09-3.646.362-5.876.452-2.231.813-3.888 1.085-4.973.27-1.085.919-3.014 1.944-5.787 1.024-2.772 1.597-4.369 1.717-4.791 4.702.723 20.042 1.567 46.02 2.531zM39.148 52.7l16.275 34.267-13.29-8.318c-3.798 4.34-7.158 8.694-10.082 13.064-2.923 4.37-5.108 8.138-6.555 11.302-1.446 3.164-2.637 6.012-3.571 8.544-.934 2.532-1.492 4.43-1.673 5.696l-.361 1.899L2.712 86.876c-1.024-1.567-1.567-3.255-1.627-5.063-.06-1.808.12-3.225.542-4.25l.724-1.627c2.11-3.797 5.545-9.463 10.307-16.997L0 51.163 39.149 52.7zm111.298 46.744l-16.997 32.458c-.723 1.748-1.823 3.149-3.3 4.204-1.477 1.055-2.788 1.673-3.933 1.853l-1.628.362c-4.279.422-10.879.784-19.8 1.085l.723 14.828-20.794-33.182 19.077-32.73.632 15.642c10.247.965 18.776 1.115 25.587.452s11.935-1.657 15.37-2.983l5.063-1.99zM79.472 15.903C76.64 19.7 68.653 32.81 55.513 55.232l-28.66-16.907-1.718-1.085L45.477 5.053c1.206-1.868 3.014-3.225 5.425-4.069C53.313.141 55.724-.16 58.135.08c1.447.12 2.909.483 4.385 1.085 1.477.603 2.743 1.236 3.797 1.899 1.055.663 2.306 1.658 3.753 2.984 1.446 1.326 2.531 2.365 3.255 3.119.723.753 1.808 1.944 3.254 3.571 1.447 1.628 2.411 2.682 2.894 3.165zm59.221 27.756l19.167 32.82c1.085 2.23 1.462 4.52 1.13 6.871-.331 2.351-1.16 4.581-2.486 6.69-.784 1.206-1.778 2.321-2.984 3.346-1.205 1.025-2.35 1.869-3.435 2.532s-2.547 1.326-4.385 1.989c-1.839.663-3.255 1.145-4.25 1.446-.994.302-2.546.724-4.656 1.266-2.11.543-3.496.904-4.159 1.085-2.049-4.34-10.036-17.48-23.959-39.42l28.299-17.63 1.718-.995zm-12.929-20.433l12.838-7.504-19.89 33.724-37.883-1.809 13.652-7.775c-2.05-5.365-4.31-10.367-6.78-15.009-2.472-4.64-4.748-8.363-6.827-11.166-2.08-2.802-4.023-5.213-5.832-7.233-1.808-2.019-3.224-3.42-4.25-4.204l-1.536-1.175 36.617.09c1.869-.18 3.616.136 5.244.95 1.627.813 2.803 1.672 3.526 2.576l.995 1.357c2.35 3.676 5.726 9.402 10.126 17.178z"/><path id="b" fill-rule="evenodd" d="M8.054 11.184l6.121 3.551L6.12 3.553 0 0l8.054 11.184z"/><path id="d" fill-rule="evenodd" d="M81.177 4.509L74.857.854c-2.31-1.337-5.508-1.149-9.038.88l5.092 2.946-5.092-2.945-53.166 30.548 6.321 3.657L72.14 5.39c3.53-2.028 6.727-2.216 9.037-.881zM3.801 95.43l6.32 3.657c-2.28-1.32-3.694-4.122-3.704-8.11h-.001L6.322 57.76c-.024-8.022 5.643-17.792 12.652-21.82l-6.321-3.656C5.644 36.312-.022 46.08.001 54.103l.094 33.221v.001c.011 3.985 1.425 6.788 3.706 8.106z"/><path id="f" fill-rule="evenodd" d="M0 96.285h78.654V0H0v96.285z"/><path id="h" fill-rule="evenodd" d="M12.652 32.284C5.643 36.312-.024 46.082 0 54.104l.095 33.22c.022 8.02 5.726 11.258 12.735 7.23l18.61-10.695 4.013 5.605 4.007 5.608 3.963-10.189 3.963-10.185 18.609-10.694c7.014-4.032 12.681-13.802 12.659-21.822L78.559 8.96C78.537.938 72.832-2.297 65.818 1.734l-53.166 30.55z"/><path id="j" fill-rule="evenodd" d="M10.929 26.608c6.037-3.468 10.929-11.904 10.929-18.842 0-6.937-4.892-9.75-10.93-6.28C4.893 4.955 0 13.391 0 20.327c0 6.938 4.892 9.75 10.929 6.281z"/><path id="k" fill-rule="evenodd" d="M31.892 1.411l-21.508 12.36C4.649 17.066 0 25.078 0 31.67v3.214l42.274-24.29V7.375c0-6.588-4.649-9.26-10.382-5.965z"/></defs></svg>