<svg xmlns="http://www.w3.org/2000/svg" width="180" height="154" viewBox="0 0 180 154"><g fill="none" fill-rule="evenodd"><path fill="#E8EAEF" d="M38.478 125.662l40.29 27.441 69.19-18.602c19.453 6.683 29.813 9.855 31.08 9.515 1.267-.341-6.403-4.236-23.009-11.685l4.82-1.296a3 3 0 0 0 .3-5.697l-131.707-50.8 9.036 51.124z"/><path fill="#303038" d="M128.168 108.912l-15.485 9.186-5.248-2.956 15.648-9.326z"/><path fill="#303038" d="M131.592 100.618c0 3.17.586 6.234-3.07 8.347-3.659 2.114-6.924-1.978-5.194-3.08 1.729-1.101 2.929-1.826 2.835-6.082-.095-4.256 5.43.815 5.43.815"/><path fill="#3F3F4B" d="M127.302 93.353c-.82.473-.82 1.25 0 1.723.82.473 2.16.473 2.981 0 .82-.474.82-1.25 0-1.723-.82-.474-2.161-.474-2.981 0"/><path fill="#3F3F4B" d="M131.627 88.716h-5.669l-.544 11.857c0 .5.33 1 .987 1.381 1.315.76 3.468.76 4.783 0 .658-.38.987-.881.987-1.381l-.544-11.857z"/><path fill="#3F3F4B" d="M126.786 87.557c-1.104.638-1.104 1.68 0 2.319 1.103.637 2.91.637 4.013 0 1.104-.638 1.104-1.681 0-2.32-1.103-.638-2.91-.638-4.013 0"/><path fill="#DFE5E2" d="M125.325 92.344c-1.908 1.102-1.908 2.905 0 4.007 1.907 1.103 5.028 1.103 6.936 0 1.907-1.102 1.907-2.905 0-4.007-1.908-1.103-5.029-1.103-6.936 0"/><path fill="#DFE5E2" d="M131.73 51.577c-.005.432-.29.863-.857 1.19-1.144.662-3.017.662-4.162 0-.567-.327-.851-.759-.856-1.191l-1.96 42.772 4.897-.317 4.899.317-1.961-42.771z"/><path fill="#F2F4F3" d="M125.855 51.576l.001-.03v.03m5.872-.031l.001.032v-.032"/><path fill="#F2F4F3" d="M126.712 52.768c1.144.66 3.016.66 4.162 0 .566-.328.85-.76.856-1.192l-.002-.031c-.008-.429-.291-.856-.854-1.182-1.146-.662-3.018-.662-4.162 0-.564.326-.847.753-.856 1.184v.029c.004.433.288.863.856 1.192"/><path fill="#3F3F4B" d="M130.462 44.198h-3.34l-.32 6.985c0 .294.194.59.582.814.774.448 2.042.448 2.817 0 .388-.224.582-.52.582-.814l-.32-6.985z"/><path fill="#F2F4F3" d="M127.61 43.515c-.65.376-.65.99 0 1.366.65.376 1.714.376 2.365 0 .65-.376.65-.99 0-1.366-.651-.376-1.715-.376-2.365 0"/><path fill="#DFE5E2" d="M131.04 39.837h-4.496l-.43 9.404c0 .397.26.794.781 1.097 1.044.602 2.751.602 3.794 0 .522-.303.783-.7.783-1.097l-.431-9.404z"/><path fill="#F2F4F3" d="M127.2 38.917c-.875.506-.875 1.333 0 1.84.876.506 2.308.506 3.184 0 .875-.507.875-1.334 0-1.84-.876-.505-2.308-.505-3.183 0"/><path fill="#303038" d="M59.402 70.48l-15.817 9.14-5.361-2.94 15.985-9.28z"/><path fill="#303038" d="M62.474 62.133c0 3.17.586 6.233-3.071 8.348-3.659 2.113-6.924-1.978-5.194-3.08 1.73-1.102 2.93-1.826 2.835-6.083-.094-4.256 5.43.815 5.43.815"/><path fill="#3F3F4B" d="M58.184 54.868c-.82.475-.82 1.25 0 1.723.819.474 2.16.474 2.98 0 .82-.474.82-1.248 0-1.723-.82-.474-2.161-.474-2.98 0"/><path fill="#3F3F4B" d="M62.508 50.231H56.84l-.544 11.856c0 .502.33 1.002.988 1.383 1.315.76 3.467.76 4.783 0 .657-.38.986-.881.986-1.383l-.544-11.856z"/><path fill="#3F3F4B" d="M57.667 49.072c-1.104.638-1.104 1.682 0 2.32 1.103.637 2.91.637 4.013 0 1.104-.638 1.104-1.682 0-2.32-1.103-.638-2.91-.638-4.013 0"/><path fill="#DFE5E2" d="M56.206 53.859c-1.908 1.102-1.908 2.906 0 4.009 1.908 1.102 5.029 1.102 6.937 0 1.907-1.103 1.907-2.907 0-4.01-1.908-1.101-5.03-1.101-6.937 0"/><path fill="#DFE5E2" d="M62.61 13.092c-.004.433-.289.863-.856 1.191-1.144.661-3.016.661-4.161 0-.567-.328-.852-.76-.857-1.19l-1.96 42.77 4.898-.316 4.898.316-1.961-42.77z"/><path fill="#F2F4F3" d="M56.737 13.092v-.03.03m5.873-.032v.002m-5.017 1.221c1.144.662 3.017.662 4.162 0 .567-.328.85-.758.856-1.19l-.002-.032c-.008-.43-.291-.857-.854-1.183-1.145-.66-3.018-.66-4.162 0-.564.326-.847.754-.855 1.184l-.001.03c.004.432.288.863.856 1.191"/><path fill="#3F3F4B" d="M61.344 5.713h-3.34l-.32 6.985c0 .295.194.59.58.815.775.447 2.044.447 2.819 0 .387-.224.581-.52.581-.815l-.32-6.985z"/><path fill="#F2F4F3" d="M58.492 5.03c-.65.376-.65.991 0 1.366.65.376 1.713.376 2.364 0 .65-.375.65-.99 0-1.366-.65-.376-1.714-.376-2.364 0"/><path fill="#DFE5E2" d="M61.922 1.352h-4.496l-.432 9.404c0 .398.261.795.783 1.097 1.043.602 2.75.602 3.794 0 .521-.302.782-.699.782-1.097l-.431-9.404z"/><path fill="#F2F4F3" d="M58.082.433c-.875.506-.875 1.333 0 1.84.876.505 2.309.505 3.183 0 .876-.507.876-1.334 0-1.84-.874-.507-2.307-.507-3.183 0"/><path fill="#BCBCBC" d="M77.995 95.603l46.886 18.744-46.886 26.26z"/><path fill="#CFD3D1" d="M0 95.603h77.994v45.004z"/><path fill="#F2F4F3" d="M118.143 91.546L43.878 48.628c-5.44-3.94-15.587-2.555-23.158 1.82C9.873 56.719 1.628 73.387 1.628 83.547v22.065l.035-.02 76.332 44.11 46.08-26.629V101.01c0-4.948-2.384-7.968-5.932-9.463"/><path fill="#DFE5E2" d="M0 105.573l77.994 45.092v-9.593L0 95.603zm77.995 44.129l46.08-26.629v-22.065c0-12.883-16.143-12.736-26.989-6.468-10.847 6.269-19.091 22.936-19.091 33.098v22.064zM36.175 90.04L8.45 73.877c-1.112 1.562-2.276 5.713-2.276 8.617l21.525 12.444 45.199 26.132c.64-2.566 1.61-5.272 2.842-7.966L36.175 90.04z"/><path fill="#98999B" d="M18.687 81.625l-1.653-.964c-.704 1.04-1.423 3.606-1.456 5.474l1.582.914c.19-1.949.845-4.223 1.527-5.424m7.03 4.171l-1.653-.964c-.703 1.04-1.423 3.606-1.455 5.475l1.582.915c.189-1.95.845-4.224 1.526-5.426m7.03 4.172l-1.652-.964c-.704 1.04-1.424 3.606-1.456 5.474l1.582.915c.19-1.95.845-4.224 1.526-5.425m7.031 4.172l-1.653-.965c-.703 1.039-1.423 3.607-1.456 5.474l1.582.915c.19-1.949.845-4.223 1.527-5.425m7.03 4.172l-1.652-.964c-.704 1.039-1.424 3.607-1.456 5.474l1.582.915c.189-1.95.845-4.223 1.526-5.425m17.599 9.859l-1.653-.965c-.704 1.039-1.423 3.607-1.456 5.474l1.582.915c.19-1.95.845-4.223 1.527-5.425"/><path fill="#CFD3D1" d="M77.995 141.071l46.886-26.725v9.45l-46.886 26.869z"/><path fill="#3F3F4B" d="M72.897 121.07v8.851L6.174 91.891v-9.398z"/><path fill="#94BC41" d="M15.578 89.734v5.943l1.554.886V90.62zm6.611 3.801v5.944l1.554.886v-5.943zm7.45 4.083v5.943l1.554.887v-5.943zm7.03 4.082v5.944l1.554.887v-5.944zm7.031 4.154v5.943l1.554.887v-5.943zm17.598 10.102v5.943l1.554.886v-5.943z"/><path fill="#CFD3D1" d="M3.747 106.392l4.278 2.437V107l-4.278-2.662z"/><path fill="#CFD3D1" d="M3.747 106.392l.99-.185 3.288 1.847v.775z"/><path fill="#C1C1C1" d="M4.737 106.207v-1.254L8.024 107v1.054z"/><path fill="#CFD3D1" d="M10.874 110.477l4.277 2.438v-1.83l-4.277-2.661z"/><path fill="#CFD3D1" d="M10.874 110.477l.99-.184 3.287 1.846v.776z"/><path fill="#C1C1C1" d="M11.863 110.293v-1.254l3.288 2.046v1.054z"/><path fill="#CFD3D1" d="M18 114.563l4.277 2.436v-1.829L18 112.508z"/><path fill="#CFD3D1" d="M18 114.563l.99-.185 3.287 1.846V117z"/><path fill="#C1C1C1" d="M18.99 114.378v-1.255l3.287 2.047v1.055z"/><path fill="#CFD3D1" d="M25.127 118.648l4.277 2.437v-1.829l-4.277-2.663z"/><path fill="#CFD3D1" d="M25.127 118.648l.989-.184 3.288 1.845v.776z"/><path fill="#C1C1C1" d="M26.116 118.463v-1.254l3.287 2.047v1.054z"/><path fill="#CFD3D1" d="M32.253 122.733l4.277 2.437v-1.83l-4.277-2.66z"/><path fill="#CFD3D1" d="M32.253 122.733l.99-.184 3.287 1.846v.775z"/><path fill="#C1C1C1" d="M33.243 122.548v-1.254l3.287 2.046v1.056z"/><path fill="#CFD3D1" d="M39.38 126.818l4.276 2.438v-1.83l-4.276-2.662z"/><path fill="#CFD3D1" d="M39.38 126.818l.989-.184 3.287 1.846v.776z"/><path fill="#C1C1C1" d="M40.369 126.634v-1.254l3.287 2.046v1.055z"/><path fill="#CFD3D1" d="M46.506 130.904l4.277 2.437v-1.83l-4.277-2.661z"/><path fill="#CFD3D1" d="M46.506 130.904l.99-.185 3.287 1.847v.775z"/><path fill="#C1C1C1" d="M47.495 130.719v-1.254l3.288 2.046v1.055z"/><path fill="#CFD3D1" d="M53.632 134.989l4.277 2.438v-1.83l-4.277-2.662z"/><path fill="#CFD3D1" d="M53.632 134.989l.99-.184 3.287 1.846v.776z"/><path fill="#C1C1C1" d="M54.622 134.805v-1.255l3.287 2.047v1.054z"/><path fill="#CFD3D1" d="M60.758 139.075l4.278 2.436v-1.829l-4.278-2.662z"/><path fill="#CFD3D1" d="M60.758 139.075l.99-.185 3.288 1.846v.775z"/><path fill="#C1C1C1" d="M61.748 138.89v-1.255l3.287 2.047v1.055z"/><path fill="#CFD3D1" d="M67.885 143.16l4.278 2.437v-1.83l-4.278-2.662z"/><path fill="#CFD3D1" d="M67.885 143.16l.99-.184 3.288 1.845v.776z"/><path fill="#C1C1C1" d="M68.875 142.975v-1.254l3.287 2.047v1.054z"/><path fill="#CFD3D1" d="M3.747 102.42l4.278 2.436v-1.83l-4.278-2.66z"/><path fill="#CFD3D1" d="M3.747 102.42l.99-.185 3.288 1.845v.776z"/><path fill="#C1C1C1" d="M4.737 102.234v-1.254l3.287 2.046v1.055z"/><path fill="#CFD3D1" d="M10.874 106.504l4.277 2.438v-1.83l-4.277-2.662z"/><path fill="#CFD3D1" d="M10.874 106.504l.99-.184 3.287 1.846v.776z"/><path fill="#C1C1C1" d="M11.863 106.32v-1.254l3.288 2.046v1.055z"/><path fill="#CFD3D1" d="M18 110.59l4.277 2.437v-1.83L18 108.536z"/><path fill="#CFD3D1" d="M18 110.59l.99-.185 3.287 1.846v.776z"/><path fill="#C1C1C1" d="M18.99 110.405v-1.254l3.287 2.046v1.054z"/><path fill="#CFD3D1" d="M25.127 114.675l4.277 2.438v-1.83l-4.277-2.662z"/><path fill="#CFD3D1" d="M25.127 114.675l.989-.184 3.288 1.846v.776z"/><path fill="#C1C1C1" d="M26.116 114.49v-1.255l3.287 2.048v1.054z"/><path fill="#CFD3D1" d="M32.253 118.76l4.277 2.437v-1.829l-4.277-2.662z"/><path fill="#CFD3D1" d="M32.253 118.76l.99-.184 3.287 1.845v.776z"/><path fill="#C1C1C1" d="M33.243 118.576v-1.255l3.287 2.047v1.054z"/><path fill="#CFD3D1" d="M39.38 122.845l4.276 2.438v-1.83l-4.276-2.662z"/><path fill="#CFD3D1" d="M39.38 122.845l.989-.184 3.287 1.846v.776z"/><path fill="#C1C1C1" d="M40.369 122.66v-1.254l3.287 2.048v1.054z"/><path fill="#CFD3D1" d="M46.506 126.931l4.277 2.437v-1.83l-4.277-2.66z"/><path fill="#CFD3D1" d="M46.506 126.931l.99-.184 3.287 1.845v.776z"/><path fill="#C1C1C1" d="M47.495 126.746v-1.254l3.288 2.046v1.055z"/><path fill="#CFD3D1" d="M53.632 131.016l4.277 2.438v-1.83l-4.277-2.662z"/><path fill="#CFD3D1" d="M53.632 131.016l.99-.185 3.287 1.847v.776z"/><path fill="#C1C1C1" d="M54.622 130.831v-1.254l3.287 2.047v1.054z"/><path fill="#CFD3D1" d="M60.758 135.1l4.278 2.439v-1.83l-4.278-2.661z"/><path fill="#CFD3D1" d="M60.758 135.1l.99-.183 3.288 1.846v.776z"/><path fill="#C1C1C1" d="M61.748 134.917v-1.254l3.287 2.046v1.054z"/><path fill="#CFD3D1" d="M67.885 139.187l4.278 2.436v-1.828l-4.278-2.663z"/><path fill="#CFD3D1" d="M67.885 139.187l.99-.185 3.288 1.846v.775z"/><path fill="#C1C1C1" d="M68.875 139.002v-1.255l3.287 2.048v1.054z"/><path fill="#BFBFBF" d="M87.549 143.131l-4.278 2.466v-1.828l4.278-2.405z"/><path fill="#CFD3D1" d="M83.272 144.822l3.464-1.899.813.208-4.277 2.466z"/><path fill="#C1C1C1" d="M86.735 142.923v-1.1l-3.464 1.946v1.052z"/><path fill="#BFBFBF" d="M87.549 139.159l-4.278 2.464v-1.828l4.278-2.404z"/><path fill="#CFD3D1" d="M83.272 140.849l3.464-1.898.813.207-4.277 2.466z"/><path fill="#C1C1C1" d="M86.735 138.95v-1.1l-3.464 1.945v1.053z"/><path fill="#BFBFBF" d="M121.445 123.844l-4.276 2.466v-1.829l4.276-2.403z"/><path fill="#CFD3D1" d="M117.168 125.534l3.464-1.898.813.208-4.277 2.466z"/><path fill="#C1C1C1" d="M120.632 123.636v-1.1l-3.463 1.946v1.052z"/><path fill="#BFBFBF" d="M121.445 119.871l-4.276 2.466v-1.83l4.276-2.403z"/><path fill="#CFD3D1" d="M117.168 121.562l3.464-1.9.813.21-4.277 2.466z"/><path fill="#C1C1C1" d="M120.632 119.662v-1.1l-3.463 1.946v1.053z"/></g></svg>