<svg xmlns="http://www.w3.org/2000/svg" xmlns:xlink="http://www.w3.org/1999/xlink" width="155" height="154" viewBox="0 0 155 154"><defs><linearGradient id="a" x1="50%" x2="50%" y1="0%" y2="100%"><stop offset="0%" stop-color="#B1BBE7"/><stop offset="100%" stop-color="#7986CB"/></linearGradient><path id="b" d="M0 92.578V.247h72.077v92.33z"/><linearGradient id="c" x1="50%" x2="50%" y1="0%" y2="100%"><stop offset="0%" stop-color="#CDD3EF"/><stop offset="100%" stop-color="#9FA8DA"/></linearGradient><linearGradient id="e" x1="50%" x2="50%" y1="0%" y2="100%"><stop offset="0%" stop-color="#FFF2E8"/><stop offset="100%" stop-color="#F5E4F1"/></linearGradient></defs><g fill="none" fill-rule="evenodd"><path fill="#E7EBEE" d="M95.595 141.457c-19.887 11.513-45.927 15.103-58.163 8.019-12.236-7.083-6.034-22.16 13.852-33.673 19.887-11.512 45.927-15.103 58.163-8.02 12.236 7.085 6.033 22.16-13.852 33.674"/><path fill="#326D6B" d="M48.96 66.763l3.942-2.306 9.41-7.486-3.943 2.308z"/><path fill="#4DA8A6" d="M49.141 2.67l-.181 64.047 9.248-7.302 92.976 53.637.145-51.429z"/><path fill="#357472" d="M151.183 113.094l3.528-2.355.198-51.207-3.58 2.097z"/><path fill="#458A88" d="M151.335 61.643l3.557-2.084L53.026.208l-3.872 2.47z"/><path fill="url(#a)" d="M17.144 60.278c6.511-3.784 15.53-3.25 25.484 2.495 19.786 11.421 35.77 39.105 35.707 61.83-.032 11.291-4.02 19.236-10.45 22.973l-6.461 3.753c6.43-3.735 10.417-11.68 10.45-22.972.064-22.724-15.922-50.408-35.707-61.83-9.954-5.746-18.973-6.278-25.485-2.494l6.462-3.755z"/><g transform="translate(0 61.422)"><mask id="d" fill="#fff"><use xlink:href="#b"/></mask><path fill="url(#c)" d="M36.153 5.17C16.247-6.276.066 2.917 0 25.688c-.064 22.78 16.013 50.521 35.918 61.966C55.823 99.1 72.01 89.912 72.076 67.133 72.141 44.36 56.058 16.616 36.153 5.17" mask="url(#d)"/></g><path fill="#FFF" d="M34.81 74.346c16.2 9.368 29.334 32.157 29.282 50.794-.053 18.645-13.274 26.191-29.474 16.825-16.194-9.366-29.33-32.154-29.277-50.798.053-18.638 13.275-26.186 29.468-16.82"/><path fill="url(#e)" d="M45.296 136.197c7.175-.001 11.648-5.846 11.675-15.254.04-14.207-9.933-31.575-22.232-38.717-3.43-1.99-6.698-3-9.712-3-7.174 0-11.647 5.842-11.674 15.25-.04 14.209 9.931 31.578 22.227 38.718 3.432 1.993 6.7 3.003 9.714 3.003h.002z"/><path fill="#7986CB" d="M35.164 78.525c-.735-.441-1.334-.086-1.337.792-.003.876.593 1.947 1.329 2.388.739.443 1.339.089 1.341-.789.002-.878-.594-1.949-1.333-2.391m0 56.08c-.736-.44-1.335-.086-1.337.794-.003.877.593 1.946 1.328 2.387.74.443 1.34.088 1.342-.788.002-.882-.594-1.95-1.333-2.393m24.039-13.351c-.74-.442-1.34-.088-1.342.788-.003.88.593 1.95 1.334 2.393.734.44 1.334.086 1.337-.796.002-.876-.593-1.946-1.329-2.385M10.24 92.767c-.736-.44-1.335-.086-1.338.79-.003.88.594 1.95 1.33 2.391.738.442 1.338.089 1.34-.793.003-.876-.594-1.946-1.333-2.388"/><path fill="#606060" d="M34.804 79.225l-.087 28.486 2.67-17.642z"/><path fill="#474747" d="M35.607 79.225l-2.67 8.056 2.582 20.43z"/><path fill="#606060" d="M29.704 129.075l5.903-21.364-8.012 15.095z"/><path fill="#474747" d="M29.376 129.075l4.504-3.995.837-17.369z"/><path fill="#7986CB" d="M35.172 105.325c-1.23-.662-2.232-.13-2.236 1.184-.003 1.32.99 2.926 2.22 3.59 1.228.66 2.228.127 2.231-1.191.005-1.315-.988-2.921-2.215-3.583"/><path fill="#FFF" d="M78.335 57.861l-14.706-8.61v-3.416l6.94-4.599c.954-.661 1.659-1.311 2.115-1.953.457-.64.685-1.37.685-2.187 0-1.115-.24-2.133-.722-3.054a5.324 5.324 0 0 0-2.063-2.165c-.962-.563-1.72-.62-2.276-.169-.556.452-.832 1.31-.832 2.575l-4.274-2.5c0-1.53.312-2.745.937-3.646.623-.9 1.504-1.376 2.644-1.427 1.14-.052 2.432.345 3.875 1.191 2.21 1.294 3.927 2.92 5.15 4.878 1.223 1.958 1.834 4.07 1.834 6.335 0 1.242-.275 2.348-.826 3.313-.55.967-1.493 1.916-2.828 2.847l-4.877 3.167 9.224 5.4v4.02zm6.117-5.801l4.85 2.773V45.98l-.286.406-4.564 5.674zm9.202 5.263l2.485 1.42v4.014l-2.485-1.42v5.426l-4.352-2.49v-5.426l-8.99-5.142-.196-3.246 9.14-11.291 4.398 2.515v15.64zm14.699 20.122l-3.313-1.886 8.26-23.039 3.314 1.887zm32.294-6.055l-8.287 17.627-4.49-2.651 8.302-16.372-10.658-6.298v-4.054l15.133 8.942z"/></g></svg>