<svg width="54" height="40" viewBox="0 0 54 40" xmlns="http://www.w3.org/2000/svg" xmlns:xlink="http://www.w3.org/1999/xlink"><title></title><desc>Created using Figma</desc><use xlink:href="#a" fill="url(#b)"/><defs><linearGradient id="b" x2="1" gradientUnits="userSpaceOnUse" gradientTransform="matrix(0 40 -54 0 27 0)"><stop offset="0" stop-color="#D0BAD1"/><stop offset="1" stop-color="#A384A5"/></linearGradient><path id="a" fill-rule="evenodd" d="M54 29.09c0 3.012-1.055 5.583-3.164 7.714C48.726 38.934 46.18 40 43.2 40H12.6c-3.469 0-6.436-1.245-8.902-3.736C1.233 33.774 0 30.776 0 27.273c0-2.5.666-4.787 1.997-6.861s3.084-3.622 5.26-4.645c-.038-.53-.057-.938-.057-1.221 0-4.016 1.406-7.444 4.219-10.285C14.23 1.421 17.625 0 21.6 0c2.962 0 5.648.833 8.058 2.5s4.167 3.845 5.273 6.534C36.244 7.86 37.8 7.273 39.6 7.273c1.987 0 3.684.71 5.09 2.13 1.407 1.42 2.11 3.135 2.11 5.143 0 1.42-.384 2.727-1.153 3.92 2.419.568 4.416 1.842 5.99 3.82C53.213 24.267 54 26.535 54 29.092z"/></defs></svg>