<svg width="40" height="40" viewBox="0 0 40 40" xmlns="http://www.w3.org/2000/svg" xmlns:xlink="http://www.w3.org/1999/xlink"><title></title><desc>Created using Figma</desc><use xlink:href="#a" fill="url(#b)"/><defs><linearGradient id="b" x2="1" gradientUnits="userSpaceOnUse" gradientTransform="matrix(0 40 -40 0 20 0)"><stop offset="0" stop-color="#D0BAD1"/><stop offset="1" stop-color="#A384A5"/></linearGradient><path id="a" fill-rule="evenodd" d="M20 0c2.708 0 5.298.528 7.768 1.585 2.47 1.056 4.598 2.477 6.384 4.263 1.785 1.786 3.207 3.914 4.263 6.384A19.552 19.552 0 0 1 40 20c0 2.708-.528 5.298-1.585 7.768-1.056 2.47-2.477 4.598-4.263 6.384-1.786 1.785-3.914 3.207-6.384 4.263A19.552 19.552 0 0 1 20 40c-2.708 0-5.298-.528-7.768-1.585-2.47-1.056-4.598-2.477-6.384-4.263-1.786-1.786-3.207-3.914-4.263-6.384A19.551 19.551 0 0 1 0 20c0-2.708.528-5.298 1.585-7.768 1.056-2.47 2.477-4.598 4.263-6.384 1.786-1.786 3.914-3.207 6.384-4.263A19.551 19.551 0 0 1 20 0zm0 3c-2.807 0-5.474.634-8 1.901L16.3 9a11.884 11.884 0 0 1 7.4 0L28 4.901A17.605 17.605 0 0 0 20 3zM4.901 28L9 23.7a11.884 11.884 0 0 1 0-7.4L4.901 12A17.605 17.605 0 0 0 3 20c0 2.807.634 5.474 1.901 8zM20 37c2.807 0 5.474-.634 8-1.901L23.7 31a11.883 11.883 0 0 1-7.4 0L12 35.099A17.605 17.605 0 0 0 20 37zm-.5-9c2.346 0 4.35-.83 6.01-2.49C27.17 23.85 28 21.846 28 19.5c0-2.346-.83-4.35-2.49-6.01C23.85 11.83 21.846 11 19.5 11c-2.346 0-4.35.83-6.01 2.49C11.83 15.15 11 17.154 11 19.5c0 2.346.83 4.35 2.49 6.01C15.15 27.17 17.154 28 19.5 28zM31 23.7l4.099 4.3A17.605 17.605 0 0 0 37 20c0-2.807-.634-5.474-1.901-8L31 16.3a11.883 11.883 0 0 1 0 7.4z"/></defs></svg>