<svg width="1920" height="4951" viewBox="0 0 1920 4951" xmlns="http://www.w3.org/2000/svg" xmlns:xlink="http://www.w3.org/1999/xlink"><title>BG</title><desc>Created using Figma</desc><use xlink:href="#a" transform="translate(1175 1859)" fill="#F0F6FC"/><use xlink:href="#b" transform="translate(-113 714)" fill="#F5EAF2"/><use xlink:href="#c" transform="translate(982 -47)" fill="#B3D3F1" opacity=".7"/><use xlink:href="#d" transform="translate(452 703)" fill="#F5EAF2"/><use xlink:href="#e" transform="translate(1754 3157)" fill="#F5EAF2"/><use xlink:href="#e" transform="translate(1545 4351)" fill="#F0F6FC"/><use xlink:href="#e" transform="translate(409 3702)" fill="#F0F6FC"/><use xlink:href="#e" transform="translate(801 4908)" fill="#F0F6FC"/><use xlink:href="#f" transform="translate(1493 3412)" fill="#F5EAF2"/><use xlink:href="#f" transform="translate(1406 4299)" fill="#F0F6FC"/><use xlink:href="#f" transform="translate(554 3724)" fill="#F0F6FC"/><use xlink:href="#f" transform="translate(864 4782)" fill="#F0F6FC"/><use xlink:href="#f" transform="translate(554 4880)" fill="#F0F6FC"/><use xlink:href="#g" transform="translate(689 753)" fill="#F5EAF2"/><use xlink:href="#h" transform="translate(1619 3113)" fill="#F5EAF2"/><use xlink:href="#h" transform="matrix(-1 0 0 1 298 2386)" fill="#F5EAF2"/><use xlink:href="#f" transform="matrix(-1 0 0 1 326 2600)" fill="#F5EAF2"/><use xlink:href="#e" transform="matrix(-1 0 0 1 237 2479)" fill="#F5EAF2"/><use xlink:href="#d" transform="translate(877 598)" fill="#B3D3F1"/><use xlink:href="#i" transform="translate(782 452)" fill="#B3D3F1"/><defs><path id="a" fill-rule="evenodd" d="M172.424 307.238C377.181-36.857 955.802-78.044 988.415 114.597c32.615 192.641-82.482 205.409-217.914 396.074-135.431 190.666 309.849 526.749-315.5 354.884-625.354-171.863-487.334-214.223-282.577-558.317z"/><path id="b" fill-rule="evenodd" d="M53.522 0s162.366 192.792 320.287 209.339C531.73 225.886 675.914 9.983 929.94 56.816c254.03 46.834-42.458 615.827-112.45 714.287-69.991 98.46 33.711 310.157-96.063 406.767-129.774 96.6-368.096 55.94-429.525-27.22C197.019 1022.19 32.337 1075.58 6.7 948.327-18.937 821.078 53.522 0 53.522 0z"/><path id="c" fill-rule="evenodd" d="M181.927 165.898C90.352 202.285 5.475 305.715.525 394.539c-4.95 88.823 21.117 155.867 251.116 231.656 229.999 75.789 69.339 391.815 254.187 419.965 184.847 28.15 194.226-106.767 300.979-139.383C913.56 874.161 996 874.161 996 874.161V186.736S949.404-46.308 835.218 11.484c-114.185 57.793-98.75 145.794-258.069 154.414-159.319 8.621-273.396-48.406-395.222 0z"/><path id="d" fill-rule="evenodd" d="M11 22c6.075 0 11-4.925 11-11S17.075 0 11 0 0 4.925 0 11s4.925 11 11 11z"/><path id="e" fill-rule="evenodd" d="M21.5 43C33.374 43 43 33.374 43 21.5S33.374 0 21.5 0 0 9.626 0 21.5 9.626 43 21.5 43z"/><path id="f" fill-rule="evenodd" d="M14 28c7.732 0 14-6.268 14-14S21.732 0 14 0 0 6.268 0 14s6.268 14 14 14z"/><path id="g" fill-rule="evenodd" d="M6 12A6 6 0 1 0 6 0a6 6 0 0 0 0 12z"/><path id="h" fill-rule="evenodd" d="M307.137 0S200.552 115.633 88.42 172.632c-112.132 57-123.517 164.461 0 261.736 123.518 97.275 361.851 228.602 405.604 234.58C537.776 674.925 307.137 0 307.137 0z"/><path id="i" fill-rule="evenodd" d="M5 10A5 5 0 1 0 5 0a5 5 0 0 0 0 10z"/></defs></svg>