<svg width="13" height="14" viewBox="0 0 13 14" xmlns="http://www.w3.org/2000/svg" xmlns:xlink="http://www.w3.org/1999/xlink"><title></title><desc>Created using Figma</desc><use xlink:href="#a" transform="translate(0 -1)" fill="#1E88E5"/><defs><path id="a" d="M10.748 6.287c0 .142-.05.276-.15.377l-4.546 4.545c-.1.1-.243.159-.385.159a.547.547 0 0 1-.377-.16l-3.03-3.03a.525.525 0 0 1-.15-.376c0-.142.05-.285.15-.385l.762-.753c.1-.1.234-.16.376-.16.143 0 .277.06.377.16l1.892 1.891 3.415-3.407c.1-.1.234-.159.377-.159a.53.53 0 0 1 .376.16l.762.753c.1.1.15.243.15.385zm2.11 1.356a6.43 6.43 0 0 0-6.43-6.429A6.43 6.43 0 0 0 0 7.643a6.43 6.43 0 0 0 6.429 6.428 6.43 6.43 0 0 0 6.428-6.428z"/></defs></svg>