<svg width="42" height="38" viewBox="0 0 42 38" xmlns="http://www.w3.org/2000/svg" xmlns:xlink="http://www.w3.org/1999/xlink"><title></title><desc>Created using Figma</desc><use xlink:href="#a" fill="url(#b)"/><defs><linearGradient id="b" x2="1" gradientUnits="userSpaceOnUse" gradientTransform="matrix(0 38 -42 0 21 0)"><stop offset="0" stop-color="#D0BAD1"/><stop offset="1" stop-color="#A384A5"/></linearGradient><path id="a" fill-rule="evenodd" d="M23.31 22.167l1.556-6.334H18.69l-1.556 6.334h6.176zm18.672-12.47L40.62 15.24c-.113.395-.364.593-.753.593h-7.95l-1.557 6.334h7.562c.243 0 .445.099.607.296.162.231.211.462.146.693l-1.361 5.542c-.081.396-.333.594-.754.594h-7.95l-1.97 8.114c-.113.396-.364.594-.753.594H20.44a.779.779 0 0 1-.632-.297.856.856 0 0 1-.146-.693l1.896-7.718h-6.175l-1.97 8.114c-.113.396-.364.594-.753.594H7.19a.755.755 0 0 1-.608-.297.857.857 0 0 1-.146-.693l1.896-7.718H.772a.755.755 0 0 1-.608-.297.857.857 0 0 1-.146-.693L1.38 22.76c.113-.395.364-.593.753-.593h7.95l1.557-6.334H4.078a.755.755 0 0 1-.607-.296c-.162-.231-.211-.462-.146-.693l1.361-5.542c.081-.396.333-.594.754-.594h7.95L15.36.594c.113-.396.372-.594.777-.594h5.447c.243 0 .445.099.607.297a.856.856 0 0 1 .146.693l-1.896 7.718h6.175l1.97-8.114c.113-.396.372-.594.777-.594h5.447c.243 0 .445.099.607.297a.857.857 0 0 1 .146.693l-1.896 7.718h7.561c.243 0 .446.1.608.297a.857.857 0 0 1 .146.693z"/></defs></svg>