<svg width="44" height="44" viewBox="0 0 44 44" xmlns="http://www.w3.org/2000/svg" xmlns:xlink="http://www.w3.org/1999/xlink"><title></title><desc>Created using Figma</desc><use xlink:href="#a" fill="url(#b)"/><defs><linearGradient id="b" x2="1" gradientUnits="userSpaceOnUse" gradientTransform="matrix(0 44 -44 0 22 0)"><stop offset="0" stop-color="#D0BAD1"/><stop offset="1" stop-color="#A384A5"/></linearGradient><path id="a" fill-rule="evenodd" d="M37.395 32.877c-.36-2.537-1.076-4.645-2.148-6.322-1.072-1.678-2.583-2.648-4.53-2.91a11.66 11.66 0 0 1-3.917 2.836A11.595 11.595 0 0 1 22 27.5c-1.686 0-3.286-.34-4.8-1.019a11.66 11.66 0 0 1-3.916-2.836c-1.948.262-3.458 1.232-4.53 2.91-1.073 1.678-1.789 3.785-2.15 6.322 1.736 2.456 3.954 4.4 6.655 5.832 2.7 1.432 5.614 2.148 8.741 2.148s6.04-.716 8.741-2.148c2.701-1.433 4.919-3.376 6.654-5.832zM31.43 15.714c0-2.602-.921-4.825-2.763-6.666C26.825 7.206 24.603 6.286 22 6.286c-2.603 0-4.825.92-6.666 2.762-1.842 1.841-2.763 4.064-2.763 6.666 0 2.603.921 4.825 2.763 6.667 1.841 1.841 4.063 2.762 6.666 2.762 2.603 0 4.825-.92 6.666-2.762 1.842-1.842 2.763-4.064 2.763-6.667zM44 22c0 2.98-.581 5.823-1.743 8.532-1.163 2.71-2.722 5.05-4.678 7.023-1.956 1.972-4.293 3.54-7.01 4.702A21.566 21.566 0 0 1 22 44a21.51 21.51 0 0 1-8.545-1.743c-2.717-1.163-5.058-2.726-7.022-4.69-1.964-1.964-3.527-4.305-4.69-7.022A21.506 21.506 0 0 1 0 22c0-2.98.581-5.827 1.743-8.545 1.163-2.717 2.726-5.058 4.69-7.022 1.964-1.964 4.305-3.527 7.022-4.69A21.506 21.506 0 0 1 22 0c2.98 0 5.827.581 8.545 1.743 2.717 1.163 5.058 2.726 7.022 4.69 1.964 1.964 3.527 4.305 4.69 7.022A21.506 21.506 0 0 1 44 22z"/></defs></svg>