<svg width="25" height="44" viewBox="0 0 25 44" xmlns="http://www.w3.org/2000/svg" xmlns:xlink="http://www.w3.org/1999/xlink"><title></title><desc>Created using Figma</desc><use xlink:href="#a" fill="url(#b)"/><defs><linearGradient id="b" x2="1" gradientUnits="userSpaceOnUse" gradientTransform="matrix(0 44 -25 0 12.5 0)"><stop offset="0" stop-color="#D0BAD1"/><stop offset="1" stop-color="#A384A5"/></linearGradient><path id="a" fill-rule="evenodd" d="M12.5 26.714c1.074 0 2.116-.122 3.125-.368v16.083c0 .425-.155.793-.464 1.104-.31.311-.675.467-1.098.467h-3.126c-.423 0-.789-.156-1.098-.467a1.514 1.514 0 0 1-.464-1.104V26.346a13.2 13.2 0 0 0 3.125.368zM12.5 0c3.45 0 6.396 1.228 8.838 3.683C23.779 6.138 25 9.101 25 12.571c0 3.47-1.22 6.434-3.662 8.889-2.442 2.455-5.388 3.683-8.838 3.683-3.45 0-6.396-1.228-8.838-3.683C1.221 19.004 0 16.042 0 12.57 0 9.1 1.22 6.137 3.662 3.682S9.05 0 12.5 0zm0 5.5a.758.758 0 0 0 .562-.221.767.767 0 0 0 .22-.565.767.767 0 0 0-.22-.564.758.758 0 0 0-.562-.221c-2.376 0-4.403.843-6.08 2.529-1.676 1.686-2.514 3.724-2.514 6.113 0 .23.073.418.22.565a.758.758 0 0 0 .561.221.758.758 0 0 0 .562-.22.767.767 0 0 0 .22-.566c0-1.947.687-3.613 2.063-4.996C8.907 6.192 10.563 5.5 12.5 5.5z"/></defs></svg>