<svg width="43" height="40" viewBox="0 0 43 40" xmlns="http://www.w3.org/2000/svg" xmlns:xlink="http://www.w3.org/1999/xlink"><title></title><desc>Created using Figma</desc><use xlink:href="#a" fill="url(#b)"/><defs><linearGradient id="b" x2="1" gradientUnits="userSpaceOnUse" gradientTransform="matrix(0 40 -43 0 21.5 0)"><stop offset="0" stop-color="#D0BAD1"/><stop offset="1" stop-color="#A384A5"/></linearGradient><path id="a" fill-rule="evenodd" d="M13 19.25c-2.368.072-4.304.988-5.81 2.75H4.254c-1.198 0-2.207-.29-3.025-.87C.409 20.55 0 19.7 0 18.584 0 13.528.906 11 2.718 11c.088 0 .406.15.954.451.548.301 1.26.605 2.137.913a7.836 7.836 0 0 0 2.61.462c.978 0 1.95-.165 2.915-.494-.073.53-.11 1.003-.11 1.418 0 1.99.592 3.824 1.776 5.5zm25 14.835c0 1.827-.553 3.27-1.66 4.328C35.236 39.47 33.766 40 31.933 40H12.068c-1.833 0-3.303-.529-4.409-1.587C6.553 37.355 6 35.913 6 34.085c0-.807.027-1.594.08-2.363.053-.77.159-1.599.318-2.49.159-.89.36-1.716.602-2.477a11.77 11.77 0 0 1 .977-2.227c.41-.723.88-1.34 1.41-1.85.53-.51 1.177-.917 1.942-1.221.766-.305 1.61-.457 2.535-.457.151 0 .477.164.977.491.5.327 1.053.693 1.659 1.096.606.404 1.417.769 2.432 1.096a9.945 9.945 0 0 0 3.068.491c1.03 0 2.053-.163 3.068-.49 1.015-.328 1.826-.693 2.432-1.097.606-.403 1.16-.769 1.66-1.096.5-.327.825-.491.976-.491.925 0 1.77.152 2.534.457a5.934 5.934 0 0 1 1.944 1.221c.53.51 1 1.127 1.409 1.85.409.723.735 1.466.977 2.227.242.761.443 1.587.602 2.478.16.89.265 1.72.319 2.489.053.769.079 1.556.079 2.363zM14 5.5c0 1.518-.537 2.814-1.611 3.889C11.314 10.463 10.019 11 8.5 11c-1.518 0-2.814-.537-3.889-1.611C3.537 8.314 3 7.019 3 5.5c0-1.518.537-2.814 1.611-3.889C5.686.537 6.981 0 8.5 0c1.518 0 2.814.537 3.889 1.611C13.463 2.686 14 3.981 14 5.5zm16 9c0 2.346-.83 4.35-2.49 6.01C25.85 22.17 23.846 23 21.5 23c-2.346 0-4.35-.83-6.01-2.49C13.83 18.85 13 16.846 13 14.5c0-2.346.83-4.35 2.49-6.01C17.15 6.83 19.154 6 21.5 6c2.346 0 4.35.83 6.01 2.49C29.17 10.15 30 12.154 30 14.5zm13 4.084c0 1.117-.41 1.966-1.228 2.546-.818.58-1.826.87-3.025.87h-2.938c-1.505-1.762-3.441-2.678-5.809-2.75 1.184-1.676 1.776-3.51 1.776-5.5 0-.415-.037-.888-.11-1.418.965.33 1.937.494 2.916.494.862 0 1.732-.154 2.609-.462.877-.308 1.589-.612 2.137-.913.548-.3.866-.451.954-.451C42.094 11 43 13.528 43 18.584zM40 5.5c0 1.518-.537 2.814-1.611 3.889C37.314 10.463 36.019 11 34.5 11c-1.518 0-2.814-.537-3.889-1.611C29.537 8.314 29 7.019 29 5.5c0-1.518.537-2.814 1.611-3.889C31.686.537 32.981 0 34.5 0c1.518 0 2.814.537 3.889 1.611C39.463 2.686 40 3.981 40 5.5z"/></defs></svg>