<svg width="62" height="40" viewBox="0 0 62 40" xmlns="http://www.w3.org/2000/svg" xmlns:xlink="http://www.w3.org/1999/xlink"><title>Combined Shape</title><desc>Created using Figma</desc><use xlink:href="#a" fill="url(#b)"/><defs><linearGradient id="b" x2="1" gradientUnits="userSpaceOnUse" gradientTransform="matrix(0 40 -61.6613 0 30.83 0)"><stop offset="0" stop-color="#D0BAD1"/><stop offset="1" stop-color="#A384A5"/></linearGradient><path id="a" fill-rule="evenodd" d="M11.768 8.58A4.566 4.566 0 1 0 7.411.553a4.566 4.566 0 0 0 4.357 8.025zm29.926 7.96A2.537 2.537 0 0 1 43.6 19.9h16.662c.395 0 .715.32.715.716v2.265c0 .395-.32.715-.715.715h-.818c.318.567.534 1.228.605 1.957.179 1.762.455 4.087.732 6.417.369 3.105.74 6.221.88 8.029H59.15c-.062-.79-.479-4.407-.875-7.85v-.003a713.533 713.533 0 0 1-.717-6.342c-.065-.595-.247-.973-.509-1.293-.32-.392-.833-.7-1.451-.915H41.081c-.618.215-1.132.523-1.452.915-.261.32-.444.697-.509 1.293a720.908 720.908 0 0 1-.717 6.356l-.003.021c-.395 3.434-.81 7.031-.871 7.818h-2.512c.141-1.808.512-4.925.881-8.032v-.006c.277-2.327.553-4.648.731-6.408.07-.73.288-1.39.606-1.957h-.819a.715.715 0 0 1-.715-.715V20.96c-.313-.01-.624-.016-.928-.016-8.526-.006-13.454 3.701-13.514 3.748a2.527 2.527 0 0 1-2.87.155 2.244 2.244 0 0 1-.61-.341c-3.634-4.519-5.525-6.564-10.088-9.962-.16-.013-.326-.029-.501-.047-1.185-.126-2.668-.346-4.028-.84-.902-.34-1.798-.772-2.497-1.653-.393-.5-.672-1.2-.665-1.926.01-1.1.528-2.051 1.3-2.948.766-.88 1.839-1.77 3.325-2.766A4.941 4.941 0 0 0 5.655 7.6c-.757.55-1.318 1.035-1.699 1.434-.514.531-.682.906-.703 1.008.038.043.13.13.287.225.383.243 1.116.503 1.912.676.915.205 1.906.318 2.656.378a1.49 1.49 0 0 1 .39-.298l1.82-.882 4.49-2.177c.098-.183.216-.413.344-.674.338-.688.74-1.608.987-2.442.168-.552.257-1.07.254-1.385 0-.07-.004-.13-.01-.175a1.262 1.262 0 0 0-.11-.005c-.306-.008-.915.103-1.787.42a4.948 4.948 0 0 0-1.6-2.858c1.309-.527 2.384-.8 3.387-.809.482 0 .957.07 1.412.247.452.175.873.47 1.182.835.628.75.77 1.61.773 2.346-.003.806-.171 1.571-.39 2.312-.22.738-.5 1.446-.777 2.073-.12.272-.24.528-.354.764.416 3.92.894 6.528 5.038 9.395 2.801-1.106 6.733-2.137 11.616-2.137 2.134 0 4.448.197 6.92.667zm-6.924-1.074c2.293 0 4.647.227 7 .675a2.938 2.938 0 0 1 2.137 1.697 2.537 2.537 0 0 0-1.95-3.622 36.083 36.083 0 0 0-4.728-.317c-6.209-.001-11.015 1.698-14.256 3.42l-.046.026c.093.068.188.138.285.207 3.584-1.384 7.471-2.086 11.558-2.086zm-16.56 9.75a2.65 2.65 0 0 1-.683-.39l-.036-.029-.03-.036c-3.658-4.55-5.526-6.53-9.799-9.73l5.061 12.593v1.195c0 .335.273.608.608.608h4.843l.331 3.795c-4.839.227-6.218 2.252-6.3 2.422l-.085.144v.909a1.647 1.647 0 1 0 1.218.086v-.621c.327-.364 1.615-1.552 5.273-1.722l.199 2.275a1.646 1.646 0 1 0 1.306.088l.206-2.363c2.145.097 3.48.553 4.277.98.45.24.73.473.895.634.041.04.075.076.102.107v.594a1.646 1.646 0 1 0 1.217-.037v-.93l-.084-.144c-.083-.17-1.462-2.195-6.3-2.422l.33-3.795h5.735a.608.608 0 0 0 .608-.608v-2.26a.608.608 0 0 0-.608-.607s-1.552.333-4.576.467l-.573-1.29a2.912 2.912 0 0 1-1.634.497 2.949 2.949 0 0 1-1.5-.41zm38.739-6.248H45.966a.407.407 0 0 1-.406-.407v-.61c0-.225.182-.407.406-.407h8.989a.407.407 0 0 1 .019-.084l3.552-10.393a.407.407 0 0 1 .516-.253l.578.197a.407.407 0 0 1 .253.517l-3.424 10.016h.5c.224 0 .406.183.406.407v.61a.407.407 0 0 1-.406.407z"/></defs></svg>