<svg width="39" height="40" viewBox="0 0 39 40" xmlns="http://www.w3.org/2000/svg" xmlns:xlink="http://www.w3.org/1999/xlink"><title>Combined Shape</title><desc>Created using Figma</desc><use xlink:href="#a" transform="translate(0 .04)" fill="url(#b)"/><defs><linearGradient id="b" x2="1" gradientUnits="userSpaceOnUse" gradientTransform="matrix(0 39.9639 -38.2671 0 19.134 0)"><stop offset="0" stop-color="#D0BAD1"/><stop offset="1" stop-color="#A384A5"/></linearGradient><path id="a" fill-rule="evenodd" d="M28.736 8.484c1.878-2.022 1.878-5.199 0-7.076-2.021-1.877-5.054-1.877-7.075 0-1.405 1.405-1.678 4.347-1.908 6.828-.077.834-.15 1.616-.258 2.27.5-.053 1.061-.096 1.657-.142 2.678-.205 6.049-.463 7.584-1.88zM16.03 12.383c-5.776 1.01-10.975.289-15.451-1.877l1.3-1.3V7.329c2.454 1.588 7.941 4.765 14.15 5.054zm.289 1.877v24.549c0 .722.577 1.155 1.155 1.155h3.466c.577 0 1.01-.578 1.01-1.155v-24.55a.987.987 0 0 0-1.01-1.01h-3.466c-.578 0-1.155.433-1.155 1.01zm-15.307.289h13.14v5.632H1.012A.987.987 0 0 1 0 19.17v-3.61a.987.987 0 0 1 1.01-1.011zm23.249 0h12.996a.987.987 0 0 1 1.011 1.01v3.61a.987.987 0 0 1-1.01 1.012H24.26v-5.632zm11.552 7.798v14.007c0 1.444-1.155 2.6-2.599 2.6H24.26V22.346h11.552zm-21.66 16.606V22.347H2.599v14.007c0 1.444 1.156 2.6 2.455 2.6h9.098zM10.975 8.917c-1.589-1.589-1.589-4.188 0-5.632 1.588-1.588 4.043-1.588 5.632 0 1.234 1.122 1.422 3.553 1.58 5.597.045.586.088 1.14.152 1.623-.259-.017-.54-.032-.838-.048l-.06-.003c-2.188-.117-5.206-.277-6.466-1.537zm26.715 1.589c-4.477 2.166-9.676 2.888-15.307 1.877 6.065-.289 11.696-3.466 14.151-5.054 0 .288-.036.613-.072.938-.036.325-.072.65-.072.939l1.3 1.3z"/></defs></svg>