<svg xmlns="http://www.w3.org/2000/svg" width="203" height="92" viewBox="0 0 203 92"><defs><linearGradient id="a" x1="50%" x2="50%" y1="0%" y2="100%"><stop offset="0%" stop-color="#D0BAD1"/><stop offset="100%" stop-color="#A384A5"/></linearGradient></defs><g fill="none" fill-rule="evenodd"><path fill="url(#a)" d="M137.268 25.982l-19.554 19.554v55.178c0 2.054-.736 3.817-2.21 5.29-1.473 1.474-3.236 2.21-5.29 2.21-2.053 0-3.817-.736-5.29-2.21-1.473-1.473-2.21-3.236-2.21-5.29V75H98.43v25.714c0 2.054-.737 3.817-2.21 5.29-1.473 1.474-3.237 2.21-5.29 2.21-2.054 0-3.817-.736-5.29-2.21-1.474-1.473-2.21-3.236-2.21-5.29V45.536L63.875 25.982C62.625 24.732 62 23.214 62 21.43c0-1.786.625-3.304 1.875-4.554C65.17 15.625 66.699 15 68.462 15s3.27.625 4.52 1.875L88.25 32.143h24.643l15.268-15.268c1.25-1.25 2.768-1.875 4.553-1.875 1.786 0 3.304.625 4.554 1.875 1.25 1.295 1.875 2.824 1.875 4.587s-.625 3.27-1.875 4.52zM115.57 15c0 4.152-1.462 7.69-4.386 10.614C108.26 28.538 104.722 30 100.57 30c-4.151 0-7.69-1.462-10.613-4.386C87.033 22.69 85.57 19.152 85.57 15c0-4.152 1.462-7.69 4.387-10.614C92.882 1.462 96.42 0 100.57 0c4.152 0 7.69 1.462 10.614 4.386 2.924 2.924 4.386 6.462 4.386 10.614z"/><path fill="#E9EDF4" d="M198 76.09V45.44v55.18c0 2.053-.737 3.816-2.21 5.29-1.474 1.473-3.237 2.21-5.29 2.21-2.054 0-3.818-.737-5.291-2.21-1.473-1.474-2.21-3.237-2.21-5.29V74.904h-4.286v25.714c0 2.054-.736 3.817-2.21 5.29-1.473 1.474-3.236 2.21-5.29 2.21-2.053 0-3.817-.736-5.29-2.21-1.473-1.473-2.21-3.236-2.21-5.29V45.441v30.648c-1.25-1.25-4.453-3.388-4.453-5.174 0-1.786-.803-29.011.412-34.2.81-3.46 3.765-5.015 8.863-4.667h24.643c4.726-.143 7.558 1.413 8.495 4.667 1.405 4.88.961 32.436.961 34.2 0 1.763-3.385 3.924-4.635 5.174zM196 15c0 4.152-1.462 7.69-4.386 10.614C188.69 28.538 185.152 30 181 30c-4.152 0-7.69-1.462-10.614-4.386C167.462 22.69 166 19.152 166 15c0-4.152 1.462-7.69 4.386-10.614C173.31 1.462 176.848 0 181 0c4.152 0 7.69 1.462 10.614 4.386C194.538 7.31 196 10.848 196 15zM39 76.09V45.44v55.18c0 2.053-.737 3.816-2.21 5.29-1.474 1.473-3.237 2.21-5.29 2.21-2.054 0-3.818-.737-5.291-2.21-1.473-1.474-2.21-3.237-2.21-5.29V74.904h-4.286v25.714c0 2.054-.736 3.817-2.21 5.29-1.473 1.474-3.236 2.21-5.29 2.21-2.053 0-3.817-.736-5.29-2.21-1.473-1.473-2.21-3.236-2.21-5.29V45.441v30.648C3.463 74.84.26 72.701.26 70.915c0-1.786-.803-29.011.412-34.2.81-3.46 3.765-5.015 8.863-4.667h24.643c4.726-.143 7.558 1.413 8.495 4.667 1.405 4.88.961 32.436.961 34.2 0 1.763-3.385 3.924-4.635 5.174zM37 15c0 4.152-1.462 7.69-4.386 10.614C29.69 28.538 26.152 30 22 30c-4.152 0-7.69-1.462-10.614-4.386C8.462 22.69 7 19.152 7 15c0-4.152 1.462-7.69 4.386-10.614C14.31 1.462 17.848 0 22 0c4.152 0 7.69 1.462 10.614 4.386C35.538 7.31 37 10.848 37 15z"/></g></svg>