<svg width="132" height="127" viewBox="0 0 132 127" xmlns="http://www.w3.org/2000/svg" xmlns:xlink="http://www.w3.org/1999/xlink"><title>Group</title><desc>Created using Figma</desc><use xlink:href="#a" transform="translate(10 8)" fill="url(#b)"/><use xlink:href="#c" transform="translate(11.424 9.369)" fill="url(#d)"/><use xlink:href="#e" transform="translate(39 4)" fill="url(#f)"/><use xlink:href="#g" transform="translate(41.469 6.357)" fill="url(#h)"/><use xlink:href="#i" transform="translate(71)" fill="url(#j)"/><use xlink:href="#k" transform="translate(72.139 1.065)" fill="url(#l)"/><use xlink:href="#i" transform="translate(120 46)" fill="url(#m)"/><use xlink:href="#k" transform="translate(121.139 47.065)" fill="url(#n)"/><use xlink:href="#o" transform="translate(56 46)" fill="url(#p)"/><use xlink:href="#q" transform="translate(56.855 46.76)" fill="url(#r)"/><use xlink:href="#i" transform="translate(12 73)" fill="url(#s)"/><use xlink:href="#k" transform="translate(13.139 74.065)" fill="url(#t)"/><use xlink:href="#u" transform="matrix(-1 0 0 1 102.701 42.464)" fill="url(#v)"/><use xlink:href="#w" transform="matrix(-1 0 0 1 108 47.92)" fill="url(#x)"/><use xlink:href="#y" transform="matrix(-1 0 0 1 105.976 49.917)" fill="url(#z)"/><use xlink:href="#A" transform="matrix(-1 0 0 1 122 11.229)" fill="url(#B)"/><use xlink:href="#C" transform="matrix(-1 0 0 1 120.022 9.175)" fill="url(#D)"/><use xlink:href="#E" transform="matrix(-1 0 0 1 121.244 11.98)" fill="url(#F)"/><use xlink:href="#G" transform="matrix(-1 0 0 1 24.163 35.159)" fill="url(#H)"/><use xlink:href="#I" transform="matrix(-1 0 0 1 26 37.026)" fill="url(#J)"/><use xlink:href="#K" transform="matrix(-1 0 0 1 25.298 37.71)" fill="url(#L)"/><defs><linearGradient id="b" x2="1" gradientUnits="userSpaceOnUse" gradientTransform="matrix(0 17.9266 -14.7273 0 7.364 0)"><stop offset="0" stop-color="#E9D5EA"/><stop offset="1" stop-color="#BC9CBE"/></linearGradient><linearGradient id="d" x2="1" gradientUnits="userSpaceOnUse" gradientTransform="matrix(0 16.6313 -13.5758 0 6.788 0)"><stop offset="0" stop-color="#D0BAD1"/><stop offset="1" stop-color="#A384A5"/></linearGradient><linearGradient id="f" x2="1" gradientUnits="userSpaceOnUse" gradientTransform="matrix(0 30.8735 -25.5273 0 12.764 0)"><stop offset="0" stop-color="#E9D5EA"/><stop offset="1" stop-color="#BC9CBE"/></linearGradient><linearGradient id="h" x2="1" gradientUnits="userSpaceOnUse" gradientTransform="matrix(0 28.6427 -23.5313 0 11.766 0)"><stop offset="0" stop-color="#D0BAD1"/><stop offset="1" stop-color="#A384A5"/></linearGradient><linearGradient id="j" x2="1" gradientUnits="userSpaceOnUse" gradientTransform="matrix(0 13.9429 -11.7818 0 5.89 0)"><stop offset="0" stop-color="#E9D5EA"/><stop offset="1" stop-color="#BC9CBE"/></linearGradient><linearGradient id="l" x2="1" gradientUnits="userSpaceOnUse" gradientTransform="matrix(0 12.9354 -10.8606 0 5.43 0)"><stop offset="0" stop-color="#D0BAD1"/><stop offset="1" stop-color="#A384A5"/></linearGradient><linearGradient id="m" x2="1" gradientUnits="userSpaceOnUse" gradientTransform="matrix(0 13.9429 -11.7818 0 5.89 0)"><stop offset="0" stop-color="#E9D5EA"/><stop offset="1" stop-color="#BC9CBE"/></linearGradient><linearGradient id="n" x2="1" gradientUnits="userSpaceOnUse" gradientTransform="matrix(0 12.9354 -10.8606 0 5.43 0)"><stop offset="0" stop-color="#D0BAD1"/><stop offset="1" stop-color="#A384A5"/></linearGradient><linearGradient id="p" x2="1" gradientUnits="userSpaceOnUse" gradientTransform="matrix(0 9.9592 -8.83636 0 4.418 0)"><stop offset="0" stop-color="#E9D5EA"/><stop offset="1" stop-color="#BC9CBE"/></linearGradient><linearGradient id="r" x2="1" gradientUnits="userSpaceOnUse" gradientTransform="matrix(0 9.23959 -8.14545 0 4.073 0)"><stop offset="0" stop-color="#D0BAD1"/><stop offset="1" stop-color="#A384A5"/></linearGradient><linearGradient id="s" x2="1" gradientUnits="userSpaceOnUse" gradientTransform="matrix(0 13.9429 -11.7818 0 5.89 0)"><stop offset="0" stop-color="#E9D5EA"/><stop offset="1" stop-color="#BC9CBE"/></linearGradient><linearGradient id="t" x2="1" gradientUnits="userSpaceOnUse" gradientTransform="matrix(0 12.9354 -10.8606 0 5.43 0)"><stop offset="0" stop-color="#D0BAD1"/><stop offset="1" stop-color="#A384A5"/></linearGradient><linearGradient id="v" x2="1" gradientUnits="userSpaceOnUse" gradientTransform="matrix(0 78.7415 -68.5888 0 34.294 0)"><stop offset="0" stop-color="#E9D5EA"/><stop offset="1" stop-color="#BC9CBE"/></linearGradient><linearGradient id="x" x2="1" gradientUnits="userSpaceOnUse" gradientTransform="matrix(0 78.877 -64.4815 0 32.24 0)"><stop offset="0" stop-color="#BF9CC2"/><stop offset="1" stop-color="#BC8EC0"/></linearGradient><linearGradient id="z" x2="1" gradientUnits="userSpaceOnUse" gradientTransform="matrix(0 74.7526 -60.4372 0 30.219 0)"><stop offset="0" stop-color="#D0BAD1"/><stop offset="1" stop-color="#A384A5"/></linearGradient><linearGradient id="B" x2="1" gradientUnits="userSpaceOnUse" gradientTransform="matrix(0 29.6949 -24.0731 0 12.037 0)"><stop offset="0" stop-color="#BF9CC2"/><stop offset="1" stop-color="#BC8EC0"/></linearGradient><linearGradient id="D" x2="1" gradientUnits="userSpaceOnUse" gradientTransform="matrix(0 29.6439 -25.6065 0 12.803 0)"><stop offset="0" stop-color="#E9D5EA"/><stop offset="1" stop-color="#BC9CBE"/></linearGradient><linearGradient id="F" x2="1" gradientUnits="userSpaceOnUse" gradientTransform="matrix(0 28.1422 -22.5632 0 11.282 0)"><stop offset="0" stop-color="#D0BAD1"/><stop offset="1" stop-color="#A384A5"/></linearGradient><linearGradient id="H" x2="1" gradientUnits="userSpaceOnUse" gradientTransform="matrix(0 26.949 -23.7774 0 11.889 0)"><stop offset="0" stop-color="#E9D5EA"/><stop offset="1" stop-color="#BC9CBE"/></linearGradient><linearGradient id="J" x2="1" gradientUnits="userSpaceOnUse" gradientTransform="matrix(0 26.9953 -22.3536 0 11.177 0)"><stop offset="0" stop-color="#BF9CC2"/><stop offset="1" stop-color="#BC8EC0"/></linearGradient><linearGradient id="L" x2="1" gradientUnits="userSpaceOnUse" gradientTransform="matrix(0 25.5838 -20.9516 0 10.476 0)"><stop offset="0" stop-color="#D0BAD1"/><stop offset="1" stop-color="#A384A5"/></linearGradient><path id="a" d="M.333 10.25c.182-.298.394-.536.667-.685l4-2.261V2.751c0-.297.09-.595.273-.892.182-.298.394-.536.666-.685L7.788.133c.242-.149.485-.179.667-.06.06.03.12.09.151.15l1.212 1.19-1.121.862v2.887l4-2.262c.242-.149.485-.178.667-.06.06.03.12.09.151.15l1.212 1.19-1.12.684v.655a1.7 1.7 0 0 1-.274.892c-.181.298-.394.536-.666.685l-4 2.261v4.523a1.7 1.7 0 0 1-.273.893c-.182.297-.394.535-.667.684l-1.12.625v1.845l-1.395-1.37c-.182-.088-.273-.297-.273-.594V11.47l-3.333 1.904v1.756L.212 13.76C.061 13.643 0 13.464 0 13.226v-2.083c.06-.297.152-.595.333-.892z"/><path id="c" d="M.273 10.22c.182-.298.394-.536.666-.684l4-2.262V2.751c0-.297.091-.595.273-.892.182-.298.394-.536.636-.685L7.697.133c.242-.149.485-.179.667-.06.181.09.272.298.272.596V5.19l4-2.261c.243-.149.485-.179.667-.06.182.09.273.298.273.596v2.082a1.7 1.7 0 0 1-.273.893c-.182.298-.394.536-.667.684l-4 2.232v4.523a1.7 1.7 0 0 1-.272.893c-.182.297-.394.535-.667.684l-1.849 1.041c-.242.15-.484.179-.666.06-.182-.12-.273-.298-.273-.595V11.47L.94 13.73c-.242.149-.484.179-.666.06C.09 13.7 0 13.493 0 13.195v-2.082c.03-.298.09-.595.273-.893z"/><path id="e" d="M.578 17.652c.315-.512.683-.922 1.155-1.178l6.934-3.895v-7.84c0-.513.157-1.025.472-1.538.316-.512.683-.922 1.156-1.178L13.499.229c.42-.256.84-.307 1.155-.103.106.052.21.154.263.257l2.101 2.05-1.943 1.486v4.97l6.933-3.894c.42-.256.84-.308 1.156-.103.105.052.21.154.262.256l2.101 2.05-1.943 1.179v1.127c0 .513-.158 1.025-.473 1.538-.315.512-.683.922-1.155 1.178l-6.934 3.895v7.79c0 .512-.157 1.024-.473 1.537-.315.512-.682.922-1.155 1.178l-1.944 1.076v3.177l-2.416-2.357c-.315-.153-.472-.512-.472-1.025v-7.738l-5.778 3.28v3.023L.368 23.7C.105 23.494 0 23.187 0 22.777V19.19c.105-.513.263-1.025.578-1.538z"/><path id="g" d="M.473 17.601c.315-.512.683-.922 1.155-1.179l6.934-3.894v-7.79c0-.512.157-1.024.472-1.537.316-.512.683-.922 1.103-1.178L13.341.229c.42-.256.84-.307 1.156-.103.315.154.473.513.473 1.025v7.79l6.933-3.895c.42-.256.84-.307 1.156-.102.315.153.472.512.472 1.024v3.588c0 .512-.157 1.025-.472 1.537-.316.512-.683.922-1.156 1.179l-6.933 3.843v7.79c0 .512-.158 1.024-.473 1.537-.315.512-.683.922-1.156 1.178l-3.204 1.794c-.42.256-.84.307-1.155.102-.315-.205-.473-.512-.473-1.025v-7.738l-6.88 3.895c-.42.256-.841.307-1.156.102C.158 23.598 0 23.238 0 22.726v-3.588c.053-.512.158-1.025.473-1.537z"/><path id="i" d="M.267 7.972c.145-.231.315-.417.533-.532L4 5.68V2.14c0-.231.073-.463.218-.694.146-.232.315-.417.534-.533L6.23.103c.194-.115.388-.138.534-.046a.28.28 0 0 1 .12.116l.97.926-.896.67v2.246l3.2-1.76c.194-.115.388-.138.533-.046.048.024.097.07.121.116l.97.926-.897.532v.51c0 .23-.073.462-.218.694-.146.231-.316.416-.534.532l-3.2 1.759v3.517c0 .232-.072.463-.218.695-.145.231-.315.416-.533.532l-.897.486v1.435L4.17 12.878c-.146-.07-.218-.231-.218-.463V8.921l-2.667 1.481v1.365L.17 10.703C.048 10.61 0 10.47 0 10.286v-1.62a2.03 2.03 0 0 1 .267-.694z"/><path id="k" d="M.218 7.949c.146-.232.315-.417.534-.532l3.2-1.76V2.14c0-.231.072-.463.218-.694a1.59 1.59 0 0 1 .509-.533l1.479-.81c.194-.115.387-.138.533-.046.145.07.218.232.218.463v3.518l3.2-1.76c.194-.115.388-.138.533-.045.146.069.219.231.219.462v1.62c0 .232-.073.463-.219.695-.145.231-.315.416-.533.532l-3.2 1.736v3.517c0 .232-.073.463-.218.695-.146.231-.315.416-.533.532l-1.48.81c-.193.116-.387.139-.533.046-.145-.092-.218-.231-.218-.463V8.921L.752 10.68c-.194.115-.388.139-.534.046-.145-.07-.218-.231-.218-.463v-1.62c.024-.231.073-.463.218-.694z"/><path id="o" d="M.2 5.694a1.06 1.06 0 0 1 .4-.38L3 4.058v-2.53c0-.165.055-.33.164-.495.109-.166.236-.298.4-.38l1.109-.58c.145-.082.29-.098.4-.032a.21.21 0 0 1 .09.082l.728.662-.673.48v1.603l2.4-1.257c.146-.082.291-.099.4-.033a.21.21 0 0 1 .091.083l.727.661-.672.38v.364c0 .165-.055.33-.164.496a1.06 1.06 0 0 1-.4.38L5.2 5.198v2.513c0 .165-.055.33-.164.496a1.06 1.06 0 0 1-.4.38l-.672.347V9.96l-.837-.76c-.109-.05-.163-.166-.163-.33V6.371l-2 1.058v.975l-.837-.76C.037 7.579 0 7.48 0 7.347V6.19c.036-.165.09-.33.2-.496z"/><path id="q" d="M.164 5.678a1.06 1.06 0 0 1 .4-.38l2.4-1.257V1.53c0-.166.054-.331.163-.496.11-.166.237-.298.382-.38l1.11-.58c.145-.082.29-.098.4-.032.108.05.163.165.163.33v2.513l2.4-1.256c.145-.083.29-.1.4-.033.109.05.163.165.163.33v1.157a.892.892 0 0 1-.163.496 1.06 1.06 0 0 1-.4.38l-2.4 1.24v2.513c0 .165-.055.33-.164.496a1.06 1.06 0 0 1-.4.38l-1.109.579c-.145.082-.29.099-.4.033-.109-.066-.164-.166-.164-.33V6.371L.564 7.628c-.146.083-.291.1-.4.033-.11-.05-.164-.165-.164-.33V6.174c.018-.166.055-.33.164-.496z"/><path id="u" fill-rule="evenodd" d="M65.893 37.207c-3.664-8.471-8.085-13.159-12.378-15.632-8.842-5.094-16.725-1.01-17.14-.794-.412-.692-8.243-13.832-17.085-18.926C15.943-.074 12.51-.75 9.406 1.05L0 6.505c3.104-1.8 6.537-1.124 9.884.805 8.842 5.095 16.673 18.234 17.085 18.926.415-.215 8.297-4.3 17.14.794 4.293 2.474 8.714 7.161 12.378 15.632 7.062 16.333-.655 29.107-12.677 36.08l9.406-5.455c12.022-6.973 19.74-19.748 12.677-36.08z"/><path id="w" fill-rule="evenodd" d="M49.408 21.575c-8.843-5.095-16.725-1.01-17.14-.794-.412-.692-8.243-13.832-17.085-18.927-4.292-2.472-8.726-2.886-12.425 1.34-10.194 11.646 9.73 50.767 29.345 75.683C51.8 76.611 71.876 60.54 61.785 37.207c-3.663-8.471-8.084-13.159-12.377-15.632z"/><path id="y" fill-rule="evenodd" d="M46.383 21.308c-2.626-1.513-5.422-2.28-8.313-2.28-3.84 0-6.602 1.372-6.904 1.528l-1.676.867-.967-1.62c-.817-1.37-8.215-13.52-16.365-18.216C10.33.534 8.65 0 7.168 0 5.332 0 3.72.822 2.242 2.511-1.757 7.079-.362 18.292 6.069 33.276c5.697 13.277 14.96 28.703 24.886 41.477 11.38-1.617 21.67-7.834 26.424-16.04 3.884-6.701 4.072-14.556.544-22.713-3.074-7.11-6.957-12.052-11.54-14.692z"/><path id="A" fill-rule="evenodd" d="M18.446 8.122c-3.302-1.918-6.244-.38-6.4-.299-.153-.26-3.077-5.207-6.378-7.125-1.602-.93-3.257-1.087-4.638.505-3.806 4.384 3.632 19.112 10.955 28.492 7.353-.853 14.849-6.904 11.082-15.688-1.368-3.189-3.018-4.954-4.621-5.885z"/><path id="C" fill-rule="evenodd" d="M24.6 14.007c-1.368-3.189-3.018-4.953-4.621-5.885-3.301-1.917-6.244-.38-6.399-.299-.154-.26-3.077-5.207-6.378-7.125-1.25-.726-2.532-.98-3.69-.303L0 2.45c1.159-.678 2.44-.423 3.69.303 3.301 1.918 6.225 6.865 6.378 7.125.155-.08 3.098-1.619 6.4.3 1.602.93 3.253 2.695 4.62 5.884 2.637 6.149-.244 10.958-4.732 13.583l3.511-2.054c4.488-2.625 7.37-7.434 4.733-13.583z"/><path id="E" fill-rule="evenodd" d="M17.316 8.022c-.98-.57-2.024-.858-3.103-.858-1.434 0-2.465.516-2.577.575l-.626.326-.361-.61c-.305-.515-3.067-5.09-6.11-6.858C3.857.201 3.229 0 2.676 0 1.99 0 1.39.31.836.945c-1.492 1.72-.971 5.941 1.43 11.582 2.127 4.999 5.585 10.806 9.29 15.615 4.25-.608 8.09-2.949 9.866-6.038 1.45-2.523 1.52-5.48.203-8.551-1.148-2.677-2.598-4.537-4.309-5.531z"/><path id="G" fill-rule="evenodd" d="M22.843 12.734c-1.27-2.9-2.803-4.504-4.291-5.35-3.066-1.743-5.798-.345-5.942-.272-.143-.237-2.858-4.734-5.923-6.477-1.16-.66-2.35-.892-3.426-.276L0 2.226c1.076-.616 2.266-.384 3.427.276 3.065 1.744 5.78 6.24 5.922 6.477.144-.073 2.877-1.471 5.942.272 1.488.847 3.021 2.45 4.291 5.35 2.448 5.59-.227 9.962-4.395 12.348l3.261-1.867c4.168-2.386 6.843-6.758 4.395-12.348z"/><path id="I" fill-rule="evenodd" d="M17.128 7.384c-3.065-1.744-5.798-.346-5.942-.272-.143-.237-2.857-4.734-5.923-6.477C3.776-.212 2.24-.353.956 1.093-2.578 5.08 4.33 18.468 11.13 26.995c6.828-.775 13.788-6.276 10.29-14.261-1.27-2.9-2.803-4.504-4.29-5.35z"/><path id="K" fill-rule="evenodd" d="M16.08 7.293a5.77 5.77 0 0 0-2.882-.78c-1.332 0-2.289.469-2.394.522l-.58.297-.336-.554C9.605 6.308 7.04 2.15 4.215.543 3.58.183 2.999 0 2.485 0 1.848 0 1.29.281.777.86c-1.386 1.563-.902 5.4 1.327 10.528 1.975 4.544 5.186 9.824 8.627 14.196 3.945-.554 7.512-2.681 9.16-5.49 1.347-2.293 1.412-4.981.19-7.773-1.067-2.433-2.413-4.125-4.002-5.028z"/></defs></svg>