<svg width="41" height="44" viewBox="0 0 41 44" xmlns="http://www.w3.org/2000/svg" xmlns:xlink="http://www.w3.org/1999/xlink"><title></title><desc>Created using Figma</desc><use xlink:href="#a" fill="url(#b)"/><defs><linearGradient id="b" x2="1" gradientUnits="userSpaceOnUse" gradientTransform="matrix(0 44 -40.8571 0 20.429 0)"><stop offset="0" stop-color="#D0BAD1"/><stop offset="1" stop-color="#A384A5"/></linearGradient><path id="a" fill-rule="evenodd" d="M25.241 15.813c0 1.751-.626 3.249-1.878 4.493-1.253 1.244-2.754 1.866-4.506 1.866-1.751 0-3.253-.622-4.505-1.866-1.253-1.244-1.879-2.742-1.879-4.494 0-1.767.626-3.273 1.878-4.517 1.253-1.244 2.755-1.866 4.506-1.866 1.752 0 3.253.622 4.506 1.866 1.252 1.244 1.878 2.75 1.878 4.518zm-1.179 5.401c.753 0 1.429.14 2.026.418a3.912 3.912 0 0 1 1.473 1.166c.385.5.708 1.048.97 1.645.262.598.459 1.26.59 1.989.13.728.225 1.404.282 2.026.057.622.086 1.268.086 1.94 0 1.096-.324 2.066-.97 2.909-.647.843-1.51 1.264-2.59 1.264H11.785c-1.08 0-1.944-.421-2.59-1.264-.647-.843-.97-1.813-.97-2.91 0-.785.036-1.55.11-2.295.073-.745.225-1.552.454-2.419.23-.868.528-1.616.896-2.247a4.682 4.682 0 0 1 1.547-1.583c.663-.426 1.428-.639 2.296-.639h.123c.114.066.376.225.785.479.41.254.7.426.872.516.172.09.442.229.81.417.369.188.671.32.909.393.237.074.524.147.86.22.335.075.658.111.969.111.311 0 .634-.036.97-.11.335-.074.622-.147.86-.221.237-.074.54-.205.908-.393.368-.188.638-.327.81-.417.172-.09.462-.262.872-.516.409-.254.67-.413.785-.479zm16.795-6.285a.755.755 0 0 1-.233.552.755.755 0 0 1-.553.233h-2.357v3.143h2.357c.213 0 .397.078.553.233.155.156.233.34.233.553v4.714a.755.755 0 0 1-.233.553.755.755 0 0 1-.553.233h-2.357v3.143h2.357c.213 0 .397.077.553.233.155.155.233.34.233.552v4.715a.755.755 0 0 1-.233.552.755.755 0 0 1-.553.233h-2.357v5.5c0 1.08-.384 2.006-1.154 2.775-.77.77-1.694 1.154-2.774 1.154H3.929c-1.08 0-2.006-.385-2.775-1.154C.384 42.076 0 41.152 0 40.071V3.93c0-1.08.385-2.006 1.154-2.775C1.924.384 2.848 0 3.929 0h29.857c1.08 0 2.005.385 2.774 1.154.77.77 1.154 1.694 1.154 2.775v5.5h2.357c.213 0 .397.077.553.233.155.155.233.34.233.552v4.715zM34.571 40.07V3.93a.755.755 0 0 0-.233-.553.755.755 0 0 0-.552-.233H3.929a.755.755 0 0 0-.553.233.755.755 0 0 0-.233.553v36.14c0 .213.078.397.233.553.156.155.34.233.553.233h29.857a.755.755 0 0 0 .552-.233.755.755 0 0 0 .233-.553z"/></defs></svg>