<svg width="91" height="163" viewBox="0 0 91 163" xmlns="http://www.w3.org/2000/svg" xmlns:xlink="http://www.w3.org/1999/xlink"><title>icon_1</title><desc>Created using Figma</desc><use xlink:href="#a" transform="translate(19 126)" fill="#E7EBEE"/><use xlink:href="#b" transform="translate(25.38 136.9)" fill="#FFCDD2"/><use xlink:href="#c" transform="translate(26.57 110.42)" fill="#FFDBDF"/><use xlink:href="#d" transform="translate(26.57 114.96)" fill="#EF9A9A"/><use xlink:href="#e" transform="translate(35.25 114.96)" fill="#FFCDD2"/><use xlink:href="#f" transform="translate(35.25 139.68)" fill="#EF9A9A"/><use xlink:href="#g" transform="translate(25.37 138.15)" fill="#3A3853"/><use xlink:href="#h" transform="translate(43.48 146.9)" fill="#8C8C9A"/><use xlink:href="#i" transform="translate(31.41 109.9)" fill="#3A3853"/><use xlink:href="#j" transform="translate(26.58 93.79)" fill="#FFCDD2"/><use xlink:href="#k" transform="translate(26.57 93.79)" fill="#EF9A9A"/><use xlink:href="#l" transform="translate(45.6 125.63)" fill="#FFCDD2"/><use xlink:href="#m" transform="translate(46.7 99.12)" fill="#FFDBDF"/><use xlink:href="#n" transform="translate(46.7 103.7)" fill="#EF9A9A"/><use xlink:href="#o" transform="translate(55.45 103.7)" fill="#FFCDD2"/><use xlink:href="#p" transform="translate(55.4 128.42)" fill="#EF9A9A"/><use xlink:href="#q" transform="translate(45.6 126.9)" fill="#3A3853"/><use xlink:href="#r" transform="translate(63.7 135.61)" fill="#3A3853"/><use xlink:href="#s" transform="translate(51.55 98.54)" fill="#3A3853"/><use xlink:href="#t" transform="translate(46.7 82.53)" fill="#FFCDD2"/><use xlink:href="#u" transform="translate(46.71 82.53)" fill="#EF9A9A"/><use xlink:href="#v" transform="translate(64 58.9)" fill="#3A3853"/><use xlink:href="#w" transform="translate(61.6 37.15)" fill="#FFE1E4"/><use xlink:href="#x" transform="translate(61.57 39.1)" fill="#EF9A9A"/><use xlink:href="#y" transform="translate(67.18 40.45)" fill="#FFCDD2"/><use xlink:href="#z" transform="translate(67.18 61.53)" fill="#FFCDD2"/><use xlink:href="#A" transform="translate(64.8 63.57)" fill="#EF9A9A"/><use xlink:href="#B" transform="translate(79 78.97)" fill="#757487"/><use xlink:href="#C" transform="translate(76.27 81.18)" fill="#3A3853"/><use xlink:href="#D" transform="translate(79.34 82.7)" fill="#FFE1E4"/><use xlink:href="#E" transform="translate(21 84.65)" fill="#3A3853"/><use xlink:href="#F" transform="translate(19.26 34.78)" fill="#F3E5F5"/><use xlink:href="#G" transform="translate(19.26 44.69)" fill="#FFCDD2"/><use xlink:href="#H" transform="translate(19.26 52.31)" fill="#C78183"/><use xlink:href="#I" transform="translate(56.39 73.39)" fill="#EF9A9A"/><use xlink:href="#J" transform="translate(48.29 78.55)" fill="#EF9A9A"/><use xlink:href="#K" transform="translate(40.16 83.72)" fill="#EF9A9A"/><use xlink:href="#L" transform="translate(40.5 54.76)" fill="#EF9A9A"/><use xlink:href="#M" transform="translate(28.35 58.99)" fill="#3A3853"/><use xlink:href="#N" transform="translate(25.8 80.33)" fill="#3A3853"/><use xlink:href="#O" transform="translate(23.43 58.6)" fill="#FFE1E4"/><use xlink:href="#P" transform="translate(23.42 60.52)" fill="#EF9A9A"/><use xlink:href="#Q" transform="translate(29.12 61.9)" fill="#FFCDD2"/><use xlink:href="#R" transform="translate(29.12 82.95)" fill="#FFCDD2"/><use xlink:href="#S" transform="translate(26.65 84.99)" fill="#EF9A9A"/><use xlink:href="#T" transform="translate(40.81 100.39)" fill="#757487"/><use xlink:href="#U" transform="translate(38.21 102.59)" fill="#3A3853"/><use xlink:href="#V" transform="translate(41.27 104.12)" fill="#FFE1E4"/><use xlink:href="#W" transform="translate(0 13.41)" fill="url(#X)"/><use xlink:href="#Y" transform="translate(3.94 15.64)" fill="url(#Z)"/><use xlink:href="#aa" transform="translate(25 19.71)" fill="#EF9A9A"/><use xlink:href="#ab" transform="translate(25 9.81)" fill="#F3E5F5"/><use xlink:href="#ac" transform="translate(46.53 24.45)" fill="#3A3853"/><use xlink:href="#ad" transform="translate(48.49 28.52)" fill="#FFCDD2"/><use xlink:href="#ae" transform="translate(31.94 5.93)" fill="#3D5662"/><use xlink:href="#af" transform="translate(42.3)" fill="#3D5662"/><defs><linearGradient id="X" x2="1" gradientUnits="userSpaceOnUse" gradientTransform="matrix(0 111.417 -86.26 0 43.13 0)"><stop offset="0" stop-color="#B1BBE7"/><stop offset="1" stop-color="#7986CB"/></linearGradient><linearGradient id="Z" x2="1" gradientUnits="userSpaceOnUse" gradientTransform="matrix(0 111.409 -86.26 0 43.13 0)"><stop offset="0" stop-color="#CDD3EF"/><stop offset="1" stop-color="#9FA8DA"/></linearGradient><path id="a" fill-rule="evenodd" d="M4.139 30.251c-8.07-4.727-3.98-14.79 9.134-22.474C26.387.094 43.558-2.303 51.627 2.425c8.069 4.728 19.526 23.218 6.413 30.903-13.113 7.684-45.833 1.651-53.901-3.077z"/><path id="b" d="M0 1.25L3.73 0 1.86 2.37 0 1.25z"/><path id="c" d="M17.43 4.53L8.75 9.48 0 4.57 8.67 0l8.76 4.53z"/><path id="d" d="M0 0v23.87l8.67 5.16.08-24.09L0 0z"/><path id="e" d="M8.75 0v24.72L0 29.04l.07-24.1L8.75 0z"/><path id="f" d="M16.47 7.22l-2.8-3.89L8.75 0 0 4.32l5.69 3.3 2.55 4.15 8.23-4.55z"/><path id="g" d="M18.1 13.29l-2.55-4.15L0 0v5.25l18.1 10.5v-2.46z"/><path id="h" d="M8.24 0L0 4.57V7l8.24-4.23V0z"/><path id="i" d="M11.13 4.3L4.84 7.77 0 4.77V1.55L11.13 0v4.3z"/><path id="j" d="M17.42 16.26l-8.67 4.91L0 16.26V0l17.42.42v15.84z"/><path id="k" d="M8.75 21.17l-.08-21L0 0v16.26l8.75 4.91z"/><path id="l" d="M0 1.27L3.65 0 1.87 2.27 0 1.27z"/><path id="m" d="M17.42 4.57L8.84 9.48 0 4.57 8.75 0l8.67 4.57z"/><path id="n" d="M0 0v23.79l8.75 5.25.08-24.13L0 0z"/><path id="o" d="M8.67 0v24.72L0 29.04.08 4.91 8.67 0z"/><path id="p" d="M16.45 7.2L13.6 3.3 8.67 0 0 4.32l5.69 3.3 2.55 4.06 8.21-4.48z"/><path id="q" d="M18.1 13.2l-2.55-4.06L0 0v5.16l18.1 10.58V13.2z"/><path id="r" d="M8.15 0L0 4.49v2.54L8.16 2.8 8.15 0z"/><path id="s" d="M11.13 4.36l-6.2 3.47-4.93-3V1.61L11.13 0v4.36z"/><path id="t" d="M17.42 16.17l-8.58 5-8.84-5V0l17.42.42v15.75z"/><path id="u" d="M8.83 21.17l-.08-21L0 0v16.17l8.83 5z"/><path id="v" d="M0 .18l1.44 8 4.42-4.15V0L0 .18z"/><path id="w" d="M9.06 3.3L3.4 0 0 1.95l5.61 3.3L9.06 3.3z"/><path id="x" d="M5.61 3.3v18.71L0 18.62V0l5.61 3.3z"/><path id="y" d="M3.48 0L0 1.95v18.71l3.48-1.95V0z"/><path id="z" d="M3.48 0L0 2l11.82 17.64 3.74-2.2L3.48 0z"/><path id="A" d="M0 4.91L2.38 0 14.2 17.61l-2.72 5.08L0 4.91z"/><path id="B" d="M3.73 0l1.53 3.73-3 1.69L0 2.2 3.73 0z"/><path id="C" d="M0 5.08L2.73 0l2.29 3.22-2 4.15L0 5.08z"/><path id="D" d="M4.92 0l-1.1 3.56L0 5.85 2 1.7 4.92 0z"/><path id="E" d="M0 7.87v1.38l15.46 9.14 29.4-16.51V0L0 7.87z"/><path id="F" d="M0 17.53l17.16 9.74L47.07 9.91 29.82 0 0 17.53z"/><path id="G" d="M0 7.62v39.2l17.16 10.16 29.91-17.36V0L17.16 17.36 0 7.62z"/><path id="H" d="M0 0l17.16 9.74v39.62L0 39.2V0z"/><path id="I" d="M0 11.68l6.8-3.89V0L0 3.89v7.79z"/><path id="J" d="M.03 11.68l6.68-3.89V0L0 3.89l.03 7.79z"/><path id="K" d="M0 11.68l6.84-3.89V0L.04 3.89 0 11.68z"/><path id="L" d="M0 28.87l22.26-12.78V0L0 12.87v16z"/><path id="M" d="M0 .51L.76 0l4.89 2.91v6.18l-1.44.76L0 .51z"/><path id="N" d="M0 .17l1.53 8 4.42-4.15V0L0 .17z"/><path id="O" d="M9.17 3.3L3.48 0 0 1.95l5.69 3.3L9.17 3.3z"/><path id="P" d="M5.69 3.3v18.71L0 18.62V0l5.69 3.3z"/><path id="Q" d="M3.48 0L0 1.95v18.68l3.48-1.95V0z"/><path id="R" d="M3.48 0L0 2l11.73 17.61 3.74-2.2L3.48 0z"/><path id="S" d="M0 4.91L2.46 0l11.73 17.61-2.63 5.08L0 4.91z"/><path id="T" d="M3.77 0l1.61 3.73-3 1.69L0 2.2 3.77 0z"/><path id="U" d="M0 5.08L2.63 0l2.38 3.22-2 4.15L0 5.08z"/><path id="V" d="M4.92 0l-1.1 3.56L0 5.85 2 1.7 4.92 0z"/><path id="W" d="M86.26 30.813c0-27.56-19.26-38.68-43.13-24.9C19.26 19.693 0 53.063 0 80.613c0 27.55 19.26 38.68 43.13 24.88s43.13-47.12 43.13-74.68zM6 77.133c0-10.29 3.07-21.8 8.82-32.87l52.37 30.23c-6.71 10.38-15.19 18.9-24.06 24-10 5.75-19.26 6.7-26.26 2.66S5.94 88.693 6 77.133zm74.22-42.83c0 10.29-3.07 21.8-8.82 32.87l-52.33-30.22c6.71-10.4 15.14-18.92 24.06-24.07 10-5.75 19.26-6.7 26.26-2.66s10.93 12.51 10.83 24.08z"/><path id="Y" d="M86.26 30.81c0-27.55-19.27-38.68-43.13-24.9C19.27 19.69 0 53.06 0 80.61c0 27.551 19.26 38.651 43.13 24.901 23.87-13.75 43.13-47.14 43.13-74.7zM6.06 77.13c0-10.3 3-21.81 8.79-32.87l52.33 30.21c-6.71 10.4-15.14 18.92-24.06 24.07-9.96 5.721-19.26 6.721-26.26 2.661-7-4.06-10.92-12.51-10.8-24.07zm74.16-42.87c0 10.29-3.07 21.8-8.82 32.87L19.06 36.95c6.71-10.4 15.14-18.92 24.06-24.07 10-5.75 19.26-6.7 26.26-2.66s10.93 12.51 10.84 24.04z"/><path id="aa" d="M0 24.47l21.58 6.77V12.7L0 0v24.47z"/><path id="ab" d="M0 9.91L17.2 0l17.16 14.65-12.83 8L0 9.91z"/><path id="ac" d="M12.83 0v19.81L0 26.45V7.96L12.83 0z"/><path id="ad" d="M8.92 0v13.8L0 18.38V5.5L8.92 0z"/><path id="ae" d="M.49 15.48a.55.55 0 0 0 .51-.51V.41a.51.51 0 0 0-1 0v14.56a.49.49 0 0 0 .49.51z"/><path id="af" d="M.49 15.73a.55.55 0 0 0 .51-.51V.41a.51.51 0 0 0-1 0v14.81a.55.55 0 0 0 .49.51z"/></defs></svg>