<svg xmlns="http://www.w3.org/2000/svg" width="173" height="157" viewBox="0 0 173 157"><defs><linearGradient id="a" x1="50%" x2="50%" y1="0%" y2="100%"><stop offset="0%" stop-color="#D0BAD1"/><stop offset="100%" stop-color="#A384A5"/></linearGradient><linearGradient id="b" x1="50%" x2="50%" y1="0%" y2="100%"><stop offset="0%" stop-color="#C9ADCB"/><stop offset="100%" stop-color="#745976"/></linearGradient><linearGradient id="c" x1="50%" x2="50%" y1="0%" y2="100%"><stop offset="0%" stop-color="#FFF2E8"/><stop offset="100%" stop-color="#F5E4F1"/></linearGradient><linearGradient id="d" x1="50%" x2="50%" y1="0%" y2="100%"><stop offset="0%" stop-color="#EFE0D5"/><stop offset="100%" stop-color="#C5A4BD"/></linearGradient><linearGradient id="e" x1="50%" x2="50%" y1="0%" y2="100%"><stop offset="0%" stop-color="#E5EDF6"/><stop offset="100%" stop-color="#C6D6EA"/></linearGradient></defs><g fill="none" fill-rule="evenodd"><path fill="#E7EBEE" d="M44.424 154.267s-31.533-17.994-39.65-22.7c-4.757-2.756 12.328-22.546 53.88-32.787 19.572-4.824 50.918-8.084 94.039-9.78 15.037 25.94 21.723 39.578 20.058 40.917-2.498 2.008-54.885 3.752-64.136 5.513-5.612 1.067-1.686 20.35-6.402 21.383-4.716 1.033-57.789-2.546-57.789-2.546z"/><path fill="url(#a)" d="M116.513 69.684l-109.42 63.04v-24.917L28.42 18.842l22.39 38.414 21.32-39.02z"/><path fill="url(#b)" d="M0 104.297v24.953l8.077 4.487v-24.954l21.305-89.098-8.078-4.488zm65.68-90.113l8.28 4.486-21.83 39.08-5.524-9.578z"/><path fill="url(#c)" d="M26.342 143.868l109.421-63.622-44.38-76.193-21.14 38.237-22.572 13.104z"/><path fill="url(#d)" d="M62.288 38.017L39.64 51.045l-21.402 87.964 7.686 4.86 21.402-87.966 22.649-13.028L91.184 4.86 83.498 0z"/><path fill="url(#e)" d="M89.391 102.788L67 89.7 44.579 154 154 90.6V64.807l-34.102-20.228z"/><path fill="#779ECA" d="M36.474 149.287l7.7 4.713 22.694-65.195-7.701-4.713zm74.584-108.761l7.481 4.644-30.003 58.172-7.483-4.645z"/></g></svg>