<svg xmlns="http://www.w3.org/2000/svg" xmlns:xlink="http://www.w3.org/1999/xlink" width="111" height="157" viewBox="0 0 111 157"><defs><linearGradient id="a" x1="50%" x2="50%" y1="0%" y2="100%"><stop offset="0%" stop-color="#D0BAD1"/><stop offset="100%" stop-color="#A384A5"/></linearGradient><linearGradient id="b" x1="50%" x2="50%" y1="0%" y2="100%"><stop offset="0%" stop-color="#AD8CAF"/><stop offset="100%" stop-color="#6A4B6D"/></linearGradient><path id="c" d="M24.084 54.316V.901H.271v53.415h23.813z"/><linearGradient id="d" x1="50%" x2="50%" y1="0%" y2="100%"><stop offset="0%" stop-color="#A88CAA"/><stop offset="100%" stop-color="#634865"/></linearGradient><path id="f" d="M31.084.495v25.18H.797V.495z"/></defs><g fill="none" fill-rule="evenodd"><path fill="#E7EBEE" d="M86.126 153.734c-13.165 7.576-28.018.22-36.118-4.44-8.1-4.661-19.046-51.614-5.882-59.19 13.164-7.574 58.39 25.955 65.527 35.633 4.757 6.452-3.085 15.785-23.527 27.997z"/><path fill="url(#a)" d="M6.204 69.482a6.748 6.748 0 0 0-.315-.145c-.038-.015-.075-.032-.111-.047a5.885 5.885 0 0 0-.294-.112l-.07-.026a6.593 6.593 0 0 0-.562-.161l-.097-.024a4.57 4.57 0 0 0-.74-.099l-.088-.005a4.064 4.064 0 0 0-.383.003l-.066.006a3.17 3.17 0 0 0-.297.035l-.092.014a3.172 3.172 0 0 0-.643.187c-.028.01-.056.023-.084.035a3.663 3.663 0 0 0-.244.119c-.025.015-.053.028-.079.042L25.741 55.53l.036-.022c.014-.007.029-.012.042-.02a3.23 3.23 0 0 1 .244-.12c.016-.006.03-.015.045-.022l.039-.013c.098-.04.197-.075.298-.105l.013-.005h.002a3.52 3.52 0 0 1 .33-.076l.039-.01.053-.006c.097-.014.197-.026.298-.034l.047-.006h.018c.125-.007.253-.007.383-.003l.037-.001c.017 0 .034.005.051.006.144.008.292.02.441.044h.001c.099.015.198.034.298.056l.098.023.186.045.019.006c.117.032.236.068.356.11l.072.027a5.8 5.8 0 0 1 .292.11l.039.016.073.033c.103.045.209.093.315.144l.119.058c.139.07.279.144.419.226L6.743 69.765a8.208 8.208 0 0 0-.539-.283"/><path fill="url(#b)" d="M61.27 148.557l23.701-13.773c-.006 2.083-.74 3.548-1.927 4.238l-23.7 13.773c1.185-.69 1.92-2.155 1.926-4.238"/><g transform="translate(61 94.241)"><mask id="e" fill="#fff"><use xlink:href="#c"/></mask><path fill="url(#d)" d="M.383 14.675L24.085.901l-.113 39.641L.27 54.316z" mask="url(#e)"/></g><path fill="url(#d)" d="M30.444 55.991L78.5 83.735 54.8 97.51 6.742 69.764z"/><path fill="url(#a)" d="M.112 73.541c.012-4.194 2.98-5.884 6.631-3.776L54.798 97.51c3.65 2.107 6.596 7.213 6.585 11.407l-.113 39.641c-.012 4.192-2.978 5.884-6.629 3.777L6.588 124.59c-3.65-2.108-6.6-7.216-6.588-11.407l.112-39.642z"/><g transform="translate(54 83.241)"><mask id="g" fill="#fff"><use xlink:href="#f"/></mask><path fill="url(#a)" d="M7.357 24.98a10.16 10.16 0 0 0-.056-.566 4.603 4.603 0 0 0-.022-.158l-.04-.267a11.898 11.898 0 0 0-.082-.439l-.03-.144a12.243 12.243 0 0 0-.194-.77 12.104 12.104 0 0 0-.175-.572l-.012-.041a14.527 14.527 0 0 0-.44-1.152l-.03-.07c-.074-.17-.15-.34-.232-.507-.02-.044-.043-.088-.065-.132a16.48 16.48 0 0 0-.2-.398c-.023-.04-.043-.081-.065-.122a15.65 15.65 0 0 0-.273-.49l-.055-.092a20.49 20.49 0 0 0-.256-.42l-.077-.121a15.43 15.43 0 0 0-.334-.498l-.052-.074a18.844 18.844 0 0 0-.417-.564 16.623 16.623 0 0 0-.487-.591c-.02-.026-.043-.051-.065-.077a14.38 14.38 0 0 0-.309-.341l-.019-.022a22.055 22.055 0 0 0-.337-.346l-.072-.07a14.824 14.824 0 0 0-.452-.42l-.042-.038c-.158-.14-.319-.27-.482-.398l-.093-.074c-.16-.123-.322-.241-.486-.353l-.088-.058a10.007 10.007 0 0 0-.52-.327L24.498.495c.175.1.348.212.52.326l.088.058c.164.113.326.23.486.354.032.023.063.048.093.072.163.128.324.26.483.4.014.01.028.025.042.038.153.134.303.275.451.42l.045.043c.01.008.018.018.027.027a11.083 11.083 0 0 1 .665.709c.01.01.021.02.03.032l.035.044c.166.192.33.389.487.592.005.006.01.01.013.017.013.016.024.033.037.048.125.163.248.329.367.498.011.017.024.033.037.05l.015.024c.115.164.226.33.334.499l.033.047.045.074c.087.138.172.278.255.42l.041.065a19.792 19.792 0 0 1 .288.517c.006.013.014.026.022.04l.041.082c.07.132.137.263.202.397.013.028.03.054.041.082l.023.05a14.47 14.47 0 0 1 .24.524c.008.017.014.035.021.052.067.155.13.31.191.465l.03.074.023.064a15.017 15.017 0 0 1 .201.56l.01.032c.062.19.12.38.173.57l.022.07.01.04c.06.22.114.442.162.66l.014.06.017.086c.018.087.034.173.05.259l.031.179c.016.089.028.178.041.267l.02.125.002.033c.024.19.042.379.055.568l.008.119c.011.193.02.384.02.574L7.381 25.675a8.524 8.524 0 0 0-.025-.694" mask="url(#g)"/></g><path fill="#53597F" d="M25.65 25.41c.01-3.992 1.424-6.804 3.702-8.127l8.652-5.028c-2.277 1.323-3.69 4.134-3.703 8.126l-.07 46.812-8.652 5.03.07-46.814zm34.224 19.76l8.653-5.029-.07 24.812-8.653 5.03z"/><path fill="#3C4167" d="M16.784 20.291C16.824 6.641 26.52 1.114 38.4 7.974 50.28 14.832 59.913 31.52 59.874 45.17l-.07 24.813-8.865-5.118.071-24.813c.022-8.034-5.648-17.855-12.639-21.892-6.992-4.036-12.699-.784-12.722 7.25l-.07 46.813-8.865-5.118.07-46.813z"/><path fill="#696F8E" d="M59.782 42.782c-.01-.141-.02-.283-.034-.425a34.328 34.328 0 0 0-.085-.83c-.015-.132-.028-.263-.045-.392a38.638 38.638 0 0 0-.155-1.113c-.01-.067-.023-.136-.034-.203a35.458 35.458 0 0 0-.209-1.177l-.029-.142c-.06-.306-.128-.611-.196-.916a56.79 56.79 0 0 0-.128-.563c-.06-.248-.122-.495-.187-.743a40.212 40.212 0 0 0-.403-1.462c-.03-.105-.059-.212-.092-.317a50.614 50.614 0 0 0-.394-1.239l-.077-.221a56.455 56.455 0 0 0-.352-.998c-.046-.126-.094-.252-.142-.38a41.243 41.243 0 0 0-.354-.918l-.117-.294a50.241 50.241 0 0 0-.597-1.409 52.651 52.651 0 0 0-1.127-2.387c-.014-.026-.026-.053-.039-.08a54.269 54.269 0 0 0-.6-1.146l-.172-.316a53.02 53.02 0 0 0-.504-.9 48.51 48.51 0 0 0-.819-1.386l-.138-.223a50.685 50.685 0 0 0-1.337-2.047l-.21-.308a51.03 51.03 0 0 0-.72-1.006c-.023-.03-.045-.063-.067-.093a53.42 53.42 0 0 0-.804-1.058c-.128-.163-.259-.325-.388-.486-.164-.206-.327-.412-.494-.613a38.366 38.366 0 0 0-.408-.482c-.16-.19-.32-.38-.485-.569-.35-.399-.704-.793-1.064-1.178-.002 0-.003 0-.004-.002a43.456 43.456 0 0 0-1.792-1.799c-.072-.069-.142-.139-.216-.206a40.226 40.226 0 0 0-.949-.86c-.082-.072-.166-.14-.249-.213-.239-.206-.478-.41-.72-.607-.118-.098-.237-.19-.354-.284a40.935 40.935 0 0 0-1.022-.789c-.21-.157-.422-.31-.635-.46l-.38-.268a41.538 41.538 0 0 0-.694-.46c-.11-.072-.219-.145-.33-.216a31.468 31.468 0 0 0-1.032-.625 31.25 31.25 0 0 0-1.394-.752l-.18-.09a25.162 25.162 0 0 0-.77-.365 19.815 19.815 0 0 0-.567-.247c-.07-.03-.143-.059-.214-.088a38.415 38.415 0 0 0-.385-.154l-.217-.083a19.24 19.24 0 0 0-.592-.213 17.94 17.94 0 0 0-.583-.19c-.028-.01-.056-.018-.084-.026-.165-.05-.33-.097-.495-.143l-.123-.032c-.293-.079-.583-.15-.87-.212l-.059-.011a17.076 17.076 0 0 0-.875-.162c-.01 0-.019-.003-.028-.003a15.685 15.685 0 0 0-1.558-.157l-.128-.005a12.67 12.67 0 0 0-.55-.01l-.125-.002a12.49 12.49 0 0 0-1.235.076l-.134.013c-.19.024-.38.051-.566.083-.04.006-.079.015-.119.021a15.151 15.151 0 0 0-.59.123c-.179.042-.357.087-.532.138l-.033.01a14.458 14.458 0 0 0-.628.207c-.139.051-.276.104-.412.16l-.098.038c-.164.07-.327.144-.488.221l-.116.06a8.605 8.605 0 0 0-.38.199c-.064.035-.13.07-.195.107l8.653-5.027.118-.069.078-.04c.125-.07.252-.136.38-.2.04-.018.077-.04.116-.057.16-.079.322-.152.487-.221l.024-.011c.024-.011.05-.018.074-.028a8.157 8.157 0 0 1 .554-.21 8.076 8.076 0 0 1 .513-.165c.002 0 .004 0 .006-.002.175-.05.352-.096.532-.139l.148-.033c.145-.031.293-.062.441-.088.03-.006.057-.014.085-.018l.035-.004c.187-.032.376-.06.566-.082l.133-.014c.16-.018.32-.033.48-.043.03-.004.06-.008.091-.01.015 0 .033 0 .048-.002.205-.01.41-.019.618-.02h.125c.181 0 .364.003.548.01h.087a16.411 16.411 0 0 1 .733.054l.145.015c.24.025.48.056.721.092.003.002.006.002.008.002.008 0 .014.003.021.004.29.044.58.098.874.16.021.005.04.007.06.011.286.063.576.134.868.212l.07.016c.02.006.037.013.056.018.162.042.325.09.49.14.03.01.058.017.088.026.194.06.388.124.582.192.06.019.117.04.176.06a17.404 17.404 0 0 1 .635.237c.128.05.256.1.385.153.041.016.081.03.121.047a22.637 22.637 0 0 1 .657.287c.035.017.07.03.104.048.221.1.444.207.666.317l.182.091c.171.087.343.175.516.266l.196.105c.226.123.454.248.683.38.345.2.69.41 1.031.627.11.07.22.144.332.216.23.15.461.303.69.46.128.088.254.178.381.266a39.39 39.39 0 0 1 1.02.748c.213.165.425.332.637.5.118.095.237.188.355.285.241.199.481.402.721.608.083.072.166.14.25.213.318.28.634.567.948.86.072.067.142.136.214.204.201.192.401.38.6.577.031.03.062.065.094.096.371.368.738.742 1.1 1.127l.002.004c.361.383.715.777 1.065 1.179l.092.1c.133.152.261.31.392.465.137.16.274.32.41.484.166.2.33.407.493.612.13.162.26.323.388.487l.067.084c.25.321.495.646.736.974.023.03.043.06.065.09.214.292.427.587.637.884l.085.126c.07.1.14.204.21.306.182.265.362.532.54.8l.237.363c.06.091.12.181.178.273.13.201.255.407.381.61.047.076.095.149.141.226.201.328.4.659.594.992.025.04.047.082.072.125l.153.268a46.582 46.582 0 0 1 .675 1.215l.114.21a48.773 48.773 0 0 1 .526 1.02c.138.271.273.544.405.817.043.088.083.177.125.265a44.288 44.288 0 0 1 .595 1.301c.034.076.07.151.101.226l.037.083c.158.366.311.732.46 1.1.04.097.078.196.117.295.073.18.146.36.215.543.048.125.093.25.14.375a42.325 42.325 0 0 1 .493 1.378l.077.221.021.06c.13.392.255.785.374 1.178l.092.32c.07.233.14.466.204.7.02.068.036.138.054.207.05.184.097.369.145.553.063.247.127.495.185.742.045.187.087.375.13.562.03.136.063.27.092.405.036.171.07.341.104.511l.03.145c.075.393.144.785.208 1.175l.032.203c.05.316.097.633.138.947l.018.166a33.8 33.8 0 0 1 .234 2.855c.014.395.023.788.022 1.18l-8.653 5.029c.002-.392-.008-.785-.023-1.181a33.76 33.76 0 0 0-.069-1.207"/><path fill="#000" d="M25.075 107.91c-1.934-2.533-3.215-5.762-3.207-8.595.013-4.4 3.13-6.177 6.958-3.966.17.098.34.204.512.317 3.4 2.244 6.141 6.985 6.383 11.04.191 3.197-1.146 5.172-3.226 5.487l2.58 13.53c.307 1.605-.635 2.444-1.914 1.706l-8.838-5.103c-1.277-.737-2.212-2.659-1.898-3.906l2.65-10.51z"/></g></svg>