<svg width="44" height="42" viewBox="0 0 44 42" xmlns="http://www.w3.org/2000/svg" xmlns:xlink="http://www.w3.org/1999/xlink"><title></title><desc>Created using Figma</desc><use xlink:href="#a" fill="url(#b)"/><defs><linearGradient id="b" x2="1" gradientUnits="userSpaceOnUse" gradientTransform="matrix(0 41.8857 -43.2091 0 21.605 0)"><stop offset="0" stop-color="#D0BAD1"/><stop offset="1" stop-color="#A384A5"/></linearGradient><path id="a" fill-rule="evenodd" d="M20.134 28.7l-.369 9.036-.049.54-10.312-.712c-.59-.049-1.138-.307-1.645-.773a4.707 4.707 0 0 1-1.154-1.608 5.315 5.315 0 0 1-.356-1.35c-.058-.46-.025-.991.098-1.597.123-.605.221-1.056.295-1.35.073-.295.25-.819.528-1.572.278-.753.433-1.186.466-1.301 1.277.196 5.443.425 12.498.687zm-9.502-14.388l4.42 9.306-3.61-2.26a34.712 34.712 0 0 0-2.738 3.549c-.794 1.187-1.387 2.21-1.78 3.07a33.514 33.514 0 0 0-.97 2.32c-.253.687-.405 1.203-.454 1.546l-.098.516-4.665-8.766a2.632 2.632 0 0 1-.442-1.375c-.017-.49.032-.875.147-1.154l.196-.442c.573-1.031 1.506-2.57 2.8-4.616L0 13.895l10.632.417zm30.225 12.694l-4.616 8.815a2.586 2.586 0 0 1-.896 1.142c-.401.286-.757.454-1.068.503l-.442.098c-1.163.115-2.955.213-5.378.295l.197 4.027-5.647-9.012 5.18-8.888.172 4.248c2.783.262 5.1.303 6.949.123 1.85-.18 3.241-.45 4.174-.81l1.375-.54zM21.583 4.32c-.77 1.031-2.939 4.591-6.507 10.68l-7.784-4.591-.466-.295 5.525-8.74c.327-.508.818-.876 1.473-1.106a4.522 4.522 0 0 1 1.964-.245c.393.033.79.13 1.19.294a6.69 6.69 0 0 1 1.032.516c.287.18.626.45 1.02.81.392.36.687.643.883.847.196.205.491.528.884.97.393.442.655.729.786.86zm16.082 7.538l5.206 8.913a3.17 3.17 0 0 1 .306 1.866 4.589 4.589 0 0 1-.675 1.817c-.213.327-.483.63-.81.908a7.49 7.49 0 0 1-.933.688c-.295.18-.692.36-1.19.54-.5.18-.885.31-1.155.393-.27.082-.692.196-1.264.343-.573.148-.95.246-1.13.295-.556-1.178-2.725-4.747-6.507-10.705l7.686-4.788.466-.27zm-3.51-5.55L37.64 4.27l-5.402 9.158-10.288-.491 3.708-2.112a35.999 35.999 0 0 0-1.842-4.076c-.671-1.26-1.289-2.27-1.854-3.032a27.729 27.729 0 0 0-1.584-1.964c-.49-.549-.875-.93-1.154-1.142l-.417-.32 9.944.025c.508-.049.982.037 1.424.258.442.221.762.455.958.7l.27.368c.638.999 1.555 2.554 2.75 4.666z"/></defs></svg>