<svg width="436" height="491" viewBox="0 0 436 491" xmlns="http://www.w3.org/2000/svg" xmlns:xlink="http://www.w3.org/1999/xlink"><title>Diagramm</title><desc>Created using Figma</desc><g filter="url(#a)" transform="translate(14 -394)"><use xlink:href="#b" transform="translate(-12 684)" fill="#90CAF9"/><use xlink:href="#c" transform="translate(-12 680)" fill="url(#d)"/><use xlink:href="#e" transform="translate(41 698)" fill="#FFF"/><use xlink:href="#f" transform="translate(8 706)" fill="#FFF"/></g><use xlink:href="#g" transform="translate(100 205)" fill="url(#h)" opacity=".481"/><use xlink:href="#i" transform="translate(101 163)" fill="url(#j)" opacity=".5"/><use xlink:href="#k" transform="translate(93 55)" fill="#FFCDD2"/><use xlink:href="#l" transform="translate(97 205)" fill="#FFCDD2"/><use xlink:href="#m" transform="translate(97 163)" fill="#FFCDD2"/><g opacity=".44" fill="#F48FB1"><use xlink:href="#n" transform="translate(168.857 327.296)"/><use xlink:href="#o" transform="translate(168.857 227.59)"/><use xlink:href="#n" transform="translate(168.857 221.586)"/><use xlink:href="#p" transform="translate(162.747 216.254)"/></g><g opacity=".44" fill="#F48FB1"><use xlink:href="#q" transform="translate(244.697 372.898)"/><use xlink:href="#r" transform="translate(244.697 218.064)"/><use xlink:href="#q" transform="translate(244.697 212.174)"/><use xlink:href="#s" transform="translate(238.772 206.835)"/></g><g opacity=".44" fill="#F48FB1"><use xlink:href="#t" transform="translate(321.697 417.954)"/><use xlink:href="#u" transform="translate(321.697 222.183)"/><use xlink:href="#t" transform="translate(321.697 216.181)"/><use xlink:href="#v" transform="translate(315.772 210.851)"/></g><use xlink:href="#w" transform="translate(393.942 439.98)" fill="#F8BBD0"/><use xlink:href="#x" transform="translate(399.991 441.08)" fill="#F8BBD0"/><use xlink:href="#y" transform="translate(410.468 451.42)" fill="#F8BBD0"/><use xlink:href="#z" transform="translate(390.72 443.248)" fill="#F48FB1"/><use xlink:href="#A" transform="translate(391.9 444.453)" fill="url(#B)"/><use xlink:href="#C" transform="translate(87.79 .998)" fill="#7986CB"/><use xlink:href="#D" transform="translate(79.23 21.253)" fill="#7986CB"/><use xlink:href="#E" transform="translate(74.51 21.99)" fill="#7986CB"/><use xlink:href="#F" transform="translate(102.24 38.69)" fill="#7986CB"/><use xlink:href="#G" transform="translate(95.71 20.16)" fill="#7986CB"/><use xlink:href="#H" transform="translate(83.36 1.75)" fill="#7986CB"/><use xlink:href="#I" transform="translate(80.56 5.508)" fill="url(#J)"/><use xlink:href="#K" transform="translate(72 25.762)" fill="url(#L)"/><use xlink:href="#M" transform="translate(100 373)" fill="#CE93D8"/><use xlink:href="#N" transform="translate(100 369)" fill="url(#O)"/><use xlink:href="#P" transform="translate(131 384)" fill="#FFF"/><use xlink:href="#Q" transform="translate(190 426)" fill="#F57F17"/><use xlink:href="#Q" transform="translate(190 421)" fill="url(#R)"/><use xlink:href="#S" transform="translate(216 436)" fill="#FFF"/><defs><filter id="a" filterUnits="userSpaceOnUse" x="-15" y="680" width="119" height="91" color-interpolation-filters="sRGB"><feFlood flood-opacity="0" result="BackgroundImageFix"/><feColorMatrix in="SourceAlpha" values="0 0 0 0 0 0 0 0 0 0 0 0 0 0 0 0 0 0 255 0"/><feOffset dy="18"/><feGaussianBlur stdDeviation="1"/><feColorMatrix values="0 0 0 0 0 0 0 0 0 0 0 0 0 0 0 0 0 0 0.077389 0"/><feBlend in2="BackgroundImageFix" result="effect1_dropShadow"/><feBlend in="SourceGraphic" in2="effect1_dropShadow" result="shape"/></filter><linearGradient id="d" x2="1" gradientUnits="userSpaceOnUse" gradientTransform="matrix(0 66 -113 0 56.5 0)"><stop offset="0" stop-color="#DFF1FD"/><stop offset="1" stop-color="#BBDEFB"/></linearGradient><linearGradient id="h" x2="1" gradientUnits="userSpaceOnUse" gradientTransform="matrix(0 245 -273 0 136.5 0)"><stop offset="0" stop-color="#FFF2E8"/><stop offset="1" stop-color="#F5E4F1"/></linearGradient><linearGradient id="j" x2="1" gradientUnits="userSpaceOnUse" gradientTransform="matrix(0 282 -280 0 140 0)"><stop offset="0" stop-color="#FFF2E8"/><stop offset="1" stop-color="#F5E4F1"/></linearGradient><linearGradient id="B" x2="1" gradientUnits="userSpaceOnUse" gradientTransform="matrix(0 45.0617 -37.0996 0 18.55 0)"><stop offset="0" stop-color="#FCDFEA"/><stop offset="1" stop-color="#F8BBD0"/></linearGradient><linearGradient id="J" x2="1" gradientUnits="userSpaceOnUse" gradientTransform="matrix(0 23.4747 -18.18 0 9.09 0)"><stop offset="0" stop-color="#CDD3EF"/><stop offset="1" stop-color="#9FA8DA"/></linearGradient><linearGradient id="L" x2="1" gradientUnits="userSpaceOnUse" gradientTransform="matrix(0 29.1478 -35.16 0 17.58 0)"><stop offset="0" stop-color="#CDD3EF"/><stop offset="1" stop-color="#9FA8DA"/></linearGradient><linearGradient id="O" x2="1" gradientUnits="userSpaceOnUse" gradientTransform="matrix(0 59 -101 0 50.5 0)"><stop offset="0" stop-color="#F2E0F5"/><stop offset="1" stop-color="#E1BEE7"/></linearGradient><linearGradient id="R" x2="1" gradientUnits="userSpaceOnUse" gradientTransform="matrix(0 59 -102 0 51 0)"><stop offset="0" stop-color="#FDD34C"/><stop offset="1" stop-color="#F9A825"/></linearGradient><path id="b" d="M54.146 65.48L.874 34.368c-1.293-.753-1.135-2.09.363-2.964L53.774.722a5.608 5.608 0 0 1 5.08-.216l53.272 31.113c1.293.753 1.135 2.09-.363 2.965l-52.5 30.69a5.608 5.608 0 0 1-5.117.207z"/><path id="c" d="M54.1 65.491L.874 34.353c-1.293-.753-1.135-2.089.363-2.963L53.774.722a5.61 5.61 0 0 1 5.08-.217l53.272 31.12c1.293.752 1.135 2.088-.363 2.963L59.226 65.256a5.61 5.61 0 0 1-5.126.235z"/><path id="e" d="M4.392 14.51c5.861 3.32 15.364 3.32 21.216 0 5.851-3.322 5.86-8.698 0-12.02-5.861-3.32-15.364-3.32-21.216 0-5.851 3.322-5.86 8.698 0 12.02z"/><path id="f" d="M42.901 14.107L22.432 2.352c-5.461-3.136-14.31-3.136-19.771 0L0 3.878 40.26 27l2.66-1.526c5.443-3.145 5.443-8.232-.019-11.367z"/><path id="g" d="M6.002 91.58a11.919 11.919 0 0 1-5.87-8.571c-.54-3.6.602-7.247 3.1-9.904 26.616-27.922 99.294-96.653 142.526-64.902 45.148 33.166 88.051-14.9 127.242 2.875V245L6.002 91.58z"/><path id="i" d="M12.926 138.42c-4.864-2.613-15.92-14.051-12.16-18.082C25.638 93.611 108.192 11.443 153.177 44.71 198.162 77.978 240.939-15.523 280 2.275V282L12.926 138.42z"/><path id="k" d="M1 0a1 1 0 1 0-2 0h2zM0 210.17h-1 1zm20.753 35.773l.498-.867-.498.867zm258.749 149.924a1 1 0 0 0 .996-1.734l-.996 1.734zM-1 0v210.17h2V0h-2zm0 210.17c.003 15.118 8.107 29.084 21.255 36.64l.996-1.734C8.721 237.875 1.003 224.569 1 210.17h-2zm21.255 36.64l259.247 149.057.996-1.734L21.251 245.076l-.997 1.734z"/><path id="l" d="M273.584 12.301a1 1 0 1 0 .832-1.819l-.832 1.819zm-126.45-3.805l.596-.803-.596.803zM-.768 80.36a1 1 0 1 0 1.536 1.282L-.768 80.36zm275.184-69.877c-9.956-4.534-20.241-4.888-30.538-3.38-10.289 1.514-20.762 4.857-31.342 7.693-21.154 5.672-42.692 9.303-64.806-7.102L146.539 9.3c22.901 16.99 45.258 13.127 66.515 7.428 10.625-2.85 20.986-6.162 31.114-7.646 10.12-1.49 19.834-1.186 29.416 3.22l.832-1.819zM147.73 7.693c-13.713-10.172-29.957-10.558-46.442-5.565-16.422 4.983-33.3 15.374-48.39 26.947-15.09 11.577-28.52 24.41-38.148 34.32A389.778 389.778 0 0 0 3.382 75.592a273.024 273.024 0 0 0-3.075 3.505 156.778 156.778 0 0 0-1.056 1.24c-.006.007-.01.013-.014.016l-.003.005c-.001 0-.002.001.766.642l.768.64.003-.004.013-.014a18.304 18.304 0 0 1 .25-.296c.177-.21.44-.52.789-.924.697-.81 1.723-1.989 3.052-3.48a389.594 389.594 0 0 1 11.31-12.134c9.601-9.884 22.925-22.617 37.931-34.126 15.007-11.513 31.57-21.728 47.751-26.62 16.117-4.881 31.638-4.41 44.672 5.257l1.191-1.606z"/><path id="m" d="M282.584 3.195a1 1 0 0 0 .832-1.819l-.832 1.82zM156.027 44.903l.596-.803h-.001l-.595.803zM-.754 122.343a1 1 0 0 0 1.508 1.314l-1.508-1.314zM283.416 1.376c-10.206-4.665-20.579-1.978-30.91 3.851-10.301 5.819-20.792 14.883-31.389 23.403-10.621 8.537-21.296 16.476-32.073 20.239-10.695 3.734-21.462 3.35-32.421-4.77l-1.191 1.608c11.567 8.57 23.046 8.97 34.272 5.05 11.143-3.891 22.063-12.045 32.666-20.569 10.625-8.542 20.986-17.507 31.119-23.22 10.104-5.7 19.747-8.045 29.095-3.773l.832-1.819zM156.622 44.1c-13.743-10.182-30.564-10.194-47.864-4.68-17.25 5.506-35.229 16.592-51.425 28.86-16.197 12.273-30.731 25.8-41.189 36.232a449.045 449.045 0 0 0-12.37 12.826A314.464 314.464 0 0 0 .42 121.02c-.383.428-.677.759-.873.982l-.224.254-.057.065c-.006.007-.01.013-.014.016l-.004.005c0 .001-.001.001.753.658s.755.656.755.655l.003-.003.014-.016.055-.062a104.711 104.711 0 0 1 1.082-1.22c.762-.851 1.884-2.09 3.333-3.657a444.786 444.786 0 0 1 12.315-12.769C27.989 95.519 42.423 82.084 58.54 69.875c16.118-12.213 33.801-23.131 50.824-28.55 16.974-5.41 33.041-5.268 46.067 4.382l1.19-1.607z"/><path id="n" d="M.5 2.987V0h-1v2.987h1z"/><path id="o" d="M-.5 0v2.036h1V0h-1zm0 6.11v4.072h1V6.109h-1zm0 8.145v4.072h1v-4.073h-1zm0 8.145v4.073h1V22.4h-1zm0 8.146v4.072h1v-4.073h-1zm0 8.145v4.073h1V38.69h-1zm0 8.145v4.073h1v-4.073h-1zm0 8.146v4.072h1v-4.072h-1zm0 8.145V67.2h1v-4.073h-1zm0 8.146v4.073h1v-4.073h-1zm0 8.145v4.073h1v-4.073h-1zm0 8.146v4.072h1v-4.072h-1z"/><path id="p" d="M6.11 11.231c3.374 0 6.11-2.514 6.11-5.615C12.22 2.514 9.484 0 6.11 0S0 2.514 0 5.616c0 3.101 2.736 5.615 6.11 5.615z"/><path id="q" d="M.5 2.982V0h-1v2.982h1z"/><path id="r" d="M-.5 0v1.96h1V0h-1zm0 5.881v3.92h1v-3.92h-1zm0 7.842v3.92h1v-3.92h-1zm0 7.841v3.92h1v-3.92h-1zm0 7.842v3.92h1v-3.92h-1zm0 7.841v3.92h1v-3.92h-1zm0 7.842v3.92h1v-3.92h-1zm0 7.841v3.92h1v-3.92h-1zm0 7.842v3.92h1v-3.92h-1zm0 7.841v3.92h1v-3.92h-1zm0 7.842v3.92h1v-3.92h-1zm0 7.841v3.92h1v-3.92h-1zm0 7.842v3.92h1v-3.92h-1zm0 7.841v3.921h1v-3.92h-1zm0 7.842v3.92h1v-3.92h-1zm0 7.841v3.921h1v-3.921h-1zm0 7.842v3.92h1v-3.92h-1zm0 7.841v3.921h1v-3.921h-1zm0 7.842v3.92h1v-3.92h-1zm0 7.841v1.961h1v-1.961h-1z"/><path id="s" d="M5.925 11.214c3.272 0 5.925-2.51 5.925-5.607C11.85 2.51 9.197 0 5.925 0S0 2.51 0 5.607c0 3.097 2.653 5.607 5.925 5.607z"/><path id="t" d="M.5 2.986V0h-1v2.986h1z"/><path id="u" d="M-.5 0v2.019h1V0h-1zm0 6.056v4.037h1V6.056h-1zm0 8.074v4.037h1V14.13h-1zm0 8.074v4.037h1v-4.037h-1zm0 8.074v4.037h1v-4.037h-1zm0 8.074v4.037h1v-4.037h-1zm0 8.074v4.037h1v-4.037h-1zm0 8.074v4.037h1V54.5h-1zm0 8.074v4.037h1v-4.037h-1zm0 8.074v4.037h1v-4.037h-1zm0 8.074v4.037h1v-4.037h-1zm0 8.074v4.037h1v-4.037h-1zm0 8.074v4.037h1V94.87h-1zm0 8.074v4.037h1v-4.037h-1zm0 8.074v4.037h1v-4.037h-1zm0 8.074v4.037h1v-4.037h-1zm0 8.074v4.037h1v-4.037h-1zm0 8.074v4.037h1v-4.037h-1zm0 8.074v4.037h1v-4.037h-1zm0 8.074v4.037h1v-4.037h-1zm0 8.074v4.037h1v-4.037h-1zm0 8.074v4.037h1v-4.037h-1zm0 8.074v4.037h1v-4.037h-1zm0 8.074v4.037h1v-4.037h-1z"/><path id="v" d="M5.925 11.227c3.272 0 5.925-2.513 5.925-5.613C11.85 2.514 9.197 0 5.925 0S0 2.513 0 5.614c0 3.1 2.653 5.613 5.925 5.613z"/><path id="w" d="M5.761.61L0 3.893a5.937 5.937 0 0 1 6.065.49l5.76-3.283A5.937 5.937 0 0 0 5.762.61z"/><path id="x" d="M5.761 0L0 3.283c5.428 3.061 10.219 10.98 10.476 11.396l5.762-3.284C15.995 10.98 11.235 3.061 5.76 0z"/><path id="y" d="M16.268 1.53a11.421 11.421 0 0 0-10.507-.475L0 4.34a11.421 11.421 0 0 1 10.507.475c2.638 1.486 5.337 4.309 7.58 9.405 4.337 9.835-.394 17.516-7.777 21.72l5.761-3.283c7.368-4.204 12.129-11.885 7.778-21.72-2.229-5.097-4.897-7.92-7.58-9.405z"/><path id="z" d="M30.254 12.987a11.421 11.421 0 0 0-10.507-.476c-.257-.416-5.048-8.32-10.476-11.395-2.638-1.486-5.352-1.738-7.58.802-6.247 7.013 5.958 30.561 17.996 45.567 12.129-1.367 24.38-11.039 18.193-25.079-2.213-5.11-4.988-7.934-7.626-9.42z"/><path id="A" d="M28.423 12.822a10.255 10.255 0 0 0-5.094-1.367 9.962 9.962 0 0 0-4.23.921l-1.031.52-.591-.98c-.5-.818-5.034-8.142-10.037-10.965A6.366 6.366 0 0 0 4.407 0a3.955 3.955 0 0 0-3.032 1.486c-2.456 2.748-1.592 9.493 2.35 18.527a120.769 120.769 0 0 0 15.283 25.049c6.974-.98 13.281-4.71 16.207-9.657a14.492 14.492 0 0 0 .334-13.669c-1.895-4.353-4.276-7.325-7.126-8.914z"/><path id="C" d="M9.09 22.242c5 2.9 9.09.55 9.09-5.25s-4.07-12.85-9.09-15.75C4.07-1.658 0 .692 0 6.492s4.07 12.85 9.09 15.75z"/><path id="D" d="M26.53 11.507L8.64 1.177C3.87-1.573 0 .657 0 6.177v2.69l35.17 20.29v-2.69c0-5.51-3.87-12.2-8.64-14.96z"/><path id="E" d="M0 4.36L7 0l1.48 2.62-.91 3.58L0 4.36z"/><path id="F" d="M4.92 16.22l7.24-4.5-1.35-5.47L0 0l.74 13.81 4.18 2.41z"/><path id="G" d="M1.11 7.68l6.78-4.15L0 0l1.11 7.68z"/><path id="H" d="M0 4.28L6.86 0v3.86l-.92 1.91L0 4.28z"/><path id="I" d="M9.09 22.232c5 2.9 9.09.55 9.09-5.25s-4.07-12.84-9.09-15.74C4.07-1.658 0 .692 0 6.492s4.07 12.84 9.09 15.74z"/><path id="K" d="M26.53 11.508L8.64 1.178C3.87-1.572 0 .658 0 6.158v2.69l35.16 20.3v-2.68c0-5.51-3.86-12.23-8.63-14.96z"/><path id="M" d="M48.394 58.562L.78 30.729c-1.157-.675-1.009-1.875.326-2.654L48.068.646a5.006 5.006 0 0 1 4.538-.195L100.22 28.27c1.157.675 1.009 1.875-.326 2.655L52.932 58.337a5.007 5.007 0 0 1-4.538.225z"/><path id="N" d="M48.394 58.514L.78 30.72c-1.157-.675-1.009-1.874.326-2.654L48.068.646a5.008 5.008 0 0 1 4.538-.195l47.614 27.81c1.157.675 1.009 1.874-.326 2.654l-46.962 27.48a5.008 5.008 0 0 1-4.538.12z"/><path id="P" d="M43.572 12.202a20.322 20.322 0 0 0-13.8-2.312s2.929-3.932-4.017-7.924C18.81-2.026-8.972-2.402 2.925 25.304c48.257 6.874 47.608-9.11 40.647-13.102z"/><path id="Q" d="M48.889 58.55L.79 30.731c-1.17-.683-1.022-1.87.326-2.657L48.533.644A5.104 5.104 0 0 1 53.11.45l48.099 27.817c1.171.683 1.022 1.87-.326 2.657L53.467 58.356a5.104 5.104 0 0 1-4.578.193z"/><path id="S" d="M36.426 27.646a30.476 30.476 0 0 0 7.092-2.828c9.976-5.672 9.976-14.81 0-20.542-9.976-5.731-26.142-5.672-36.058 0-9.916 5.673-9.977 14.81 0 20.542a29.845 29.845 0 0 0 6.31 2.621L25.308 34l11.118-6.354z"/></defs></svg>