<svg width="143" height="186" viewBox="0 0 143 186" xmlns="http://www.w3.org/2000/svg" xmlns:xlink="http://www.w3.org/1999/xlink"><title>Path 10</title><desc>Created using Figma</desc><use xlink:href="#a" transform="translate(1 1)" fill="#A9BEE1"/><defs><path id="a" d="M-.448.894l1.807.907.897-1.788L.448-.894-.448.894zm5.423 2.72L8.59 5.427l.897-1.788L5.87 1.826l-.896 1.788zm7.23 3.626l3.616 1.814.897-1.788-3.616-1.813-.896 1.787zm7.231 3.627l3.616 1.813.896-1.787-3.615-1.814-.897 1.788zm7.231 3.627l3.615 1.813.897-1.788-3.615-1.813-.897 1.788zm7.23 3.626l3.616 1.813.897-1.787-3.615-1.814-.897 1.788zm7.232 3.627l3.615 1.813.897-1.788-3.616-1.813-.896 1.788zm7.23 3.626l3.616 1.814.896-1.788-3.615-1.813-.897 1.787zM55.59 29l3.615 1.813.897-1.787-3.615-1.814L55.59 29zm7.23 3.627l3.616 1.813.897-1.788-3.615-1.813-.897 1.788zm7.232 3.626l3.615 1.813.897-1.787-3.616-1.814-.896 1.788zm7.23 3.627l3.616 1.813.897-1.788-3.616-1.813-.897 1.788zm7.231 3.626l3.616 1.814.896-1.788-3.615-1.813-.897 1.787zm7.231 3.627l3.615 1.813.897-1.788-3.615-1.813-.897 1.788zm7.23 3.627l3.616 1.813.897-1.788-3.616-1.813-.896 1.788zm7.232 3.626l3.615 1.813.897-1.787-3.616-1.814-.896 1.788zm7.23 3.627l3.616 1.813.896-1.788-3.615-1.813-.897 1.788zm7.231 3.626l3.615 1.814.897-1.788-3.615-1.813-.897 1.787zm7.231 3.627l3.615 1.813.897-1.787-3.616-1.814-.896 1.788zm7.231 3.626l3.615 1.814.897-1.788-3.616-1.813-.896 1.787zM140 70.72v2.004h2V70.72h-2zm0 6.014v4.01h2v-4.01h-2zm0 8.02v4.01h2v-4.01h-2zm0 8.019v4.01h2v-4.01h-2zm0 8.019v4.01h2v-4.01h-2zm0 8.02v4.009h2v-4.009h-2zm0 8.019v4.01h2v-4.01h-2zm0 8.02v4.009h2v-4.009h-2zm0 8.019v4.01h2v-4.01h-2zm0 8.019v4.01h2v-4.01h-2zm0 8.02v4.01h2v-4.01h-2zm0 8.019v4.01h2v-4.01h-2zm0 8.02v4.009h2v-4.009h-2zm0 8.019v4.01h2v-4.01h-2zm0 8.019v4.01h2v-4.01h-2z"/></defs></svg>