<svg width="920" height="297" viewBox="0 0 920 297" xmlns="http://www.w3.org/2000/svg" xmlns:xlink="http://www.w3.org/1999/xlink"><title>Group</title><desc>Created using Figma</desc><use xlink:href="#a" transform="translate(1)" fill="#A9BEE1"/><use xlink:href="#b" transform="translate(349 20)" fill="#A9BEE1"/><defs><path id="a" d="M917 59.05l.5.866 1.497-.865-1.496-.866-.501.865zM508.821 295l-.495.869.499.284.496-.287-.5-.866zM140.339 85.32l.494-.87-.492-.28-.494.279.492.87zM.492 165.488l1.754-.991-.984-1.741-1.754.991.984 1.741zm5.263-2.973l3.508-1.983-.984-1.741-3.508 1.982.984 1.742zm7.017-3.965l3.508-1.983-.984-1.741-3.508 1.982.984 1.742zm7.017-3.965l3.508-1.983-.984-1.741-3.508 1.983.984 1.741zm7.016-3.965l3.509-1.983-.984-1.741-3.508 1.983.983 1.741zm7.017-3.965l3.509-1.983-.984-1.741-3.508 1.983.983 1.741zm7.017-3.965l3.509-1.983-.984-1.741-3.508 1.983.983 1.741zm7.017-3.965l3.509-1.983-.984-1.741-3.509 1.983.984 1.741zm7.017-3.965l3.509-1.983-.984-1.741-3.509 1.983.984 1.741zm7.017-3.965l3.509-1.983-.984-1.741-3.509 1.983.984 1.741zm7.017-3.965l3.509-1.983-.984-1.741-3.509 1.983.984 1.741zm7.017-3.965l3.509-1.982-.984-1.742-3.509 1.983.984 1.741zm7.017-3.965l3.508-1.982-.983-1.742-3.509 1.983.984 1.741zm7.017-3.965l3.508-1.982-.983-1.742-3.509 1.983.984 1.741zm7.017-3.965l3.508-1.982-.984-1.742-3.508 1.983.984 1.741zm7.017-3.965l3.508-1.982-.984-1.742-3.508 1.983.984 1.741zm7.017-3.965l3.508-1.982-.984-1.742-3.508 1.983.984 1.741zm7.017-3.965l3.508-1.982-.984-1.742-3.508 1.983.984 1.741zm7.017-3.965l3.508-1.982-.984-1.742-3.508 1.983.984 1.741zm7.017-3.965l3.508-1.982-.984-1.742-3.508 1.983.984 1.741zm7.017-3.965l1.754-.991-.984-1.741-1.754.991.984 1.741zm.767-.992l1.738.989.99-1.739-1.739-.989-.989 1.739zm5.215 2.967l3.476 1.978.989-1.738-3.476-1.979-.989 1.739zm6.952 3.956l3.476 1.978.99-1.738L153 91.374l-.989 1.738zm6.953 3.956l3.476 1.978.989-1.738-3.476-1.978-.989 1.738zm6.952 3.956l3.476 1.979.99-1.739-3.477-1.978-.989 1.738zm6.953 3.957l3.476 1.978.989-1.738-3.476-1.979-.989 1.739zm6.952 3.956l3.476 1.978.99-1.738-3.477-1.978-.989 1.738zm6.953 3.956l3.476 1.978.989-1.738-3.476-1.978-.989 1.738zm6.952 3.956l3.476 1.978.99-1.738-3.477-1.978-.989 1.738zm6.953 3.957l3.476 1.978.989-1.739-3.476-1.978-.989 1.739zm6.952 3.956l3.476 1.978.99-1.738-3.477-1.978-.989 1.738zm6.953 3.956l3.476 1.978.989-1.738-3.476-1.978-.989 1.738zm6.952 3.956l3.476 1.978.989-1.738-3.476-1.978-.989 1.738zm6.953 3.957l3.476 1.978.989-1.739-3.476-1.978-.989 1.739zm6.952 3.956l3.476 1.978.989-1.738-3.476-1.978-.989 1.738zm6.953 3.956l3.476 1.978.989-1.738-3.476-1.978-.989 1.738zm6.952 3.956l3.476 1.978.989-1.738-3.476-1.978-.989 1.738zm6.953 3.957l3.476 1.978.989-1.739-3.476-1.978-.989 1.739zm6.952 3.956l3.476 1.978.989-1.738-3.476-1.979-.989 1.739zm6.953 3.956l3.476 1.978.989-1.738-3.476-1.978-.989 1.738zm6.952 3.956l3.476 1.978.989-1.738-3.476-1.978-.989 1.738zm6.953 3.956l3.476 1.979.989-1.739-3.476-1.978-.989 1.738zm6.952 3.957l3.476 1.978.989-1.738-3.476-1.979-.989 1.739zm6.952 3.956l3.477 1.978.989-1.738-3.476-1.978-.99 1.738zm6.953 3.956l3.476 1.978.989-1.738-3.476-1.978-.989 1.738zm6.952 3.956l3.477 1.979.989-1.739-3.476-1.978-.99 1.738zm6.953 3.957l3.476 1.978.989-1.739-3.476-1.978-.989 1.739zm6.952 3.956l3.477 1.978.989-1.738-3.476-1.978-.99 1.738zm6.953 3.956l3.476 1.978.989-1.738-3.476-1.978-.989 1.738zm6.952 3.956l3.477 1.978.989-1.738-3.476-1.978-.99 1.738zm6.953 3.957l3.476 1.978.989-1.739-3.476-1.978-.989 1.739zm6.952 3.956l3.477 1.978.989-1.738-3.476-1.978-.99 1.738zm6.953 3.956l3.476 1.978.989-1.738-3.476-1.978-.989 1.738zm6.952 3.956l3.477 1.978.989-1.738-3.476-1.978-.99 1.738zm6.953 3.957l3.476 1.978.989-1.739-3.476-1.978-.989 1.739zm6.952 3.956l3.477 1.978.989-1.738-3.476-1.978-.99 1.738zm6.953 3.956l3.476 1.978.989-1.738-3.476-1.978-.989 1.738zm6.952 3.956l3.477 1.978.989-1.738-3.477-1.978-.989 1.738zm6.953 3.957l3.476 1.978.989-1.739-3.476-1.978-.989 1.739zm6.952 3.956l3.477 1.978.989-1.738-3.477-1.979-.989 1.739zm6.953 3.956l3.476 1.978.989-1.738-3.476-1.978-.989 1.738zm6.952 3.956l3.477 1.978.989-1.738-3.477-1.978-.989 1.738zm6.953 3.956l3.476 1.979.989-1.739-3.476-1.978-.989 1.738zm6.952 3.957l3.477 1.978.989-1.738-3.477-1.979-.989 1.739zm6.953 3.956l3.476 1.978.989-1.738-3.476-1.978-.989 1.738zm6.952 3.956l3.477 1.978.989-1.738-3.477-1.978-.989 1.738zm6.953 3.956l3.476 1.979.989-1.739-3.476-1.978-.989 1.738zm6.952 3.957l3.477 1.978.989-1.738-3.477-1.979-.989 1.739zm6.953 3.956l3.476 1.978.989-1.738-3.476-1.978-.989 1.738zm6.952 3.956l3.476 1.978.99-1.738-3.477-1.978-.989 1.738zm6.953 3.956l3.476 1.978.989-1.738-3.476-1.978-.989 1.738zm6.952 3.957l3.476 1.978.99-1.739-3.477-1.978-.989 1.739zm6.953 3.956l3.476 1.978.989-1.738-3.476-1.978-.989 1.738zm6.952 3.956l1.738.989.989-1.738-1.738-.989-.989 1.738zm2.733.986l1.73-1-1.001-1.732-1.73 1 1.001 1.732zm5.189-3l3.459-1.999-1.001-1.732-3.459 2 1.001 1.731zm6.918-3.999l3.46-1.999-1.001-1.732-3.46 2 1.001 1.731zm6.919-3.999l3.459-2-1.001-1.731-3.459 2 1.001 1.731zm6.918-3.999l3.459-2-1.001-1.731-3.459 1.999 1.001 1.732zm6.918-3.999l3.459-2-1.001-1.731-3.459 1.999 1.001 1.732zm6.919-3.999l3.459-2-1.001-1.731-3.459 1.999 1.001 1.732zm6.918-4l3.459-1.999-1.001-1.732-3.459 2 1.001 1.731zm6.918-3.999l3.459-1.999-1.001-1.732-3.459 2 1.001 1.731zm6.918-3.999l3.46-1.999-1.001-1.732-3.46 2 1.001 1.731zm6.919-3.999l3.459-2-1.001-1.731-3.459 1.999 1.001 1.732zm6.918-3.999l3.459-2-1.001-1.731-3.459 1.999 1.001 1.732zm6.918-3.999l3.459-2-1.001-1.731-3.459 1.999 1.001 1.732zm6.919-3.999l3.459-2-1.001-1.732-3.459 2 1.001 1.732zm6.918-4l3.459-1.999-1.001-1.732-3.459 2 1.001 1.731zm6.918-3.999l3.459-1.999-1.001-1.732-3.459 2 1.001 1.731zm6.918-3.999l3.46-1.999-1.001-1.732-3.459 2 1 1.731zm6.919-3.999l3.459-2-1.001-1.731-3.459 1.999 1.001 1.732zm6.918-3.999l3.459-2-1.001-1.731-3.459 1.999 1.001 1.732zm6.918-3.999l3.459-2-1.001-1.731-3.459 1.999 1.001 1.732zm6.919-4l3.459-1.999-1.001-1.732-3.459 2 1.001 1.731zm6.918-3.999l3.459-1.999-1.001-1.732-3.459 2 1.001 1.731zm6.918-3.999l3.459-1.999-1.001-1.732-3.459 2 1.001 1.731zm6.918-3.999l3.46-2-1.001-1.731-3.459 1.999 1 1.732zm6.919-3.999l3.459-2-1.001-1.731-3.459 1.999 1.001 1.732zm6.918-3.999l3.459-2-1.001-1.731-3.459 1.999 1.001 1.732zm6.918-3.999l3.459-2-1-1.732-3.46 2 1.001 1.732zm6.919-4l3.459-1.999-1.001-1.732-3.459 2 1.001 1.731zm6.918-3.999l3.459-1.999-1.001-1.732-3.459 2 1.001 1.731zm6.918-3.999l3.459-2-1.001-1.731-3.459 2 1.001 1.731zm6.919-3.999l3.459-2-1.001-1.731-3.459 1.999 1.001 1.732zm6.918-3.999l3.459-2-1.001-1.731-3.459 1.999 1.001 1.732zm6.918-3.999l3.459-2-1.001-1.731-3.459 1.999 1.001 1.732zm6.918-4l3.459-1.999-1-1.732-3.46 2 1.001 1.731zm6.919-3.999l3.459-1.999-1.001-1.732-3.459 2 1.001 1.731zm6.918-3.999l3.459-1.999-1.001-1.732-3.459 2 1.001 1.731zm6.918-3.999l3.459-2-1.001-1.731-3.459 1.999 1.001 1.732zm6.918-3.999l3.46-2-1.001-1.731-3.459 1.999 1 1.732zm6.919-3.999l3.459-2-1.001-1.731-3.459 1.999 1.001 1.732zm6.918-3.999l3.459-2-1.001-1.732-3.459 2 1.001 1.732zm6.918-4l3.46-1.999-1.001-1.732-3.46 2 1.001 1.731zm6.919-3.999l3.459-1.999-1.001-1.732-3.459 2 1.001 1.731zm6.918-3.999l3.459-2-1.001-1.731-3.459 2 1.001 1.731zm6.918-3.999l3.459-2-1.001-1.731-3.459 1.999 1.001 1.732zm6.919-3.999l3.459-2-1.001-1.731-3.459 1.999 1.001 1.732zm6.918-3.999l3.459-2-1.001-1.731-3.459 1.999 1.001 1.732zm6.918-4l3.459-1.999-1.001-1.732-3.459 2 1.001 1.731zm6.918-3.999l3.46-1.999-1.001-1.732-3.46 2 1.001 1.731zm6.919-3.999l3.459-1.999-1.001-1.732-3.459 2 1.001 1.731zm6.918-3.999l3.459-2-1.001-1.731-3.459 2 1.001 1.731zm6.918-4l3.459-1.999-1.001-1.731-3.459 2 1.001 1.73zm6.919-3.998l3.459-2-1.001-1.731-3.459 2 1.001 1.73zm6.918-4l3.459-2-1.001-1.73-3.459 1.999 1.001 1.731zm6.918-3.999l3.459-2-1.001-1.73-3.459 1.999 1.001 1.731zm6.918-3.999l3.46-2-1.001-1.73-3.459 1.999 1 1.731zm6.919-3.999l3.459-2-1.001-1.731-3.459 2 1.001 1.731zm6.918-4l3.459-1.999-1.001-1.731-3.459 2 1.001 1.73zm6.918-3.998l3.459-2-1-1.731-3.46 2 1.001 1.73zm6.919-4l3.459-1.999-1.001-1.731-3.459 2 1.001 1.73zm6.918-3.999l1.729-1-1-1.73-1.73.999 1.001 1.731zm1.73-2.73l-1.757-1.019-1.003 1.731 1.758 1.018 1.002-1.73zm-5.272-3.055l-3.515-2.036-1.003 1.73 3.515 2.037 1.003-1.73zm-7.031-4.072l-3.515-2.036-1.002 1.73 3.515 2.036 1.002-1.73zm-7.03-4.072l-3.515-2.037-1.002 1.73 3.515 2.037 1.002-1.73zm-7.03-4.073l-3.515-2.036-1.003 1.73 3.516 2.037 1.002-1.73zm-7.03-4.072l-3.515-2.037-1.003 1.731 3.515 2.036 1.003-1.73zm-7.03-4.073l-3.515-2.036-1.003 1.73 3.515 2.037 1.003-1.73zm-7.031-4.072l-3.515-2.036-1.002 1.73 3.515 2.036 1.002-1.73zm-7.03-4.073l-3.515-2.036-1.002 1.73 3.515 2.037 1.002-1.73zm-7.03-4.072l-3.515-2.036-1.003 1.73 3.516 2.037 1.002-1.731zm-7.03-4.072l-3.515-2.037-1.003 1.731 3.515 2.036 1.003-1.73zm-7.03-4.073l-3.515-2.036-1.003 1.73 3.515 2.037 1.003-1.73zm-7.03-4.072l-3.516-2.036-1.002 1.73 3.515 2.036 1.003-1.73zm-7.031-4.073l-3.515-2.036-1.002 1.73 3.515 2.037 1.002-1.73zm-7.03-4.072L817.321.153l-1.002 1.73 3.515 2.037 1.002-1.731z"/><path id="b" d="M.49 182.871l1.737-.978-.981-1.743-1.737.979.982 1.742zm5.21-2.935l3.474-1.957-.982-1.743-3.473 1.957.982 1.743zm6.947-3.914l3.473-1.957-.982-1.743-3.473 1.957.982 1.743zm6.946-3.914l3.473-1.957-.982-1.743-3.473 1.957.982 1.743zm6.946-3.914l3.473-1.957-.981-1.743-3.473 1.957.981 1.743zm6.947-3.914l3.473-1.957-.982-1.743-3.473 1.957.982 1.743zm6.946-3.914l3.473-1.957-.982-1.743-3.473 1.957.982 1.743zm6.946-3.914l3.473-1.957-.982-1.743-3.473 1.957.982 1.743zm6.946-3.914l3.473-1.957-.981-1.743-3.474 1.957.982 1.743zm6.947-3.914l3.473-1.957-.982-1.743-3.473 1.957.981 1.743zm6.946-3.914l3.473-1.957-.982-1.742-3.473 1.956.982 1.743zm6.946-3.914l3.473-1.957-.982-1.742-3.473 1.957.982 1.742zm6.946-3.914l3.473-1.957-.981-1.742-3.474 1.957.982 1.742zm6.946-3.914l3.473-1.957-.981-1.742-3.473 1.957.981 1.742zm6.947-3.914l3.473-1.957-.982-1.742-3.473 1.957.982 1.742zm6.946-3.914l3.473-1.957-.982-1.742-3.473 1.957.982 1.742zm6.946-3.914l3.473-1.957-.982-1.742-3.473 1.957.982 1.742zm6.946-3.914l3.473-1.957-.981-1.742-3.473 1.957.981 1.742zm6.947-3.914l3.473-1.957-.982-1.742-3.473 1.957.982 1.742zm6.946-3.914l3.473-1.957-.982-1.742-3.473 1.957.982 1.742zm6.946-3.914l3.473-1.957-.982-1.742-3.473 1.957.982 1.742zm6.946-3.914l3.473-1.957-.981-1.742-3.473 1.957.981 1.742zm6.947-3.914l3.473-1.957-.982-1.742L150.59 96l.982 1.742zm6.946-3.914l3.473-1.957-.982-1.742-3.473 1.957.982 1.742zm6.946-3.914l3.473-1.957-.982-1.742-3.473 1.957.982 1.742zM172.41 86l3.473-1.957-.981-1.742-3.474 1.957.982 1.742zm6.946-3.914l3.474-1.957-.982-1.742-3.473 1.957.981 1.742zm6.947-3.914l3.473-1.957-.982-1.742-3.473 1.957.982 1.742zm6.946-3.914l3.473-1.957-.982-1.742-3.473 1.957.982 1.742zm6.946-3.914l3.473-1.957-.981-1.742-3.474 1.957.982 1.742zm6.946-3.914l3.474-1.957-.982-1.742-3.473 1.957.981 1.742zm6.947-3.914l3.473-1.957-.982-1.742-3.473 1.957.982 1.742zm6.946-3.914l3.473-1.957-.982-1.742-3.473 1.957.982 1.742zm6.946-3.914l3.473-1.957-.982-1.742-3.473 1.957.982 1.742zm6.946-3.914l3.473-1.956-.981-1.743-3.473 1.957.981 1.742zm6.947-3.913l3.473-1.957-.982-1.743-3.473 1.957.982 1.742zm6.946-3.914l3.473-1.958-.982-1.742-3.473 1.957.982 1.742zm6.946-3.915l3.473-1.956-.982-1.743-3.473 1.957.982 1.742zm6.946-3.913l3.473-1.958-.981-1.742-3.473 1.957.981 1.742zm6.947-3.914l3.473-1.957-.982-1.743-3.473 1.957.982 1.743zm6.946-3.914l3.473-1.957-.982-1.743-3.473 1.957.982 1.743zm6.946-3.914l3.473-1.957-.982-1.743-3.473 1.957.982 1.743zm6.946-3.914l3.473-1.957-.981-1.743-3.474 1.957.982 1.743zm6.947-3.914l3.473-1.957-.982-1.743-3.473 1.957.982 1.743zm6.946-3.914l3.473-1.957-.982-1.743-3.473 1.957.982 1.743zm6.946-3.914l3.473-1.957-.982-1.743-3.473 1.957.982 1.743zm6.946-3.914l3.473-1.957-.981-1.743-3.474 1.957.982 1.743z"/></defs></svg>