<svg width="35" height="27" viewBox="0 0 35 27" xmlns="http://www.w3.org/2000/svg" xmlns:xlink="http://www.w3.org/1999/xlink"><title></title><desc>Created using Figma</desc><use xlink:href="#a" transform="translate(0 -2)" fill="#E91E63"/><defs><path id="a" d="M34.647 26H2.504V2.429H.361v25.714h34.286V26zM32.504 5.107a.529.529 0 0 0-.535-.536h-7.283c-.469 0-.72.57-.368.921l2.025 2.026-7.767 7.768-3.901-3.901a.536.536 0 0 0-.77 0L4.11 21.179l3.215 3.214 6.964-6.964 3.9 3.9a.536.536 0 0 0 .77 0l10.598-10.597 2.025 2.026c.352.351.921.1.921-.368V5.106z"/></defs></svg>