<svg width="33" height="40" viewBox="0 0 33 40" xmlns="http://www.w3.org/2000/svg" xmlns:xlink="http://www.w3.org/1999/xlink"><title></title><desc>Created using Figma</desc><use xlink:href="#a" fill="url(#b)"/><defs><linearGradient id="b" x2="1" gradientUnits="userSpaceOnUse" gradientTransform="matrix(0 40 -33 0 16.5 0)"><stop offset="0" stop-color="#D0BAD1"/><stop offset="1" stop-color="#A384A5"/></linearGradient><path id="a" fill-rule="evenodd" d="M29 21.887V5H17v30c2.125-1.108 4.027-2.313 5.705-3.615C26.902 28.15 29 24.982 29 21.887zm4-20.22v20c0 1.493-.288 2.973-.864 4.44-.576 1.467-1.289 2.769-2.14 3.906a24.02 24.02 0 0 1-3.042 3.32c-1.177 1.077-2.264 1.97-3.261 2.683a41.002 41.002 0 0 1-3.12 2.018c-1.082.633-1.852 1.063-2.307 1.289-.455.226-.82.4-1.096.52-.206.105-.43.157-.67.157-.24 0-.464-.052-.67-.156-.275-.122-.64-.295-1.096-.521-.456-.226-1.225-.656-2.307-1.29a40.995 40.995 0 0 1-3.12-2.017c-.997-.712-2.084-1.606-3.261-2.683a24.015 24.015 0 0 1-3.042-3.32c-.851-1.137-1.565-2.44-2.14-3.906C.288 24.64 0 23.16 0 21.667v-20C0 1.215.163.825.49.495.816.165 1.203 0 1.65 0h29.7c.447 0 .834.165 1.16.495.327.33.49.72.49 1.172z"/></defs></svg>