<svg width="41" height="35" viewBox="0 0 41 35" xmlns="http://www.w3.org/2000/svg" xmlns:xlink="http://www.w3.org/1999/xlink"><title></title><desc>Created using Figma</desc><use xlink:href="#a" fill="url(#b)"/><defs><linearGradient id="b" x2="1" gradientUnits="userSpaceOnUse" gradientTransform="matrix(0 34.5714 -40.8326 0 20.416 0)"><stop offset="0" stop-color="#D0BAD1"/><stop offset="1" stop-color="#A384A5"/></linearGradient><path id="a" fill-rule="evenodd" d="M34.571 19.692V27.5c0 1.948-.691 3.613-2.074 4.997-1.384 1.383-3.05 2.074-4.997 2.074H7.071c-1.947 0-3.613-.691-4.996-2.074C.692 31.113 0 29.447 0 27.5V7.071c0-1.947.692-3.613 2.075-4.996C3.458.692 5.123 0 7.07 0H27.5a6.76 6.76 0 0 1 2.873.614.744.744 0 0 1 .442.565.765.765 0 0 1-.221.712L29.39 3.094a.776.776 0 0 1-.565.245.78.78 0 0 1-.221-.049 4.367 4.367 0 0 0-1.105-.147H7.071c-1.08 0-2.005.385-2.774 1.154-.77.77-1.154 1.694-1.154 2.774V27.5c0 1.08.385 2.005 1.154 2.775.77.769 1.694 1.154 2.774 1.154H27.5c1.08 0 2.005-.385 2.775-1.154.769-.77 1.154-1.695 1.154-2.775v-6.237c0-.212.073-.393.22-.54l1.572-1.571a.776.776 0 0 1 .565-.246c.098 0 .196.025.294.074.328.13.491.368.491.712zm5.672-12.007L20.257 27.672c-.393.393-.86.59-1.4.59-.54 0-1.006-.197-1.4-.59L6.9 17.114a1.912 1.912 0 0 1-.59-1.4c0-.54.197-1.006.59-1.4l2.7-2.7c.393-.393.86-.59 1.4-.59.54 0 1.007.197 1.4.59l6.457 6.457L34.743 2.186c.393-.393.86-.589 1.4-.589.54 0 1.007.196 1.4.59l2.7 2.7c.393.393.59.86.59 1.4 0 .54-.197 1.006-.59 1.4z"/></defs></svg>