<svg width="41" height="39" viewBox="0 0 41 39" xmlns="http://www.w3.org/2000/svg" xmlns:xlink="http://www.w3.org/1999/xlink"><title></title><desc>Created using Figma</desc><use xlink:href="#a" fill="url(#b)"/><defs><linearGradient id="b" x2="1" gradientUnits="userSpaceOnUse" gradientTransform="matrix(0 38.5982 -40.8571 0 20.429 0)"><stop offset="0" stop-color="#D0BAD1"/><stop offset="1" stop-color="#A384A5"/></linearGradient><path id="a" fill-rule="evenodd" d="M40.857 26.96c0 1.326-.364 2.43-1.093 3.315-.728.884-1.739 1.325-3.032 1.325a4.347 4.347 0 0 1-1.903-.43c-.597-.286-1.08-.597-1.448-.932a6.395 6.395 0 0 0-1.388-.933 3.76 3.76 0 0 0-1.743-.43c-1.8 0-2.7 1.015-2.7 3.045 0 .638.13 1.58.392 2.823.262 1.244.385 2.186.368 2.824v.123c-.36 0-.63.008-.81.024a59.51 59.51 0 0 0-2.394.283 75.93 75.93 0 0 1-2.836.331 25.19 25.19 0 0 1-2.406.123c-.999 0-1.842-.217-2.53-.65-.687-.435-1.03-1.118-1.03-2.051 0-.606.143-1.187.43-1.743a6.392 6.392 0 0 1 .932-1.388c.336-.368.647-.85.933-1.448.287-.598.43-1.232.43-1.903 0-1.293-.442-2.304-1.326-3.033-.884-.728-1.989-1.092-3.315-1.092-1.375 0-2.545.372-3.51 1.117-.967.745-1.45 1.788-1.45 3.13 0 .704.123 1.384.369 2.039.245.654.52 1.182.822 1.583.303.401.577.835.823 1.302.245.466.368.88.368 1.24 0 .736-.376 1.465-1.13 2.185-.605.573-1.562.86-2.872.86-1.555 0-3.56-.197-6.016-.59a6.77 6.77 0 0 0-.675-.098 6.74 6.74 0 0 1-.675-.099l-.32-.049a.188.188 0 0 1-.073-.024c-.033 0-.049-.008-.049-.025V12.571c.033.017.176.045.43.086.253.041.532.082.835.123.302.041.478.07.527.086 2.456.393 4.461.59 6.016.59 1.31 0 2.267-.287 2.873-.86.753-.72 1.13-1.449 1.13-2.185 0-.36-.123-.774-.369-1.24-.246-.467-.52-.9-.823-1.302-.302-.4-.577-.929-.822-1.583a5.757 5.757 0 0 1-.368-2.038c0-1.343.482-2.386 1.448-3.13C11.843.371 13.022 0 14.413 0c1.31 0 2.406.364 3.29 1.093.884.728 1.326 1.739 1.326 3.032 0 .671-.143 1.305-.43 1.903-.286.597-.597 1.08-.933 1.449-.335.368-.646.83-.933 1.387a3.76 3.76 0 0 0-.43 1.743c0 .933.344 1.617 1.032 2.05.687.434 1.53.651 2.529.651 1.047 0 2.52-.123 4.42-.368 1.898-.246 3.232-.385 4.002-.418v.05c-.017.032-.045.175-.086.43-.041.253-.082.531-.123.834a4.86 4.86 0 0 1-.086.528c-.393 2.455-.59 4.46-.59 6.015 0 1.31.287 2.268.86 2.873.72.753 1.449 1.13 2.185 1.13.36 0 .774-.123 1.24-.369.467-.245.9-.52 1.302-.822.4-.303.929-.577 1.583-.823A5.758 5.758 0 0 1 36.61 22c1.343 0 2.386.483 3.131 1.449.745.965 1.117 2.136 1.117 3.51z"/></defs></svg>