<svg width="30" height="30" viewBox="0 0 30 30" xmlns="http://www.w3.org/2000/svg" xmlns:xlink="http://www.w3.org/1999/xlink"><title></title><desc>Created using Figma</desc><use xlink:href="#a" fill="url(#b)"/><defs><linearGradient id="b" x2="1" gradientUnits="userSpaceOnUse" gradientTransform="rotate(90 7.292 7.292) scale(29.1696)"><stop offset="0" stop-color="#D0BAD1"/><stop offset="1" stop-color="#A384A5"/></linearGradient><path id="a" fill-rule="evenodd" d="M29.17 23.473c0 .655-.23 1.212-.688 1.67l-3.34 3.34a2.273 2.273 0 0 1-1.669.687c-.655 0-1.211-.23-1.67-.688l-7.218-7.219-7.219 7.22a2.273 2.273 0 0 1-1.67.687 2.28 2.28 0 0 1-1.67-.688l-3.338-3.34A2.273 2.273 0 0 1 0 23.474c0-.655.23-1.211.688-1.67l7.218-7.218-7.218-7.22A2.273 2.273 0 0 1 0 5.696c0-.654.23-1.21.688-1.67L4.027.689A2.273 2.273 0 0 1 5.697 0c.654 0 1.21.23 1.67.688l7.218 7.218L21.804.688A2.273 2.273 0 0 1 23.474 0c.654 0 1.21.23 1.669.688l3.34 3.339c.457.458.687 1.015.687 1.67 0 .654-.23 1.21-.688 1.67l-7.219 7.218 7.22 7.219c.457.458.687 1.014.687 1.67z"/></defs></svg>