<svg width="38" height="41" viewBox="0 0 38 41" xmlns="http://www.w3.org/2000/svg" xmlns:xlink="http://www.w3.org/1999/xlink"><title></title><desc>Created using Figma</desc><use xlink:href="#a" fill="url(#b)"/><defs><linearGradient id="b" x2="1" gradientUnits="userSpaceOnUse" gradientTransform="matrix(0 40.8571 -37.7143 0 18.857 0)"><stop offset="0" stop-color="#D0BAD1"/><stop offset="1" stop-color="#A384A5"/></linearGradient><path id="a" fill-rule="evenodd" d="M6.286 33a1.51 1.51 0 0 0-.467-1.105 1.51 1.51 0 0 0-1.105-.466 1.51 1.51 0 0 0-1.105.466A1.51 1.51 0 0 0 3.143 33c0 .426.155.794.466 1.105.311.31.68.466 1.105.466a1.51 1.51 0 0 0 1.105-.466A1.51 1.51 0 0 0 6.286 33zM34.57 18.857c0-.835-.319-1.567-.957-2.197-.639-.63-1.367-.946-2.185-.946h-8.643c0-.95.392-2.255 1.178-3.916.786-1.662 1.179-2.975 1.179-3.94 0-1.605-.262-2.792-.786-3.561-.524-.77-1.571-1.154-3.143-1.154-.425.425-.736 1.121-.933 2.087a45.016 45.016 0 0 1-.749 3.081c-.303 1.089-.79 1.985-1.46 2.689-.36.377-.991 1.121-1.891 2.234-.066.082-.254.328-.565.737a47.508 47.508 0 0 1-1.62 2.05c-.36.434-.688.794-.983 1.08-.294.287-.61.578-.945.872a4.152 4.152 0 0 1-.982.663c-.32.148-.61.221-.872.221h-.786v15.714h.786c.213 0 .47.025.774.074.302.05.572.102.81.16.237.057.548.147.933.27a38.475 38.475 0 0 1 1.73.59c.394.138.631.224.713.257 3.454 1.195 6.253 1.792 8.397 1.792h2.971c3.143 0 4.715-1.367 4.715-4.1 0-.426-.041-.884-.123-1.375.49-.262.88-.692 1.166-1.29.287-.597.43-1.198.43-1.804 0-.606-.147-1.17-.442-1.694.867-.819 1.301-1.793 1.301-2.922 0-.41-.082-.863-.245-1.363-.164-.499-.369-.888-.614-1.166.524-.016.962-.401 1.313-1.154.352-.753.528-1.416.528-1.989zm3.143-.024c0 1.456-.4 2.79-1.203 4.002.147.54.221 1.105.221 1.694a7.05 7.05 0 0 1-.933 3.536c.05.343.074.695.074 1.055 0 1.654-.491 3.11-1.473 4.371.016 2.275-.68 4.072-2.087 5.39-1.408 1.317-3.266 1.976-5.574 1.976H23.57c-1.571 0-3.122-.184-4.652-.552-1.531-.369-3.303-.905-5.316-1.609-1.9-.654-3.029-.982-3.389-.982h-7.07a3.028 3.028 0 0 1-2.222-.92A3.028 3.028 0 0 1 0 34.57V18.857c0-.867.307-1.608.92-2.222a3.028 3.028 0 0 1 2.223-.92H9.87c.589-.394 1.71-1.662 3.363-3.806a47.222 47.222 0 0 1 2.628-3.143c.393-.41.683-1.11.871-2.1.189-.99.438-2.025.75-3.106.31-1.08.818-1.964 1.521-2.652C19.643.303 20.38 0 21.215 0c1.375 0 2.611.266 3.708.798s1.931 1.363 2.504 2.492c.573 1.13.86 2.652.86 4.567 0 1.522-.393 3.094-1.179 4.714h4.322c1.702 0 3.175.622 4.42 1.867 1.243 1.244 1.865 2.709 1.865 4.395z"/></defs></svg>