<svg width="44" height="38" viewBox="0 0 44 38" xmlns="http://www.w3.org/2000/svg" xmlns:xlink="http://www.w3.org/1999/xlink"><title></title><desc>Created using Figma</desc><use xlink:href="#a" fill="url(#b)"/><defs><linearGradient id="b" x2="1" gradientUnits="userSpaceOnUse" gradientTransform="matrix(0 37.7143 -44 0 22 0)"><stop offset="0" stop-color="#D0BAD1"/><stop offset="1" stop-color="#A384A5"/></linearGradient><path id="a" fill-rule="evenodd" d="M22 37.714a1.47 1.47 0 0 1-1.08-.442L5.598 22.492a8.12 8.12 0 0 1-.675-.64c-.286-.294-.74-.83-1.363-1.608a21.722 21.722 0 0 1-1.67-2.394c-.49-.818-.928-1.808-1.313-2.97C.192 13.716 0 12.588 0 11.49c0-3.6 1.04-6.416 3.118-8.445C5.198 1.015 8.07 0 11.737 0a9.79 9.79 0 0 1 3.106.528c1.055.352 2.038.827 2.946 1.424a31.42 31.42 0 0 1 2.345 1.682c.655.524 1.277 1.08 1.866 1.67.59-.59 1.211-1.146 1.866-1.67a31.42 31.42 0 0 1 2.345-1.682A12.572 12.572 0 0 1 29.157.528 9.787 9.787 0 0 1 32.263 0c3.667 0 6.54 1.015 8.619 3.045C42.96 5.075 44 7.89 44 11.49c0 3.618-1.874 7.3-5.623 11.05L23.08 37.271a1.47 1.47 0 0 1-1.08.442z"/></defs></svg>