<svg width="38" height="44" viewBox="0 0 38 44" xmlns="http://www.w3.org/2000/svg" xmlns:xlink="http://www.w3.org/1999/xlink"><title></title><desc>Created using Figma</desc><use xlink:href="#a" fill="url(#b)"/><defs><linearGradient id="b" x2="1" gradientUnits="userSpaceOnUse" gradientTransform="matrix(0 44 -37.7143 0 18.857 0)"><stop offset="0" stop-color="#D0BAD1"/><stop offset="1" stop-color="#A384A5"/></linearGradient><path id="a" fill-rule="evenodd" d="M16.058 26.469c-.016.049-.119.045-.307-.013a10.345 10.345 0 0 1-.773-.282l-.491-.22a14.708 14.708 0 0 1-2.137-1.204 52.88 52.88 0 0 1-1.006-.773c-.557-.434-.868-.667-.933-.7-1.097 1.686-2.194 3.167-3.29 4.444-1.326 1.555-2.186 2.455-2.579 2.7-.065.034-.225.066-.478.1-.254.032-.406.032-.455 0 .099-.066.77-.82 2.014-2.26.344-.393 1.043-1.334 2.1-2.823 1.055-1.49 1.697-2.456 1.927-2.898a55.89 55.89 0 0 0 1.252-2.418c.556-1.122.851-1.756.884-1.903-.131-.017-1.031.253-2.701.81-.131.033-.356.094-.675.184-.32.09-.602.168-.848.233a4.232 4.232 0 0 0-.417.123c-.033.033-.049.119-.049.258 0 .14-.008.217-.025.233-.081.164-.335.287-.76.369a1.98 1.98 0 0 1-1.155 0 1.036 1.036 0 0 1-.687-.516c-.066-.098-.107-.287-.123-.565a4.73 4.73 0 0 1 .602-.122 7.65 7.65 0 0 0 .724-.148c.95-.262 1.809-.524 2.578-.785 1.637-.573 2.472-.86 2.505-.86.163-.033.515-.192 1.055-.479.54-.286.9-.462 1.08-.528a9.84 9.84 0 0 0 .528-.196 5.25 5.25 0 0 1 .357-.135.328.328 0 0 1 .147.012c.033.197.024.467-.025.81 0 .033-.102.254-.307.663-.204.41-.421.848-.65 1.314-.23.466-.369.74-.418.823-.409.818-1.04 1.89-1.89 3.216l1.571.688c.197.098.806.36 1.83.785 1.022.426 1.575.655 1.657.688.065.016.151.225.258.626.106.401.143.65.11.749zm-5.034-11.933a.996.996 0 0 1-.098.687c-.196.377-.605.688-1.227.933a3.94 3.94 0 0 1-1.474.295c-.425-.05-.826-.262-1.203-.639-.229-.245-.376-.58-.442-1.006l.025-.074c.049.05.209.09.479.123s.487.033.65 0c.164-.033.639-.164 1.424-.393.59-.196 1.04-.311 1.35-.344.28 0 .451.14.517.418zm17.139 3.167l1.547 5.574-3.413-1.032 1.866-4.542zM.958 37.346l17.04-5.696V6.31L.958 12.031v25.315zm30.47-7.783l2.505.76-4.444-16.131-2.455-.761-5.304 13.16 2.504.762 1.105-2.701 5.181 1.596.909 3.314zM19.079 5.942l14.07 4.518V1.13l-14.07 4.812zm7.636 32.484l3.88.32-1.326 3.928-.982-1.62c-2.128 1.358-4.387 2.242-6.777 2.651-.95.197-1.694.295-2.235.295h-2.062c-1.293 0-2.926-.32-4.898-.958-1.973-.638-3.475-1.334-4.506-2.087a.512.512 0 0 1-.196-.392c0-.131.04-.242.122-.332a.411.411 0 0 1 .32-.135c.065 0 .212.061.441.184.23.123.48.258.75.405.27.148.437.238.503.27 1.195.606 2.5 1.11 3.916 1.51 1.416.401 2.705.602 3.867.602 1.555 0 2.922-.119 4.1-.356 1.18-.237 2.464-.65 3.856-1.24.245-.115.495-.241.748-.38a67.018 67.018 0 0 0 1.535-.872l-1.056-1.793zm11-26.493v26.493l-19.004-6.04c-.23.098-3.299 1.142-9.208 3.13C3.593 37.507.582 38.5.467 38.5c-.213 0-.36-.106-.442-.32A.189.189 0 0 0 0 38.108v-26.47c.05-.147.082-.229.098-.245.082-.098.246-.188.491-.27 1.752-.59 2.971-.999 3.659-1.228V.467l13.7 4.861c.033 0 1.347-.45 3.942-1.35 2.594-.9 5.18-1.789 7.758-2.664C32.227.438 33.548 0 33.614 0c.327 0 .49.172.49.516v10.263l3.61 1.154z"/></defs></svg>