<svg width="1406" height="915" viewBox="0 0 1406 915" xmlns="http://www.w3.org/2000/svg" xmlns:xlink="http://www.w3.org/1999/xlink"><title>Rectangle 13</title><desc>Created using Figma</desc><g transform="translate(-47 -2743)"><mask id="b"><use xlink:href="#a" transform="translate(47.55 2743.61)" fill="#FFF"/></mask><g mask="url(#b)"><use xlink:href="#a" transform="translate(47.55 2743.61)" fill="#F5EAF2"/></g><g opacity=".3" mask="url(#b)"><use xlink:href="#c" transform="rotate(48 -2778.846 2589.89)" fill="#FFF"/></g></g><defs><path id="a" fill-rule="evenodd" d="M1574.19 238.204c-32.63-53.099-207.01-217.255-394.12-234.776-187.117-17.52-289.255 31.579-407.453 159.72C654.42 291.289 136.388 202.071 36.311 500.224c-100.078 298.152 3.435 89.178 351.411 247.844C735.698 906.733 633.557 1030.6 1153.79 1009.76c520.24-20.849 77.66-394.577 379.19-460.704 301.54-66.126 73.83-257.753 41.21-310.852z"/><path id="c" fill-rule="evenodd" d="M100.625 243.75c201.25-325 603.75-325 805 0 201.255 325 0 1300 0 1300h-805S28.459 1149.7 13.011 985.995C-19.785 638.454 9.42 391.039 100.625 243.75z"/></defs></svg>