<svg xmlns="http://www.w3.org/2000/svg" viewBox="0 0 215.41 373.9"><defs><style>.cls-1{isolation:isolate}.cls-2{fill:#f8bbd0}.cls-3{fill:#f48fb1}</style></defs><title>heartAsset 1</title><g id="Layer_2" data-name="Layer 2"><g id="Layer_1-2" data-name="Layer 1"><g class="cls-1"><path class="cls-2" d="M34.32 194.59l-20.21 11.75c6.67-3.88 14-2.42 21.24 1.73l20.21-11.74c-7.19-4.16-14.56-5.61-21.24-1.74zm21.24 1.74l-20.21 11.74c19 11 35.82 39.26 36.71 40.75l20.21-11.74c-.89-1.5-17.71-29.79-36.71-40.75z"/><path class="cls-2" d="M129.1 238.78a39.29 39.29 0 0 0-36.83-1.71l-20.21 11.75a39.29 39.29 0 0 1 36.83 1.71c9.22 5.32 18.72 15.42 26.6 33.65 15.18 35.16-1.41 62.67-27.24 77.68l20.21-11.74c25.83-15 42.41-42.51 27.24-77.68-7.88-18.24-17.38-28.33-26.6-33.66z"/><path class="cls-3" d="M108.89 250.53a39.29 39.29 0 0 0-36.83-1.71c-.89-1.49-17.71-29.78-36.71-40.75-9.22-5.32-18.75-6.22-26.7 2.89C-13.25 236 29.56 320.25 71.7 373.9c42.32-4.88 85.46-39.48 63.78-89.71-7.87-18.25-17.37-28.34-26.59-33.66z"/><path class="cls-2" d="M106.74 254.25a35.36 35.36 0 0 0-17.86-4.91 34.31 34.31 0 0 0-14.88 3.3l-3.6 1.87-2.04-3.51c-1.76-2.95-17.65-29.11-35.16-39.22-3.93-2.27-7.53-3.42-10.72-3.42-3.95 0-7.41 1.77-10.59 5.41-8.59 9.83-5.59 34 8.22 66.23 12.24 28.58 32.14 61.8 53.47 89.3 24.45-3.48 46.56-16.86 56.78-34.53 8.34-14.43 8.75-31.34 1.17-48.9-6.6-15.29-14.95-25.93-24.79-31.62z"/></g><g class="cls-1"><path class="cls-2" d="M100.22 158.61l-5.09 3c1.68-1 3.54-.61 5.35.44l5.09-3c-1.81-1.05-3.67-1.42-5.35-.44z"/><path class="cls-2" d="M105.57 159l-5.09 3c4.78 2.76 9 9.88 9.24 10.26l5.09-3c-.22-.34-4.46-7.46-9.24-10.26zm18.51 10.73a9.89 9.89 0 0 0-9.27-.43l-5.09 3a9.89 9.89 0 0 1 9.27.43c2.32 1.34 4.71 3.88 6.69 8.47 3.82 8.85-.35 15.77-6.86 19.55l5.09-3c6.5-3.78 10.68-10.7 6.86-19.55-1.98-4.59-4.37-7.13-6.69-8.47z"/><path class="cls-3" d="M119 172.69a9.89 9.89 0 0 0-9.27-.43c-.22-.37-4.46-7.5-9.24-10.26-2.32-1.34-4.72-1.56-6.72.73-5.51 6.31 5.26 27.51 15.87 41 10.65-1.23 21.51-9.94 16.05-22.58-1.99-4.58-4.38-7.15-6.69-8.46z"/><path class="cls-2" d="M118.45 173.62a8.9 8.9 0 0 0-4.5-1.24 8.64 8.64 0 0 0-3.73.83l-.91.47-.52-.88c-.44-.74-4.44-7.33-8.85-9.87a5.54 5.54 0 0 0-2.7-.86 3.46 3.46 0 0 0-2.66 1.36c-2.16 2.48-1.41 8.55 2.07 16.67a109.15 109.15 0 0 0 13.46 22.48c6.16-.88 11.72-4.25 14.29-8.69 2.1-3.63 2.2-7.89.29-12.31-1.69-3.85-3.76-6.53-6.24-7.96z"/></g><g class="cls-1"><path class="cls-2" d="M12.1 66.93l-7.74 4.5c2.55-1.48 5.38-.93 8.14.66l7.74-4.5c-2.76-1.59-5.58-2.15-8.14-.66z"/><path class="cls-2" d="M20.24 67.59l-7.74 4.5c7.28 4.2 13.72 15 14.06 15.61l7.74-4.5c-.3-.57-6.78-11.41-14.06-15.61z"/><path class="cls-2" d="M48.41 83.85a15.05 15.05 0 0 0-14.11-.65l-7.74 4.5a15.05 15.05 0 0 1 14.11.66c3.53 2 7.17 5.91 10.19 12.89 5.81 13.47-.54 24-10.43 29.76l7.74-4.5c9.89-5.75 16.25-16.29 10.43-29.76-3.02-6.99-6.66-10.86-10.19-12.9z"/><path class="cls-3" d="M40.67 88.35a15.05 15.05 0 0 0-14.11-.66c-.34-.57-6.78-11.41-14.06-15.61C9 70 5.31 69.71 2.27 73.19c-8.39 9.6 8 41.87 24.15 62.42 16.21-1.87 32.74-15.12 24.43-34.37-3.01-6.98-6.65-10.85-10.18-12.89z"/><path class="cls-2" d="M39.84 89.78A13.55 13.55 0 0 0 33 87.9a13.14 13.14 0 0 0-5.68 1.26l-1.38.72-.8-1.34c-.67-1.13-6.76-11.15-13.47-15a8.42 8.42 0 0 0-4.11-1.31 5.27 5.27 0 0 0-4.05 2.07C.22 78 1.37 87.29 6.66 99.65a166.11 166.11 0 0 0 20.48 34.21c9.37-1.33 17.84-6.46 21.75-13.23 3.2-5.53 3.35-12 .45-18.73-2.53-5.9-5.73-9.9-9.5-12.12z"/></g><g class="cls-1"><path class="cls-2" d="M118.31 83.16l-3.31 1.9a3.32 3.32 0 0 1 3.44.28l3.27-1.9a3.32 3.32 0 0 0-3.4-.28zm3.44.28l-3.27 1.9c3.08 1.78 5.8 6.36 5.94 6.6L127.7 90c-.15-.21-2.87-4.79-5.95-6.56z"/><path class="cls-2" d="M133.66 90.31a6.36 6.36 0 0 0-6-.28l-3.27 1.9a6.36 6.36 0 0 1 6 .28 11 11 0 0 1 4.31 5.45c2.46 5.69-.23 10.15-4.41 12.58l3.27-1.9c4.18-2.43 6.87-6.88 4.41-12.58a11 11 0 0 0-4.31-5.45z"/><path class="cls-3" d="M130.39 92.21a6.36 6.36 0 0 0-6-.28c-.14-.24-2.87-4.82-5.94-6.6-1.49-.86-3-1-4.32.47-3.55 4.06 3.39 17.7 10.21 26.38 6.85-.79 13.84-6.39 10.33-14.53a11 11 0 0 0-4.28-5.44z"/><path class="cls-2" d="M130 92.82a5.73 5.73 0 0 0-2.89-.79 5.56 5.56 0 0 0-2.4.53l-.58.3-.34-.56c-.28-.48-2.86-4.71-5.69-6.35a3.56 3.56 0 0 0-1.74-.55 2.23 2.23 0 0 0-1.71.88c-1.39 1.59-.91 5.5 1.33 10.72a70.21 70.21 0 0 0 8.66 14.46c4-.56 7.54-2.73 9.19-5.59a8.55 8.55 0 0 0 .19-7.92 10.43 10.43 0 0 0-4.02-5.13z"/></g><g class="cls-1"><path class="cls-2" d="M167.81 133.9l-5 2.9c1.65-1 3.47-.6 5.25.43l5-2.9c-1.78-1.03-3.6-1.39-5.25-.43z"/><path class="cls-2" d="M173.06 134.33l-5 2.9c4.7 2.71 8.86 9.71 9.08 10.08l5-2.9c-.22-.41-4.38-7.41-9.08-10.08z"/><path class="cls-2" d="M191.25 144.83a9.72 9.72 0 0 0-9.11-.42l-5 2.9a9.72 9.72 0 0 1 9.11.42c2.28 1.32 4.63 3.81 6.58 8.32 3.75 8.7-.35 15.5-6.74 19.21l5-2.9c6.39-3.71 10.49-10.52 6.74-19.21-1.95-4.51-4.3-7-6.58-8.32z"/><path class="cls-3" d="M186.25 147.73a9.72 9.72 0 0 0-9.11-.42c-.22-.37-4.38-7.37-9.08-10.08-2.28-1.32-4.64-1.54-6.6.71-5.42 6.2 5.17 27 15.59 40.3 10.47-1.21 21.14-9.76 15.77-22.19-1.94-4.5-4.29-7.05-6.57-8.32z"/><path class="cls-2" d="M185.72 148.65a8.75 8.75 0 0 0-4.42-1.21 8.49 8.49 0 0 0-3.67.81l-.89.46-.51-.86c-.43-.73-4.37-7.2-8.7-9.7a5.44 5.44 0 0 0-2.65-.84 3.4 3.4 0 0 0-2.62 1.34c-2.12 2.43-1.38 8.4 2 16.38a107.25 107.25 0 0 0 13.23 22.09c6-.86 11.52-4.17 14-8.54 2.06-3.57 2.16-7.75.29-12.09-1.56-3.8-3.62-6.43-6.06-7.84z"/></g><g class="cls-1"><path class="cls-2" d="M83 12.08l-3.73 2.17a3.78 3.78 0 0 1 3.92.32l3.73-2.17a3.78 3.78 0 0 0-3.92-.32z"/><path class="cls-2" d="M86.87 12.4l-3.73 2.17c3.5 2 6.6 7.24 6.77 7.51l3.73-2.17c-.17-.27-3.27-5.48-6.77-7.51zm13.56 7.83a7.24 7.24 0 0 0-6.79-.32l-3.73 2.17a7.24 7.24 0 0 1 6.79.32c1.7 1 3.45 2.84 4.9 6.2 2.8 6.48-.26 11.55-5 14.32l3.73-2.17c4.76-2.77 7.82-7.84 5-14.32-1.45-3.36-3.2-5.22-4.9-6.2z"/><path class="cls-3" d="M96.7 22.4a7.24 7.24 0 0 0-6.79-.32c-.16-.27-3.27-5.49-6.77-7.51-1.7-1-3.46-1.15-4.92.53-4 4.62 3.85 20.15 11.62 30 7.8-.9 15.75-7.28 11.76-16.54-1.45-3.32-3.2-5.18-4.9-6.16z"/><path class="cls-2" d="M96.3 23.08a6.52 6.52 0 0 0-3.29-.9 6.33 6.33 0 0 0-2.73.61l-.66.34-.38-.64c-.32-.54-3.25-5.37-6.48-7.23a4.05 4.05 0 0 0-2-.63 2.53 2.53 0 0 0-2 1c-1.58 1.81-1 6.26 1.52 12.21a79.94 79.94 0 0 0 9.91 16.46c4.51-.64 8.58-3.11 10.47-6.37a9.73 9.73 0 0 0 .22-9c-1.22-2.84-2.76-4.8-4.58-5.85z"/></g><g class="cls-1"><path class="cls-2" d="M174.49.73L168 4.51c2.15-1.25 4.52-.78 6.83.56l6.5-3.78c-2.33-1.34-4.7-1.81-6.84-.56z"/><path class="cls-2" d="M181.32 1.28l-6.5 3.78c6.11 3.53 11.53 12.63 11.81 13.11l6.5-3.78c-.28-.47-5.69-9.58-11.81-13.11zM205 14.95a12.64 12.64 0 0 0-11.85-.55l-6.5 3.78a12.64 12.64 0 0 1 11.85.55c3 1.71 6 5 8.56 10.83 4.88 11.32-.45 20.17-8.76 25l6.5-3.78c8.31-4.83 13.65-13.68 8.76-25C211 19.91 208 16.66 205 14.95z"/><path class="cls-3" d="M198.48 18.73a12.64 12.64 0 0 0-11.85-.55c-.28-.48-5.7-9.58-11.81-13.11-3-1.71-6-2-8.59.93-7 8.07 6.73 35.17 20.29 52.43C200.14 56.86 214 45.72 207 29.56c-2.49-5.87-5.55-9.12-8.52-10.83z"/><path class="cls-2" d="M197.79 19.93a11.38 11.38 0 0 0-5.79-1.58 11 11 0 0 0-4.77 1.06l-1.16.6-.67-1.12c-.56-.95-5.68-9.37-11.32-12.62a7.08 7.08 0 0 0-3.45-1.1 4.42 4.42 0 0 0-3.41 1.74c-2.76 3.16-1.8 10.93 2.65 21.31A139.54 139.54 0 0 0 187.12 57c7.87-1.12 15-5.43 18.27-11.11 2.69-4.64 2.82-10.08.38-15.74-2.13-4.97-4.77-8.4-7.98-10.22z"/></g></g></g></svg>