<svg xmlns="http://www.w3.org/2000/svg" xmlns:xlink="http://www.w3.org/1999/xlink" width="152" height="76" viewBox="0 0 152 76"><defs><path id="a" d="M.156.009h44.548v34.009H.156z"/><linearGradient id="b" x1="50%" x2="50%" y1="0%" y2="100%"><stop offset="0%" stop-color="#FF99C3"/><stop offset="100%" stop-color="#FF6090"/></linearGradient><linearGradient id="d" x1="50%" x2="50%" y1="0%" y2="100%"><stop offset="0%" stop-color="#D8006C"/><stop offset="100%" stop-color="#B0003A"/></linearGradient><linearGradient id="e" x1="50%" x2="50%" y1="0%" y2="100%"><stop offset="0%" stop-color="#F6409C"/><stop offset="100%" stop-color="#E91E63"/></linearGradient></defs><g fill="none" fill-rule="evenodd"><g transform="translate(42.09 .208)"><mask id="c" fill="#fff"><use xlink:href="#a"/></mask><path fill="url(#b)" d="M44.682 29.132c-.107 1.651-.102 3.285-.297 4.886a24.426 24.426 0 0 0-2.551-2.721 24.732 24.732 0 0 0-16.78-6.534 24.82 24.82 0 0 0-6.211.784c-1.37.354-2.69.818-3.958 1.392-.553.245-1.097.514-1.629.803a21.85 21.85 0 0 0-1.33.777 10.22 10.22 0 0 0-.742-.818 9.887 9.887 0 0 0-5.673 2.401 24.573 24.573 0 0 0 .55-5.085c.003-.05.003-.1.003-.15 0-6.086-2.185-11.66-5.815-15.982a4.55 4.55 0 0 0-.093-.234l.067-.08C4.777 3.324 11.49.009 18.98.009c2.43 0 4.778.35 6.997 1 8.156 2.394 14.29 8.947 16.897 17.053 1.485 4.62 1.941 9.047 1.81 11.07" mask="url(#c)"/></g><path fill="#FFF" d="M61.043 53.587a25.157 25.157 0 0 0-.65-3.664 24.691 24.691 0 0 0-.923-2.846l-.002-.008a23.338 23.338 0 0 0-.7-1.62 24.821 24.821 0 0 0-1.222-2.26 24.674 24.674 0 0 0-2.519-3.428 9.91 9.91 0 0 0 1.21-4.764c0-2.376-.83-4.558-2.221-6.269.434-.276.879-.534 1.33-.777a22.67 22.67 0 0 1 1.63-.804 24.412 24.412 0 0 1 3.957-1.392 24.818 24.818 0 0 1 6.211-.784c6.47 0 12.36 2.478 16.78 6.534a24.426 24.426 0 0 1 2.551 2.72c-.92 7.525-4.198 14.325-8.71 19.947 0 0-9.656 10.617-19.212 13.075a24.746 24.746 0 0 0 2.618-11.12c0-.858-.043-1.707-.128-2.54"/><path fill="url(#d)" d="M20.662.785l.042-.03c.077-.004.178-.013.294-.023l.21-.033-.017.017c.74-.066 1.898-.177 2.334-.177 7.459 0 13.944 2.97 18.495 8.181.059.068.117.135.172.202a24.759 24.759 0 0 1 5.962 16.153c0 .05 0 .1-.002.15a24.598 24.598 0 0 1-.551 5.085 9.937 9.937 0 0 0-3.366 6.446s-3.037-1.075-6.437-.262c-.9.214-1.817.605-2.61 1.006h-.002c-1.295.656-2.256 1.34-2.256 1.34A24.173 24.173 0 0 0 30 37.005a24.622 24.622 0 0 0-6.242-2.316 24.847 24.847 0 0 0-5.43-.597c-2.036 0-4.012.245-5.904.71a24.654 24.654 0 0 0 2.345 8.987 24.786 24.786 0 0 0 3.73 5.676 24.835 24.835 0 0 0 4.523 4.054A14.83 14.83 0 0 0 21.4 60.3c0 2.217.483 4.318 1.349 6.21l-.091-.06c.012.053.014.09 0 .101C6.609 55.581 1.507 42.307.343 32.247.118 30.9 0 26.702 0 25.293 0 12.988 8.932 2.77 20.662.785"/><path fill="#FFF" d="M32.329 68.142a14.917 14.917 0 0 1 1.81-1.171 14.87 14.87 0 0 1 8.24-1.789c.748.054 1.479.163 2.193.326a14.744 14.744 0 0 1 4.775 2.002c2.208 1.665 3.416 3.04 3.944 3.718.111.151.225.3.33.455.233-.056.577-.147.896-.233l.25-.064.301-.085a14.9 14.9 0 0 1-.91-5.14 14.859 14.859 0 0 1 1.182-5.826c.03-.073.065-.144.097-.215.048-.11.095-.22.146-.327.044-.093.092-.185.138-.278.041-.083.082-.168.125-.25.055-.106.114-.21.172-.315.036-.067.072-.134.11-.2.066-.116.135-.229.204-.342l.097-.16c.076-.122.156-.241.235-.361.029-.042.055-.085.084-.127.087-.127.176-.251.267-.376.023-.032.046-.065.07-.096.097-.132.197-.26.298-.388l.055-.071c.108-.134.217-.265.33-.395l.04-.049c.118-.134.238-.267.36-.397l.028-.03c.126-.135.254-.268.386-.397l.016-.017c.135-.133.272-.263.411-.39l.008-.008c.142-.13.287-.257.434-.381l.27-.233c.337-.29.703-.544 1.079-.783.082-.053.161-.11.243-.162.085.833.128 1.682.128 2.54 0 3.29-.638 6.43-1.798 9.303a7.194 7.194 0 0 0-.483 3.627 14.55 14.55 0 0 1 .123 1.882 14.87 14.87 0 0 1-.46 3.693c-.474.165-.95.315-1.437.45a24.6 24.6 0 0 1-5.827.892 24.715 24.715 0 0 1-9.856-1.67c-.901-.35-3.278-1.626-4.18-2.109l-.01-.001a39.385 39.385 0 0 1-7.149-1.974 14.696 14.696 0 0 1 2.235-2.078"/><path fill="url(#e)" d="M37.798 36.494c3.416-.744 6.438.262 6.438.262A9.933 9.933 0 0 1 47.6 30.31a9.887 9.887 0 0 1 5.673-2.402c.263.261.51.532.742.819a9.904 9.904 0 0 1 2.222 6.269c0 1.726-.439 3.35-1.211 4.764a24.85 24.85 0 0 1 2.519 3.428 24.444 24.444 0 0 1 1.924 3.887c.361.924.672 1.874.922 2.847.304 1.19.523 2.413.651 3.664-.067.042-.131.088-.197.132a14.991 14.991 0 0 0-2.248 1.825l-.016.017c-.132.13-.26.262-.386.396l-.029.03c-.121.131-.241.264-.358.398l-.042.05c-.112.13-.222.26-.329.394l-.055.07c-.101.128-.201.257-.299.389l-.07.096c-.09.125-.18.25-.266.376-.029.042-.055.085-.084.127-.08.12-.159.24-.235.361l-.097.16c-.069.113-.138.226-.204.342-.038.066-.074.133-.11.2-.058.105-.117.209-.172.315-.043.082-.084.167-.125.25-.046.093-.094.185-.138.278-.05.108-.098.218-.146.327-.032.071-.066.142-.097.215a14.859 14.859 0 0 0-1.18 5.826 14.9 14.9 0 0 0 .908 5.14l-.301.085-.25.064a39 39 0 0 1-.896.233s-.103-.164-.33-.455c-.528-.677-1.736-2.053-3.944-3.718-1.369-1.033-3.05-1.616-4.775-2.002a14.594 14.594 0 0 0-3.28-.365 14.87 14.87 0 0 0-7.154 1.828 14.917 14.917 0 0 0-4.044 3.248h-.002a39.53 39.53 0 0 1-7.344-3.71 14.88 14.88 0 0 1-1.339-6.767 14.83 14.83 0 0 1 1.614-6.223 24.819 24.819 0 0 1-4.523-4.054 24.79 24.79 0 0 1-6.075-14.663 24.716 24.716 0 0 1 5.904-.71c1.865 0 3.684.206 5.43.597A24.62 24.62 0 0 1 30 37.004a24.228 24.228 0 0 1 2.929 1.835s2.121-1.75 4.868-2.346"/><path fill="#000" d="M44.834 67.785c-.597.433-1.272.73-1.97.955-.7.218-1.432.354-2.18.37-.745.022-1.512-.083-2.222-.364a4.1 4.1 0 0 1-.988-.562 3.251 3.251 0 0 1-.74-.833c.324.18.632.342.953.464.322.12.646.21.973.277a8.989 8.989 0 0 0 2.004.15 20.1 20.1 0 0 0 2.054-.167c.693-.086 1.39-.193 2.116-.29m10.95 5.483c.675-.338.897-3.025-.08-3.025-.976 0-3.293 1.384-3.324 1.709-.068.719 2.292 1.872 3.404 1.316m4.364-12.739c.12.46-.002.963-.246 1.385a2.652 2.652 0 0 1-1.064.992c-.428.238-.904.326-1.364.365a5.223 5.223 0 0 1-.69-.037 4 4 0 0 1-.666-.186c.216-.103.425-.175.631-.24.204-.077.402-.146.599-.208.38-.153.756-.277 1.087-.463a4.36 4.36 0 0 0 .93-.64c.283-.261.545-.568.783-.968"/><text fill="#E91E63" font-family="Roboto-Bold, Roboto" font-size="18" font-weight="bold"><tspan x="99" y="24">G</tspan> <tspan x="111.261" y="24" font-family="Roboto-Light, Roboto" font-weight="300">et</tspan> <tspan x="99" y="45">F</tspan> <tspan x="108.861" y="45" font-family="Roboto-Light, Roboto" font-weight="300">oxy</tspan> <tspan x="99" y="66">P</tspan> <tspan x="110.61" y="66" font-family="Roboto-Light, Roboto" font-weight="300">romo</tspan></text></g></svg>