<svg width="188" height="48" viewBox="0 0 188 48" version="1.1" xmlns="http://www.w3.org/2000/svg" xmlns:xlink="http://www.w3.org/1999/xlink">
<title>Logo</title>
<desc>Created using Figma</desc>
<g id="Canvas" transform="translate(-1588 2730)">
<g id="Logo">
<g id="Page 1">
<g id="Page 1">
<g id="Group 3">
<mask id="mask0_outline" mask-type="alpha">
<g id="Clip 2">
<use xlink:href="#path0_fill" transform="translate(1614.71 -2729.86)" fill="#FFFFFF"/>
</g>
</mask>
<g id="Fill 1" mask="url(#mask0_outline)">
<use xlink:href="#path1_fill" transform="translate(1614.71 -2729.86)" fill="url(#paint1_linear)"/>
</g>
</g>
<g id="Fill 4">
<use xlink:href="#path2_fill" transform="translate(1622.15 -2714.23)" fill="#FFFFFF"/>
</g>
<g id="Fill 6">
<use xlink:href="#path3_fill" transform="translate(1588 -2729.66)" fill="url(#paint3_linear)"/>
</g>
<g id="Fill 8">
<use xlink:href="#path4_fill" transform="translate(1607.03 -2696.16)" fill="#FFFFFF"/>
</g>
<g id="Fill 10">
<use xlink:href="#path5_fill" transform="translate(1595.85 -2712.37)" fill="url(#paint5_linear)"/>
</g>
<g id="Fill 12">
<use xlink:href="#path6_fill" transform="translate(1611.22 -2687.46)"/>
</g>
<g id="Fill 14">
<use xlink:href="#path7_fill" transform="translate(1621.11 -2685.64)"/>
</g>
<g id="Fill 16">
<use xlink:href="#path8_fill" transform="translate(1623.48 -2691.77)"/>
</g>
</g>
</g>
<g id="GetFoxyPromo">
<use xlink:href="#path9_fill" transform="translate(1658 -2719)" fill="#E91E63"/>
</g>
</g>
</g>
<defs>
<linearGradient id="paint1_linear" x1="0" y1="0" x2="1" y2="0" gradientUnits="userSpaceOnUse" gradientTransform="matrix(0 21.4793 -28.1623 0 14.0812 0)">
<stop offset="0" stop-color="#FF99C3"/>
<stop offset="1" stop-color="#FF6090"/>
</linearGradient>
<linearGradient id="paint3_linear" x1="0" y1="0" x2="1" y2="0" gradientUnits="userSpaceOnUse" gradientTransform="matrix(0 41.6914 -30.4419 0 15.2209 0)">
<stop offset="0" stop-color="#D8006C"/>
<stop offset="1" stop-color="#B0003A"/>
</linearGradient>
<linearGradient id="paint5_linear" x1="0" y1="0" x2="1" y2="0" gradientUnits="userSpaceOnUse" gradientTransform="matrix(0 27.6466 -30.7355 0 15.3678 0)">
<stop offset="0" stop-color="#F6409C"/>
<stop offset="1" stop-color="#E91E63"/>
</linearGradient>
<path id="path0_fill" fill-rule="evenodd" d="M 0 0L 28.1623 0L 28.1623 21.4793L 3.89824e-15 21.4793L 0 0Z"/>
<path id="path1_fill" fill-rule="evenodd" d="M 28.1486 18.3936C 28.0806 19.4364 28.0842 20.4686 27.9607 21.4793C 27.6315 21.0706 27.2819 20.6784 26.9128 20.3054C 26.7304 20.1189 26.5411 19.9365 26.3477 19.7609C 23.5539 17.1991 19.8302 15.6343 15.74 15.6343C 14.3837 15.6343 13.0683 15.8057 11.8132 16.1294C 10.9477 16.3529 10.1125 16.6464 9.31146 17.0085C 8.96171 17.1634 8.61758 17.3335 8.28141 17.5159C 7.99612 17.6695 7.71509 17.8327 7.44077 18.0069C 7.29388 17.8258 7.13766 17.6544 6.9717 17.4898C 5.6041 17.605 4.36283 18.1563 3.3849 19.0066C 3.55923 18.2016 3.66895 17.3719 3.71271 16.5257C 3.72642 16.2843 3.73328 16.0402 3.73328 15.7947C 3.73465 15.7632 3.73465 15.7317 3.73465 15.7001C 3.73465 11.856 2.35362 8.33554 0.0588404 5.6064C 0.04101 5.55703 0.0204364 5.50766 0 5.45829C 0.0135786 5.44183 0.0274314 5.424 0.0423816 5.40754C 2.92131 2.09417 7.16509 0 11.8996 0C 13.4358 0 14.92 0.2208 16.3229 0.632229C 21.4787 2.14354 25.3572 6.28265 27.0047 11.4021C 27.9437 14.3196 28.2322 17.1161 28.1486 18.3936Z"/>
<path id="path2_fill" fill-rule="evenodd" d="M 4.44252 18.0727C 4.36159 17.2827 4.22307 16.5106 4.03105 15.7591C 3.87277 15.1444 3.67636 14.5444 3.44785 13.9611C 3.44731 13.9588 3.44662 13.9562 3.44662 13.9562C 3.38874 13.8082 3.32949 13.6611 3.26708 13.5156C 3.18342 13.3193 3.09563 13.1246 3.00374 12.9327C 2.92597 12.7692 2.8456 12.6073 2.76248 12.4471C 2.59625 12.1267 2.41918 11.8127 2.23168 11.5056C 1.99742 11.1217 1.74697 10.7488 1.48116 10.3876C 1.21549 10.0265 0.934451 9.67721 0.639289 9.3408C 1.12743 8.448 1.40463 7.42217 1.40463 6.33189C 1.40463 4.83154 0.879314 3.45326 0 2.37257C 0.274314 2.1984 0.555486 2.0352 0.840773 1.8816C 1.17681 1.6992 1.52107 1.52914 1.87082 1.37417C 2.67182 1.01211 3.50711 0.718629 4.37257 0.495086C 5.62769 0.171429 6.94289 0 8.29937 0C 12.3894 0 16.1132 1.5648 18.9071 4.12663C 19.1005 4.30217 19.2898 4.48457 19.4722 4.67109C 19.8413 5.04412 20.1909 5.43634 20.5201 5.84503C 19.9385 10.5968 17.8664 14.8919 15.0136 18.4424C 15.0136 18.4424 8.90972 25.1479 2.86809 26.7003C 3.92818 24.587 4.52344 22.2021 4.52344 19.6773C 4.52344 19.1355 4.49615 18.5993 4.44252 18.0727Z"/>
<path id="path3_fill" fill-rule="evenodd" d="M 13.0622 0.155931C 13.0712 0.149623 13.0797 0.143451 13.0888 0.137143C 13.137 0.133851 13.2012 0.12864 13.2747 0.122331C 13.3189 0.115474 13.3627 0.107931 13.4071 0.101486C 13.4034 0.104777 13.4 0.108343 13.3965 0.111771C 13.8638 0.0702171 14.5967 0 14.8718 0C 19.5873 0 23.6869 1.87598 26.5644 5.16741C 26.6015 5.21006 26.6385 5.25257 26.6728 5.29509C 26.7059 5.33061 26.7359 5.3664 26.7661 5.40343C 29.0608 8.13257 30.4419 11.653 30.4419 15.4971C 30.4419 15.5287 30.4419 15.5602 30.4405 15.5918C 30.4405 15.8373 30.4336 16.0814 30.4199 16.3227C 30.376 17.1689 30.2664 17.9986 30.0921 18.8037C 29.5421 19.2809 29.0758 19.8528 28.7192 20.4946C 28.3187 21.2119 28.0553 22.0169 27.9648 22.8741C 27.9648 22.8741 26.0449 22.1951 23.895 22.7084C 23.3266 22.844 22.7463 23.0905 22.2448 23.3439L 22.244 23.3443C 22.2439 23.3445 22.2437 23.3445 22.2436 23.3445C 21.4253 23.7582 20.8176 24.1905 20.8176 24.1905C 20.7298 24.1262 20.6406 24.0631 20.5515 24.0014C 20.044 23.6474 19.5146 23.3224 18.9659 23.0316C 17.7384 22.3762 16.4148 21.8798 15.0199 21.5685C 13.916 21.3216 12.7664 21.1913 11.5869 21.1913C 10.3004 21.1913 9.05086 21.3463 7.85485 21.6398C 7.96869 23.3457 8.35561 24.9765 8.97281 26.489C 9.08515 26.7688 9.20735 27.0446 9.33752 27.316C 9.95747 28.6202 10.7543 29.8257 11.6952 30.901C 12.5389 31.8664 13.499 32.7276 14.555 33.4615C 13.9487 34.6476 13.5853 35.9807 13.5345 37.3919C 13.5304 37.5086 13.5278 37.625 13.5278 37.7431C 13.5278 39.1433 13.8335 40.4707 14.3808 41.6652C 14.3614 41.6529 14.3425 41.6397 14.323 41.6271C 14.331 41.6611 14.3322 41.6844 14.3232 41.6914C 4.17822 34.7638 0.95283 26.38 0.216708 20.0262C 0.0743391 19.1761 0 16.5242 0 15.6343C 0 7.86309 5.64648 1.4101 13.0622 0.155931Z"/>
<path id="path4_fill" fill-rule="evenodd" d="M 1.41272 9.19269C 1.77481 8.91978 2.15611 8.67292 2.55661 8.45335C 3.1531 8.12572 3.78965 7.86103 4.4561 7.66903C 5.28878 7.42766 6.16933 7.29861 7.07868 7.29861C 7.3091 7.29861 7.53815 7.30697 7.7657 7.32343C 8.23903 7.35772 8.70125 7.42629 9.15249 7.52915C 10.2429 7.77312 11.2606 8.20663 12.1712 8.7936C 13.5672 9.84508 14.3311 10.7142 14.6648 11.142C 14.7349 11.2374 14.8068 11.3316 14.8733 11.4295C 15.0208 11.3937 15.238 11.3365 15.4398 11.2825C 15.4922 11.2685 15.5452 11.2559 15.5975 11.2415C 15.6606 11.2238 15.7251 11.2059 15.7882 11.1881C 15.5756 10.6107 15.4192 10.0059 15.3232 9.38195C 15.2505 8.91292 15.2135 8.43155 15.2135 7.94195C 15.2135 6.76937 15.4274 5.64741 15.8197 4.61212C 15.8641 4.49417 15.911 4.3776 15.96 4.26213C 15.9795 4.21632 16.0007 4.17148 16.021 4.12608C 16.0515 4.05724 16.0814 3.98798 16.1136 3.92009C 16.1416 3.86085 16.1715 3.80284 16.2007 3.74428C 16.2271 3.69161 16.2524 3.6384 16.2797 3.58629C 16.3147 3.51936 16.3517 3.45353 16.3883 3.38757C 16.4115 3.34533 16.4342 3.30268 16.458 3.26085C 16.4999 3.18816 16.5435 3.11671 16.5871 3.0454C 16.6077 3.0118 16.6274 2.97751 16.6483 2.94405C 16.6967 2.86711 16.7469 2.79154 16.7972 2.71598C 16.815 2.68951 16.8321 2.66263 16.85 2.63616C 16.9049 2.55593 16.9615 2.47708 17.0187 2.39863C 17.0337 2.37833 17.0479 2.35762 17.0629 2.33746C 17.1243 2.25449 17.1876 2.17317 17.2516 2.09253C 17.2633 2.07772 17.2747 2.06263 17.2865 2.04782C 17.3543 1.96348 17.4237 1.88064 17.4945 1.79863C 17.5033 1.78848 17.5118 1.77792 17.5207 1.76764C 17.5946 1.68261 17.6704 1.59895 17.7474 1.51653C 17.7533 1.51008 17.7592 1.50363 17.7653 1.49719C 17.8451 1.4123 17.9263 1.32878 18.0093 1.2469C 18.0128 1.24334 18.0163 1.23977 18.0198 1.23621C 18.1049 1.15241 18.1914 1.07026 18.2796 0.98976C 18.2813 0.988252 18.2829 0.986606 18.2847 0.98496C 18.3744 0.903086 18.4657 0.822858 18.5587 0.744275L 18.7293 0.597395C 18.9426 0.41376 19.174 0.253577 19.4114 0.102446C 19.4633 0.0692572 19.5135 0.0331886 19.5655 0C 19.6189 0.526629 19.6462 1.06286 19.6462 1.60457C 19.6462 3.68229 19.2431 5.66537 18.5095 7.48032C 18.2162 8.20608 18.102 8.99466 18.2042 9.77075C 18.23 9.967 18.2496 10.1613 18.2611 10.3461C 18.2747 10.549 18.2817 10.7534 18.2817 10.9591C 18.2817 11.4583 18.2433 11.9479 18.1678 12.425C 18.1226 12.7186 18.0622 13.0079 17.9909 13.2919C 17.6918 13.396 17.3901 13.4907 17.0829 13.5758C 16.7414 13.6718 16.3958 13.7554 16.0459 13.8267C 15.1874 14.0037 14.3026 14.1105 13.3989 14.1393C 13.2206 14.1477 13.0408 14.1503 12.8612 14.1503C 10.8532 14.1503 8.93304 13.7731 7.16783 13.0848C 6.59835 12.864 5.09593 12.0575 4.52605 11.7529C 4.52385 11.7525 4.52152 11.7522 4.51919 11.7518C 2.95848 11.476 1.44701 11.0551 0 10.505C 0.422307 10.021 0.897007 9.5808 1.41272 9.19269Z"/>
<path id="path5_fill" fill-rule="evenodd" d="M 16.0401 5.42153C 18.2001 4.95223 20.11 5.5872 20.11 5.5872C 20.2005 4.73006 20.4638 3.92503 20.8643 3.20777C 21.2208 2.56594 21.6873 1.99406 22.2373 1.5168C 23.2152 0.666515 24.4563 0.1152 25.8239 0C 25.9899 0.164571 26.1463 0.336 26.293 0.517029C 27.1722 1.59771 27.6975 2.976 27.6975 4.47634C 27.6975 5.56663 27.4204 6.59246 26.9322 7.48526C 27.2273 7.82167 27.5084 8.17097 27.7742 8.53207C 28.0398 8.89317 28.2903 9.2662 28.5246 9.65006C 28.7122 9.95712 28.8893 10.271 29.0555 10.5915C 29.1386 10.7517 29.219 10.9137 29.2966 11.077C 29.3885 11.269 29.4764 11.4638 29.56 11.6599C 29.6229 11.807 29.6823 11.956 29.7409 12.1055C 29.9694 12.6889 30.1656 13.2889 30.3241 13.9035C 30.5161 14.6551 30.6546 15.4272 30.7355 16.2171C 30.6933 16.244 30.6524 16.2728 30.6107 16.3005C 30.3038 16.5039 30.0094 16.7244 29.7291 16.9613C 29.7291 16.9614 29.7289 16.9616 29.7288 16.9616C 29.6358 17.04 29.5445 17.1202 29.4548 17.2021C 29.453 17.2038 29.4513 17.2054 29.4497 17.207C 29.3615 17.2874 29.2749 17.3696 29.1899 17.4534C 29.1863 17.4569 29.1829 17.4605 29.1794 17.4641C 29.0964 17.5459 29.0152 17.6294 28.9353 17.7143C 28.9293 17.7208 28.9234 17.7272 28.9175 17.7337C 28.8404 17.8161 28.7647 17.8998 28.6908 17.9848C 28.6819 17.9951 28.6734 18.0056 28.6646 18.0158C 28.5938 18.0978 28.5243 18.1806 28.4565 18.265C 28.4447 18.2798 28.4334 18.2949 28.4217 18.3097C 28.3576 18.3903 28.2944 18.4716 28.2328 18.5546C 28.218 18.5748 28.2038 18.5955 28.1888 18.6158C 28.1316 18.6942 28.075 18.7731 28.0201 18.8533C 28.0021 18.8798 27.9851 18.9067 27.9673 18.9331C 27.917 19.0087 27.8668 19.0843 27.8183 19.1613C 27.7975 19.1947 27.7777 19.2289 27.7572 19.2625C 27.7136 19.3339 27.6699 19.4053 27.6281 19.478C 27.6042 19.5198 27.5816 19.5625 27.5584 19.6047C 27.5218 19.6707 27.4848 19.7365 27.4498 19.8034C 27.4225 19.8555 27.3971 19.9088 27.3708 19.9616C 27.3416 20.02 27.3117 20.078 27.2837 20.1372C 27.2515 20.2051 27.2216 20.2744 27.1911 20.3432C 27.1708 20.3886 27.1496 20.4335 27.1301 20.4793C 27.0811 20.5947 27.0342 20.7113 26.9898 20.8293C 26.5975 21.8646 26.3835 22.9865 26.3835 24.1591C 26.3835 24.6487 26.4206 25.1301 26.4933 25.5991C 26.5893 26.2231 26.7456 26.8279 26.9582 27.4053C 26.8951 27.4231 26.8307 27.4409 26.7676 27.4586C 26.7153 27.473 26.6622 27.4856 26.6098 27.4996C 26.4215 27.5501 26.2332 27.6006 26.0434 27.6466C 26.0434 27.6466 25.978 27.5428 25.8349 27.3592C 25.5011 26.9313 24.7372 26.0622 23.3413 25.0107C 22.4759 24.3588 21.413 23.9903 20.3226 23.7463C 19.8713 23.6434 19.409 23.5749 18.9358 23.5406C 18.7082 23.5241 18.4792 23.5158 18.2488 23.5158C 17.3394 23.5158 16.4589 23.6448 15.6262 23.8862C 14.9597 24.0782 14.3232 24.3429 13.7267 24.6705C 13.3262 24.8901 12.9449 25.1369 12.5828 25.4098C 12.0671 25.7979 11.5924 26.2382 11.1701 26.7222L 11.1686 26.7222C 10.9904 26.6536 10.8121 26.5838 10.6338 26.511C 9.19364 25.9255 7.81796 25.2096 6.52594 24.3785C 5.97868 23.184 5.67282 21.8565 5.67282 20.4562C 5.67282 20.3383 5.67556 20.2217 5.67968 20.105C 5.73042 18.6938 6.09375 17.3609 6.69999 16.1746C 5.64401 15.4409 4.68392 14.5795 3.8404 13.6142C 2.89936 12.5388 2.10262 11.3334 1.48253 10.0293C 1.35237 9.75772 1.23016 9.48192 1.11783 9.20215C 0.500623 7.6896 0.11384 6.05884 0 4.35292C 1.19587 4.05943 2.44551 3.90446 3.73204 3.90446C 4.91146 3.90446 6.06097 4.03474 7.16509 4.2816C 8.55997 4.59292 9.8834 5.08937 11.111 5.74478C 11.6597 6.03566 12.1892 6.36069 12.6966 6.71452C 12.7856 6.77623 12.8749 6.83932 12.9627 6.90377C 12.9627 6.90377 14.3038 5.79868 16.0401 5.42153Z"/>
<path id="path6_fill" fill-rule="evenodd" d="M 5.12048 0.274284C 4.74302 0.54747 4.31619 0.735217 3.87537 0.877159C 3.43304 1.01485 2.96972 1.10111 2.49708 1.11167C 2.02594 1.12484 1.54096 1.05846 1.09232 0.881273C 0.8693 0.790074 0.65561 0.674052 0.467705 0.526076C 0.283092 0.373437 0.118778 0.200501 0 0C 0.204501 0.113416 0.399264 0.216273 0.602667 0.292935C 0.80566 0.369597 1.01085 0.425825 1.21768 0.468476C 1.6323 0.551036 2.05571 0.57435 2.48419 0.563379C 2.91253 0.554601 3.34553 0.511539 3.78279 0.457368C 4.22087 0.402923 4.66141 0.335449 5.12048 0.274284Z"/>
<path id="path7_fill" fill-rule="evenodd" d="M 2.15263 1.91027C 2.57987 1.6966 2.71963 0 2.10243 0C 1.48522 0 0.0202407 0.874014 0.00090151 1.07891C -0.0418916 1.53312 1.44969 2.26177 2.15263 1.91027Z"/>
<path id="path8_fill" fill-rule="evenodd" d="M 2.54728 0C 2.62354 0.290881 2.54646 0.608504 2.39202 0.87511C 2.23553 1.14446 1.99029 1.35923 1.7194 1.50117C 1.44852 1.65203 1.14787 1.70743 0.857096 1.73226C 0.710337 1.73294 0.564539 1.72704 0.421347 1.70867C 0.278018 1.67918 0.136883 1.64531 0 1.59141C 0.136609 1.52613 0.268828 1.48073 0.39899 1.44C 0.527507 1.39077 0.653006 1.34716 0.777133 1.30835C 1.01798 1.21139 1.25526 1.13349 1.46443 1.01555C 1.67661 0.903773 1.87384 0.77623 2.05242 0.611658C 2.23155 0.446675 2.39723 0.252755 2.54728 0Z"/>
<path id="path9_fill" d="M 11.2676 15.3828C 10.793 15.9512 10.1221 16.3936 9.25488 16.71C 8.3877 17.0205 7.42676 17.1758 6.37207 17.1758C 5.26465 17.1758 4.29199 16.9355 3.4541 16.4551C 2.62207 15.9687 1.97754 15.2656 1.52051 14.3457C 1.06934 13.4258 0.837891 12.3447 0.826172 11.1025L 0.826172 10.2324C 0.826172 8.95508 1.04004 7.85059 1.46777 6.91895C 1.90137 5.98145 2.52246 5.2666 3.33105 4.77441C 4.14551 4.27637 5.09766 4.02734 6.1875 4.02734C 7.70508 4.02734 8.8916 4.39063 9.74707 5.11719C 10.6025 5.83789 11.1094 6.88965 11.2676 8.27246L 8.70117 8.27246C 8.58398 7.54004 8.32324 7.00391 7.91895 6.66406C 7.52051 6.32422 6.96973 6.1543 6.2666 6.1543C 5.37012 6.1543 4.6875 6.49121 4.21875 7.16504C 3.75 7.83887 3.5127 8.84082 3.50684 10.1709L 3.50684 10.9883C 3.50684 12.3301 3.76172 13.3438 4.27148 14.0293C 4.78125 14.7148 5.52832 15.0576 6.5127 15.0576C 7.50293 15.0576 8.20898 14.8467 8.63086 14.4248L 8.63086 12.2188L 6.23145 12.2188L 6.23145 10.2764L 11.2676 10.2764L 11.2676 15.3828ZM 17.3232 17.1758C 16.5146 17.1758 15.7822 16.9766 15.126 16.5781C 14.4756 16.1797 13.9687 15.626 13.6055 14.917C 13.2422 14.2021 13.0605 13.4023 13.0605 12.5176L 13.0605 12.1396C 13.0605 11.2256 13.2363 10.4023 13.5879 9.66992C 13.9453 8.9375 14.4404 8.36328 15.0732 7.94727C 15.7061 7.52539 16.3916 7.31445 17.1299 7.31445C 18.2842 7.31445 19.1982 7.70996 19.8721 8.50098C 20.5518 9.28613 20.8916 10.3613 20.8916 11.7266L 20.8916 12.3154L 14.1064 12.3154L 14.1064 12.5176C 14.1064 13.5957 14.4141 14.4951 15.0293 15.2158C 15.6504 15.9307 16.4297 16.2881 17.3672 16.2881C 17.9297 16.2881 18.4248 16.1855 18.8525 15.9805C 19.2861 15.7754 19.6787 15.4473 20.0303 14.9961L 20.6895 15.4971C 19.916 16.6162 18.7939 17.1758 17.3232 17.1758ZM 17.1299 8.21094C 16.3389 8.21094 15.6709 8.50098 15.126 9.08105C 14.5869 9.66113 14.2588 10.4404 14.1416 11.4189L 19.8457 11.4189L 19.8457 11.3047C 19.8164 10.3906 19.5557 9.64648 19.0635 9.07227C 18.5713 8.49805 17.9268 8.21094 17.1299 8.21094ZM 24.5742 5.05566L 24.5742 7.49023L 26.543 7.49023L 26.543 8.35156L 24.5742 8.35156L 24.5742 14.6885C 24.5742 15.2158 24.668 15.6084 24.8555 15.8662C 25.0488 16.124 25.3682 16.2529 25.8135 16.2529C 25.9893 16.2529 26.2734 16.2236 26.666 16.165L 26.71 17.0264C 26.4346 17.126 26.0596 17.1758 25.585 17.1758C 24.8643 17.1758 24.3398 16.9678 24.0117 16.5518C 23.6836 16.1299 23.5195 15.5117 23.5195 14.6973L 23.5195 8.35156L 21.7705 8.35156L 21.7705 7.49023L 23.5195 7.49023L 23.5195 5.05566L 24.5742 5.05566ZM 36.1934 11.7705L 31.1309 11.7705L 31.1309 17L 28.4941 17L 28.4941 4.20312L 36.8262 4.20312L 36.8262 6.33887L 31.1309 6.33887L 31.1309 9.64355L 36.1934 9.64355L 36.1934 11.7705ZM 38.0039 12.1045C 38.0039 11.1904 38.1797 10.3672 38.5312 9.63477C 38.8887 8.90234 39.3896 8.33398 40.0342 7.92969C 40.6846 7.51953 41.4199 7.31445 42.2402 7.31445C 43.5059 7.31445 44.5313 7.75977 45.3164 8.65039C 46.1016 9.53516 46.4941 10.71 46.4941 12.1748L 46.4941 12.3945C 46.4941 13.3145 46.3154 14.1436 45.958 14.8818C 45.6064 15.6143 45.1084 16.1797 44.4639 16.5781C 43.8193 16.9766 43.084 17.1758 42.2578 17.1758C 40.998 17.1758 39.9727 16.7334 39.1816 15.8486C 38.3965 14.958 38.0039 13.7803 38.0039 12.3154L 38.0039 12.1045ZM 39.0586 12.3945C 39.0586 13.5313 39.3516 14.4658 39.9375 15.1982C 40.5293 15.9248 41.3027 16.2881 42.2578 16.2881C 43.207 16.2881 43.9746 15.9248 44.5605 15.1982C 45.1523 14.4658 45.4482 13.502 45.4482 12.3066L 45.4482 12.1045C 45.4482 11.3779 45.3135 10.7129 45.0439 10.1094C 44.7744 9.50586 44.3965 9.04004 43.9102 8.71191C 43.4238 8.37793 42.8672 8.21094 42.2402 8.21094C 41.3027 8.21094 40.5381 8.58008 39.9463 9.31836C 39.3545 10.0508 39.0586 11.0117 39.0586 12.2012L 39.0586 12.3945ZM 51.4688 11.3486L 54.0352 7.49023L 55.2832 7.49023L 52.0576 12.1572L 55.4238 17L 54.1846 17L 51.4775 12.9746L 48.7705 17L 47.5312 17L 50.8887 12.1572L 47.6631 7.49023L 48.9023 7.49023L 51.4688 11.3486ZM 60.249 15.4883L 63.0264 7.49023L 64.1602 7.49023L 60.0996 18.6172L 59.8887 19.1094C 59.3672 20.2637 58.5615 20.8408 57.4717 20.8408C 57.2197 20.8408 56.9502 20.7998 56.6631 20.7178L 56.6543 19.8477L 57.1992 19.9004C 57.7148 19.9004 58.1309 19.7715 58.4473 19.5137C 58.7695 19.2617 59.042 18.8252 59.2646 18.2041L 59.7305 16.9209L 56.1445 7.49023L 57.2959 7.49023L 60.249 15.4883ZM 68.2031 12.4912L 68.2031 17L 65.5664 17L 65.5664 4.20312L 70.5586 4.20312C 71.5195 4.20312 72.3633 4.37891 73.0898 4.73047C 73.8223 5.08203 74.3848 5.58301 74.7773 6.2334C 75.1699 6.87793 75.3662 7.61328 75.3662 8.43945C 75.3662 9.69336 74.9355 10.6836 74.0742 11.4102C 73.2188 12.1309 72.0322 12.4912 70.5146 12.4912L 68.2031 12.4912ZM 68.2031 10.3555L 70.5586 10.3555C 71.2559 10.3555 71.7861 10.1914 72.1494 9.86328C 72.5186 9.53516 72.7031 9.06641 72.7031 8.45703C 72.7031 7.83008 72.5186 7.32324 72.1494 6.93652C 71.7803 6.5498 71.2705 6.35059 70.6201 6.33887L 68.2031 6.33887L 68.2031 10.3555ZM 81.8086 8.38672C 81.5859 8.3457 81.3486 8.3252 81.0967 8.3252C 80.4404 8.3252 79.8838 8.50977 79.4268 8.87891C 78.9756 9.24219 78.6533 9.77246 78.46 10.4697L 78.46 17L 77.4141 17L 77.4141 7.49023L 78.4424 7.49023L 78.46 9.00195C 79.0166 7.87695 79.9102 7.31445 81.1406 7.31445C 81.4336 7.31445 81.665 7.35254 81.835 7.42871L 81.8086 8.38672ZM 82.7227 12.1045C 82.7227 11.1904 82.8984 10.3672 83.25 9.63477C 83.6074 8.90234 84.1084 8.33398 84.7529 7.92969C 85.4033 7.51953 86.1387 7.31445 86.959 7.31445C 88.2246 7.31445 89.25 7.75977 90.0352 8.65039C 90.8203 9.53516 91.2129 10.71 91.2129 12.1748L 91.2129 12.3945C 91.2129 13.3145 91.0342 14.1436 90.6768 14.8818C 90.3252 15.6143 89.8271 16.1797 89.1826 16.5781C 88.5381 16.9766 87.8027 17.1758 86.9766 17.1758C 85.7168 17.1758 84.6914 16.7334 83.9004 15.8486C 83.1152 14.958 82.7227 13.7803 82.7227 12.3154L 82.7227 12.1045ZM 83.7773 12.3945C 83.7773 13.5313 84.0703 14.4658 84.6562 15.1982C 85.248 15.9248 86.0215 16.2881 86.9766 16.2881C 87.9258 16.2881 88.6934 15.9248 89.2793 15.1982C 89.8711 14.4658 90.167 13.502 90.167 12.3066L 90.167 12.1045C 90.167 11.3779 90.0322 10.7129 89.7627 10.1094C 89.4932 9.50586 89.1152 9.04004 88.6289 8.71191C 88.1426 8.37793 87.5859 8.21094 86.959 8.21094C 86.0215 8.21094 85.2568 8.58008 84.665 9.31836C 84.0732 10.0508 83.7773 11.0117 83.7773 12.2012L 83.7773 12.3945ZM 94.3506 7.49023L 94.3857 9.03711C 94.7373 8.46289 95.1768 8.03223 95.7041 7.74512C 96.2314 7.45801 96.8174 7.31445 97.4619 7.31445C 98.9619 7.31445 99.9141 7.92969 100.318 9.16016C 100.658 8.56836 101.112 8.11426 101.681 7.79785C 102.249 7.47559 102.876 7.31445 103.562 7.31445C 105.601 7.31445 106.641 8.42773 106.682 10.6543L 106.682 17L 105.627 17L 105.627 10.7334C 105.621 9.88379 105.437 9.25391 105.073 8.84375C 104.716 8.43359 104.13 8.22852 103.315 8.22852C 102.56 8.24023 101.921 8.48633 101.399 8.9668C 100.878 9.44141 100.588 10.0215 100.529 10.707L 100.529 17L 99.4746 17L 99.4746 10.6543C 99.4687 9.83984 99.2754 9.2334 98.8945 8.83496C 98.5195 8.43066 97.9395 8.22852 97.1543 8.22852C 96.4922 8.22852 95.9238 8.41895 95.4492 8.7998C 94.9746 9.1748 94.623 9.73437 94.3945 10.4785L 94.3945 17L 93.3398 17L 93.3398 7.49023L 94.3506 7.49023ZM 108.773 12.1045C 108.773 11.1904 108.949 10.3672 109.301 9.63477C 109.658 8.90234 110.159 8.33398 110.804 7.92969C 111.454 7.51953 112.189 7.31445 113.01 7.31445C 114.275 7.31445 115.301 7.75977 116.086 8.65039C 116.871 9.53516 117.264 10.71 117.264 12.1748L 117.264 12.3945C 117.264 13.3145 117.085 14.1436 116.728 14.8818C 116.376 15.6143 115.878 16.1797 115.233 16.5781C 114.589 16.9766 113.854 17.1758 113.027 17.1758C 111.768 17.1758 110.742 16.7334 109.951 15.8486C 109.166 14.958 108.773 13.7803 108.773 12.3154L 108.773 12.1045ZM 109.828 12.3945C 109.828 13.5313 110.121 14.4658 110.707 15.1982C 111.299 15.9248 112.072 16.2881 113.027 16.2881C 113.977 16.2881 114.744 15.9248 115.33 15.1982C 115.922 14.4658 116.218 13.502 116.218 12.3066L 116.218 12.1045C 116.218 11.3779 116.083 10.7129 115.813 10.1094C 115.544 9.50586 115.166 9.04004 114.68 8.71191C 114.193 8.37793 113.637 8.21094 113.01 8.21094C 112.072 8.21094 111.308 8.58008 110.716 9.31836C 110.124 10.0508 109.828 11.0117 109.828 12.2012L 109.828 12.3945Z"/>
</defs>
</svg>
