<svg width="603" height="784" viewBox="0 0 603 784" xmlns="http://www.w3.org/2000/svg" xmlns:xlink="http://www.w3.org/1999/xlink"><title>line</title><desc>Created using Figma</desc><use xlink:href="#a" transform="translate(1 1)" fill="#A9BEE1"/><defs><path id="a" d="M0 0l.493-.87L-.8.6 0 0zm270.403 153.072h1v-.583l-.507-.287-.493.87zm0 206.177l-.799.602 1.799 2.39v-2.992h-1zm0 95.713l.703-.711-1.703-1.685v2.396h1zM-.493.87l1.734.981.985-1.74L.493-.87-.493.87zm5.2 2.944l3.467 1.962.985-1.74-3.466-1.963-.986 1.74zm6.934 3.925L15.107 9.7l.986-1.74-3.467-1.963-.985 1.74zm6.933 3.925l3.467 1.962.985-1.74-3.466-1.963-.986 1.74zm6.934 3.925l3.466 1.962.986-1.74-3.467-1.963-.985 1.74zm6.933 3.925l3.467 1.962.985-1.74-3.467-1.963-.985 1.74zm6.933 3.925l3.467 1.962.986-1.74-3.467-1.963-.986 1.74zm6.934 3.924l3.467 1.963.985-1.74-3.467-1.963-.985 1.74zm6.933 3.925l3.467 1.963.985-1.74-3.466-1.963-.986 1.74zm6.934 3.925l3.466 1.963.986-1.74-3.467-1.963-.985 1.74zm6.933 3.925l3.467 1.963.985-1.74-3.467-1.963-.985 1.74zm6.934 3.925l3.466 1.963.986-1.74-3.467-1.963-.985 1.74zm6.933 3.925l3.467 1.963.985-1.74-3.467-1.963-.985 1.74zm6.933 3.925l3.467 1.963.985-1.74-3.466-1.963-.986 1.74zm6.934 3.925l3.466 1.962.986-1.74-3.467-1.963-.985 1.741zm6.933 3.925l3.467 1.962.985-1.74-3.467-1.963-.985 1.74zm6.934 3.925l3.466 1.962.986-1.74-3.467-1.963-.985 1.74zm6.933 3.925l3.467 1.962.985-1.74-3.467-1.963-.985 1.74zm6.933 3.925l3.467 1.962.985-1.74-3.466-1.963-.986 1.74zm6.934 3.925l3.467 1.962.985-1.74-3.467-1.963-.985 1.74zm6.933 3.925l3.467 1.962.985-1.74-3.466-1.963-.986 1.74zm6.934 3.924l3.466 1.963.986-1.74-3.467-1.963-.985 1.74zm6.933 3.925l3.467 1.963.985-1.74-3.467-1.963-.985 1.74zm6.934 3.925l3.466 1.963.985-1.74-3.466-1.963-.985 1.74zm6.933 3.925l3.467 1.963.985-1.74-3.467-1.963-.985 1.74zm6.933 3.925l3.467 1.963.985-1.74-3.466-1.963-.986 1.74zm6.934 3.925l3.466 1.963.986-1.741-3.467-1.962-.985 1.74zm6.933 3.925l3.467 1.963.985-1.741-3.467-1.962-.985 1.74zm6.934 3.925l3.466 1.962.986-1.74-3.467-1.962-.985 1.74zm6.933 3.925l3.467 1.962.985-1.74-3.467-1.963-.985 1.741zm6.933 3.925l3.467 1.962.985-1.74-3.466-1.963-.986 1.741zm6.934 3.925l3.467 1.962.985-1.74-3.467-1.963-.985 1.741zm6.933 3.925l3.467 1.962.985-1.74-3.467-1.963-.985 1.741zm6.934 3.925l3.466 1.962.986-1.74-3.467-1.963-.985 1.741zm6.933 3.925l3.467 1.962.985-1.74-3.467-1.963-.985 1.741zm6.933 3.924l3.467 1.963.985-1.741-3.466-1.962-.986 1.74zm6.934 3.925l3.467 1.963.985-1.741-3.467-1.962-.985 1.74zm6.933 3.925l3.467 1.963.985-1.741-3.466-1.962-.986 1.74zm6.934 3.925l3.466 1.963.986-1.741-3.467-1.962-.985 1.74zm6.933 3.925l1.733.981.986-1.74-1.734-.981-.985 1.74zm1.226.111v1.983h2v-1.983h-2zm0 5.948v3.965h2v-3.965h-2zm0 7.929v3.965h2v-3.965h-2zm0 7.93v3.965h2v-3.965h-2zm0 7.93v3.965h2v-3.965h-2zm0 7.93v3.965h2v-3.965h-2zm0 7.93v3.965h2v-3.965h-2zm0 7.93v3.965h2v-3.965h-2zm0 7.93v3.965h2v-3.965h-2zm0 7.93v3.965h2v-3.965h-2zm0 7.93v3.965h2v-3.965h-2zm0 7.93v3.965h2v-3.965h-2zm0 7.929v3.965h2v-3.965h-2zm0 7.93v3.965h2v-3.965h-2zm0 7.93v3.965h2v-3.965h-2zm0 7.93v3.965h2v-3.965h-2zm0 7.93v3.965h2v-3.965h-2zm0 7.93v3.965h2v-3.965h-2zm0 7.93v3.965h2v-3.965h-2zm0 7.93v3.965h2v-3.965h-2zm0 7.93v3.965h2v-3.965h-2zm0 7.93v3.964h2v-3.964h-2zm0 7.929v3.965h2v-3.965h-2zm0 7.93v3.965h2v-3.965h-2zm0 7.93v3.965h2v-3.965h-2zm0 7.93v3.965h2v-3.965h-2zm0 7.93v1.982h2v-1.982h-2zm1.799 1.381l-1.207-1.604-1.598 1.203 1.207 1.604 1.598-1.203zm-3.621-4.811l-2.415-3.208-1.598 1.203 2.415 3.207 1.598-1.202zm-4.829-6.415l-2.414-3.208-1.598 1.203 2.414 3.207 1.598-1.202zm-4.829-6.416l-2.414-3.207-1.598 1.203 2.414 3.207 1.598-1.203zm-4.828-6.415l-2.415-3.207-1.598 1.202 2.415 3.208 1.598-1.203zm-4.829-6.415l-2.414-3.208-1.598 1.203 2.414 3.208 1.598-1.203zm-4.829-6.415l-2.414-3.208-1.598 1.203 2.415 3.208 1.597-1.203zm-4.828-6.415l-2.414-3.208-1.598 1.203 2.414 3.207 1.598-1.202zm-4.829-6.415l-2.414-3.208-1.598 1.203 2.414 3.207 1.598-1.202zm-4.828-6.416l-2.415-3.207-1.598 1.203 2.415 3.207 1.598-1.203zm-4.829-6.415l-2.414-3.207-1.598 1.202 2.414 3.208 1.598-1.203zm-4.829-6.415l-2.414-3.208-1.598 1.203 2.414 3.208 1.598-1.203zm-4.828-6.415l-2.415-3.208-1.598 1.203 2.415 3.208 1.598-1.203zm-4.829-6.415l-2.414-3.208-1.598 1.203 2.414 3.207 1.598-1.202zm-4.829-6.415l-2.414-3.208-1.598 1.203 2.415 3.207 1.597-1.202zm-4.828-6.416l-2.414-3.207-1.598 1.203 2.414 3.207 1.598-1.203zm-4.829-6.415l-2.414-3.207-1.598 1.202 2.414 3.208 1.598-1.203zm-4.828-6.415l-2.415-3.208-1.598 1.203 2.415 3.208 1.598-1.203zm-4.829-6.415l-2.414-3.208-1.598 1.203 2.414 3.208 1.598-1.203zm-4.829-6.415l-2.414-3.208-1.598 1.203 2.414 3.207 1.598-1.202zm-4.828-6.415l-2.415-3.208-1.598 1.203 2.415 3.207 1.598-1.202zm-4.829-6.416l-2.414-3.207-1.598 1.203 2.414 3.207 1.598-1.203zm-4.829-6.415l-2.414-3.207-1.598 1.202 2.414 3.208 1.598-1.203zm-4.828-6.415l-2.415-3.208-1.597 1.203 2.414 3.208 1.598-1.203zm-4.829-6.415l-2.414-3.208-1.598 1.203 2.414 3.208 1.598-1.203zm-4.828-6.415l-2.415-3.208-1.598 1.203 2.415 3.207 1.598-1.202zm-4.829-6.415l-2.414-3.208-1.598 1.203 2.414 3.207 1.598-1.202zm-4.829-6.416l-2.414-3.207-1.598 1.202 2.414 3.208 1.598-1.203zm-4.828-6.415l-2.415-3.207-1.598 1.202 2.415 3.208 1.598-1.203zm-4.829-6.415l-2.414-3.208-1.598 1.203 2.414 3.208 1.598-1.203zm-4.829-6.415l-2.414-3.208-1.598 1.203 2.414 3.208 1.598-1.203zm-4.828-6.415l-2.415-3.208-1.597 1.203 2.414 3.207 1.598-1.202zm-4.829-6.416l-2.414-3.207-1.598 1.203 2.414 3.207 1.598-1.203zm-4.828-6.415l-2.415-3.207-1.598 1.202 2.415 3.208 1.598-1.203zm-4.829-6.415l-2.414-3.207-1.598 1.202 2.414 3.208 1.598-1.203zm-4.829-6.415l-2.414-3.208-1.598 1.203 2.414 3.208 1.598-1.203zm-4.828-6.415l-2.415-3.208-1.598 1.203 2.415 3.208 1.598-1.203zm-4.829-6.415l-2.414-3.208-1.598 1.203 2.414 3.207 1.598-1.202zm-4.829-6.416l-2.414-3.207-1.598 1.203 2.414 3.207 1.598-1.203zm-4.828-6.415l-2.415-3.207-1.597 1.202 2.414 3.208 1.598-1.203zm-4.829-6.415l-2.414-3.207-1.598 1.202 2.414 3.208 1.598-1.203zm-4.828-6.415l-2.415-3.208-1.598 1.203 2.415 3.208 1.598-1.203zm-4.83-6.415l-2.413-3.208-1.598 1.203 2.414 3.207 1.598-1.202zM64.779 84.4l-2.414-3.208-1.598 1.203 2.414 3.207 1.598-1.202zm-4.828-6.416l-2.415-3.207-1.598 1.203 2.415 3.207 1.598-1.203zM55.12 71.57l-2.414-3.207-1.598 1.202 2.414 3.208 1.598-1.203zm-4.829-6.415l-2.414-3.207-1.598 1.202 2.414 3.208 1.598-1.203zm-4.828-6.415l-2.413-3.21-1.598 1.203 2.414 3.208 1.598-1.203zm-4.829-6.415l-2.414-3.208-1.598 1.203 2.414 3.207 1.598-1.202zm-4.828-6.415l-2.414-3.21-1.598 1.203 2.415 3.207 1.597-1.202zm-4.83-6.416l-2.413-3.207-1.598 1.203 2.414 3.207 1.598-1.203zm-4.828-6.415l-2.414-3.207-1.598 1.202 2.414 3.208 1.598-1.203zm-4.828-6.415l-2.415-3.207-1.598 1.202 2.415 3.208 1.598-1.203zm-4.829-6.415l-2.414-3.208-1.598 1.203 2.414 3.208 1.598-1.203zm-4.829-6.415L9.25 10.625l-1.598 1.203 2.414 3.208 1.598-1.203zM6.835 7.418L4.42 4.21 2.822 5.413 5.237 8.62l1.598-1.202zM2.006 1.002L.8-.6-.799.6.408 2.205l1.598-1.203zm267.397 453.96v1.988h2v-1.988h-2zm0 5.965v3.977h2v-3.977h-2zm0 7.954v3.977h2v-3.977h-2zm0 7.954v3.977h2v-3.977h-2zm0 7.954v3.977h2v-3.977h-2zm0 7.954v3.977h2v-3.977h-2zm0 7.954v3.977h2v-3.977h-2zm0 7.954v3.977h2v-3.977h-2zm0 7.954v3.977h2v-3.977h-2zm0 7.954v3.977h2v-3.977h-2zm0 7.954v3.977h2v-3.977h-2zm0 7.954v3.977h2v-3.977h-2zm0 7.954v3.977h2v-3.977h-2zm0 7.954v3.977h2v-3.977h-2zm0 7.954v3.977h2v-3.977h-2zm0 7.954v3.977h2v-3.977h-2zm0 7.954v3.977h2v-3.977h-2zm0 7.954v3.977h2v-3.977h-2zm.506 6.835l1.74.989.988-1.739-1.74-.989-.988 1.739zm5.22 2.966l3.48 1.977.988-1.739-3.48-1.977-.988 1.739zm6.96 3.954l3.48 1.978.988-1.739-3.48-1.977-.988 1.738zm6.96 3.955l3.48 1.977.988-1.739-3.48-1.977-.988 1.739zm6.96 3.955l3.48 1.977.988-1.739-3.48-1.977-.988 1.739zm6.96 3.954l3.48 1.978.988-1.739-3.48-1.978-.988 1.739zm6.96 3.955l3.48 1.977.988-1.739-3.48-1.977-.988 1.739zm6.96 3.954l3.48 1.978.988-1.739-3.48-1.977-.988 1.738zm6.96 3.955l3.48 1.977.988-1.739-3.48-1.977-.988 1.739zm6.96 3.955l3.479 1.977.989-1.739-3.48-1.977-.988 1.739zm6.959 3.954l3.48 1.978.988-1.739-3.48-1.978-.988 1.739zm6.96 3.955l3.48 1.977.988-1.739-3.48-1.977-.988 1.739zm6.96 3.954l3.48 1.978.988-1.739-3.48-1.977-.988 1.738zm6.96 3.955l3.48 1.977.988-1.739-3.48-1.977-.988 1.739zm6.96 3.955l3.48 1.977.988-1.739-3.48-1.977-.988 1.739zm6.96 3.954l3.48 1.978.988-1.739-3.48-1.978-.988 1.739zm6.96 3.955l3.48 1.977.988-1.739-3.48-1.977-.988 1.739zm6.96 3.954l3.48 1.978.988-1.739-3.48-1.977-.988 1.738zm6.96 3.955l3.48 1.977.988-1.739-3.48-1.977-.988 1.739zm6.96 3.955l3.48 1.977.988-1.739-3.48-1.977-.988 1.739zm6.96 3.954l3.48 1.978.988-1.739-3.48-1.978-.988 1.739zm6.96 3.955l3.48 1.977.988-1.739-3.48-1.977-.988 1.739zm6.96 3.954l3.48 1.978.988-1.739-3.48-1.977-.988 1.738zm6.96 3.955l3.48 1.977.988-1.739-3.48-1.977-.988 1.739zm6.96 3.955l3.48 1.977.988-1.739-3.48-1.977-.988 1.739zm6.959 3.954l3.48 1.978.988-1.739-3.48-1.978-.988 1.739zm6.96 3.955l3.48 1.977.988-1.739-3.48-1.977-.988 1.739zm6.96 3.954l3.48 1.978.988-1.739-3.48-1.977-.988 1.738zm6.96 3.955l3.48 1.977.988-1.739-3.48-1.977-.988 1.739zm6.96 3.955l3.48 1.977.988-1.739-3.48-1.977-.988 1.739zm6.96 3.954l3.48 1.978.988-1.739-3.48-1.978-.988 1.739zm6.96 3.955l3.48 1.977.988-1.739-3.48-1.977-.988 1.739zm6.96 3.954l3.48 1.978.988-1.739-3.48-1.977-.988 1.738zm6.96 3.955l3.48 1.977.988-1.739-3.48-1.977-.988 1.739zm6.96 3.955l3.48 1.977.988-1.739-3.48-1.977-.988 1.739zm6.96 3.954l3.48 1.978.988-1.739-3.48-1.978-.988 1.739zm6.96 3.955l3.48 1.977.988-1.739-3.48-1.977-.988 1.739zm6.96 3.954l3.48 1.978.988-1.739-3.48-1.977-.988 1.738zm6.96 3.955l3.48 1.977.988-1.739-3.48-1.977-.988 1.739zm6.96 3.955l3.479 1.977.989-1.739-3.48-1.977-.988 1.739zm6.959 3.954l3.48 1.978.988-1.739-3.479-1.978-.989 1.739zm6.96 3.955l3.48 1.977.988-1.739-3.48-1.977-.988 1.739zm6.96 3.954l3.48 1.978.988-1.739-3.48-1.977-.988 1.738zm6.96 3.955l3.48 1.977.988-1.739-3.48-1.977-.988 1.739zm6.96 3.955l3.48 1.977.988-1.739-3.48-1.977-.988 1.739zm6.96 3.954l3.48 1.978.988-1.739-3.48-1.978-.988 1.739zm6.96 3.955l3.48 1.977.988-1.739-3.48-1.977-.988 1.739zm6.96 3.955l3.48 1.977.988-1.739-3.48-1.977-.988 1.739zm6.417 1.385l-1.425-1.41-1.406 1.422 1.425 1.41 1.406-1.422zm-4.275-4.229l-2.85-2.819-1.406 1.422 2.85 2.819 1.406-1.422zm-5.7-5.638l-2.85-2.82-1.406 1.422 2.85 2.819 1.406-1.421zm-5.7-5.639l-2.85-2.819-1.406 1.421 2.85 2.82 1.406-1.422zm-5.7-5.639l-2.849-2.819-1.407 1.422 2.85 2.819 1.406-1.422zm-5.699-5.638l-2.85-2.82-1.407 1.422 2.85 2.82 1.407-1.422zm-5.7-5.639l-2.85-2.819-1.407 1.422 2.85 2.819 1.407-1.422zm-5.7-5.638l-2.85-2.82-1.407 1.422 2.85 2.819 1.407-1.421zm-5.7-5.639l-2.85-2.819-1.407 1.422 2.85 2.819 1.407-1.422zm-5.7-5.639l-2.85-2.819-1.407 1.422 2.85 2.819 1.407-1.422zm-5.7-5.638l-2.85-2.819-1.407 1.421 2.85 2.82 1.407-1.422zm-5.7-5.639l-2.85-2.819-1.407 1.422 2.85 2.819 1.407-1.422zm-5.7-5.638l-2.85-2.82-1.407 1.422 2.85 2.82 1.407-1.422zm-5.7-5.639l-2.85-2.819-1.407 1.422 2.85 2.819 1.407-1.422zm-5.7-5.639l-2.85-2.819-1.406 1.422 2.849 2.819 1.407-1.422zm-5.7-5.638l-2.85-2.819-1.406 1.421 2.85 2.82 1.406-1.422zm-5.7-5.639l-2.85-2.819-1.406 1.422 2.85 2.819 1.406-1.422zm-5.7-5.638l-2.85-2.82-1.406 1.422 2.85 2.82 1.406-1.422zm-5.7-5.639l-2.85-2.819-1.406 1.422 2.85 2.819 1.406-1.422zm-5.7-5.638l-2.85-2.82-1.406 1.422 2.85 2.819 1.406-1.421zm-5.7-5.639l-2.85-2.819-1.406 1.421 2.85 2.82 1.406-1.422zm-5.7-5.639l-2.85-2.819-1.406 1.422 2.85 2.819 1.406-1.422zm-5.7-5.638l-2.85-2.82-1.406 1.422 2.85 2.82 1.406-1.422zm-5.7-5.639l-2.849-2.819-1.407 1.422 2.85 2.819 1.406-1.422zm-5.699-5.638l-2.85-2.82-1.407 1.422 2.85 2.819 1.407-1.421zm-5.7-5.639l-2.85-2.819-1.407 1.422 2.85 2.819 1.407-1.422zm-5.7-5.639l-2.85-2.819-1.407 1.422 2.85 2.819 1.407-1.422zm-5.7-5.638l-2.85-2.819-1.407 1.421 2.85 2.82 1.407-1.422zm-5.7-5.639l-2.85-2.819-1.407 1.422 2.85 2.819 1.407-1.422zm-5.7-5.638l-2.85-2.82-1.407 1.422 2.85 2.82 1.407-1.422zm-5.7-5.639l-2.85-2.819-1.407 1.422 2.85 2.819 1.407-1.422zm-5.7-5.639l-2.85-2.819-1.407 1.422 2.85 2.819 1.407-1.422zm-5.7-5.638l-2.85-2.819-1.407 1.421 2.85 2.82 1.407-1.422zm-5.7-5.639l-2.85-2.819-1.407 1.422 2.85 2.819 1.407-1.422zm-5.7-5.638l-2.85-2.82-1.406 1.422 2.85 2.82 1.406-1.422zm-5.7-5.639l-2.85-2.819-1.406 1.422 2.85 2.819 1.406-1.422zm-5.7-5.638l-2.85-2.82-1.406 1.422 2.85 2.819 1.406-1.421zm-5.7-5.639l-2.85-2.819-1.406 1.421 2.85 2.82 1.406-1.422zm-5.7-5.639l-2.85-2.819-1.406 1.422 2.85 2.819 1.406-1.422zm-5.7-5.638l-2.85-2.82-1.406 1.422 2.85 2.82 1.406-1.422zm-5.7-5.639l-2.85-2.819-1.406 1.422 2.85 2.819 1.406-1.422zm-5.7-5.638l-2.85-2.82-1.406 1.422 2.85 2.819 1.406-1.421zm-5.7-5.639l-2.849-2.819-1.407 1.422 2.85 2.819 1.406-1.422zm-5.699-5.639l-2.85-2.819-1.407 1.422 2.85 2.819 1.407-1.422zm-5.7-5.638l-2.85-2.82-1.407 1.422 2.85 2.82 1.407-1.422zm-5.7-5.639l-2.85-2.819-1.407 1.422 2.85 2.819 1.407-1.422zm-5.7-5.638l-2.85-2.82-1.407 1.422 2.85 2.819 1.407-1.421zm-5.7-5.639l-2.85-2.819-1.407 1.422 2.85 2.819 1.407-1.422zm-5.7-5.639l-2.85-2.819-1.407 1.422 2.85 2.819 1.407-1.422zm-5.7-5.638l-2.85-2.819-1.407 1.421 2.85 2.82 1.407-1.422zm-5.7-5.639l-2.85-2.819-1.407 1.422 2.85 2.819 1.407-1.422zm-5.7-5.638l-2.85-2.82-1.407 1.422 2.85 2.82 1.407-1.422zm-5.7-5.639l-2.85-2.819-1.406 1.422 2.849 2.819 1.407-1.422zm-5.7-5.638l-2.85-2.82-1.406 1.422 2.85 2.819 1.406-1.421zm-5.7-5.639l-2.85-2.819-1.406 1.421 2.85 2.82 1.406-1.422zm-5.7-5.639l-2.85-2.819-1.406 1.422 2.85 2.819 1.406-1.422zm-5.7-5.638l-2.85-2.82-1.406 1.422 2.85 2.82 1.406-1.422zm-5.7-5.639l-2.85-2.819-1.406 1.422 2.85 2.819 1.406-1.422zm-5.7-5.638l-1.425-1.41-1.406 1.422 1.425 1.409 1.406-1.421z"/></defs></svg>