<svg width="189" height="115" viewBox="0 0 189 115" version="1.1" xmlns="http://www.w3.org/2000/svg" xmlns:xlink="http://www.w3.org/1999/xlink">
<title>Path 10</title>
<desc>Created using Figma</desc>
<g id="Canvas" transform="translate(-1558 108)">
<g id="Path 10">
<use xlink:href="#path0_stroke" transform="translate(1559 -108)" fill="#A9BEE1"/>
</g>
</g>
<defs>
<path id="path0_stroke" d="M 0.516493 114.856L 2.23467 113.82L 1.20169 112.107L -0.516493 113.144L 0.516493 114.856ZM 5.67104 111.747L 9.1074 109.674L 8.07442 107.962L 4.63805 110.035L 5.67104 111.747ZM 12.5438 107.602L 15.9801 105.529L 14.9471 103.816L 11.5108 105.889L 12.5438 107.602ZM 19.4165 103.456L 22.8529 101.384L 21.8199 99.671L 18.3835 101.744L 19.4165 103.456ZM 26.2892 99.3108L 29.7256 97.2381L 28.6926 95.5255L 25.2562 97.5983L 26.2892 99.3108ZM 33.1619 95.1654L 36.5983 93.0927L 35.5653 91.3801L 32.129 93.4528L 33.1619 95.1654ZM 40.0347 91.0199L 43.471 88.9472L 42.438 87.2346L 39.0017 89.3073L 40.0347 91.0199ZM 46.9074 86.8745L 50.3438 84.8018L 49.3108 83.0892L 45.8744 85.1619L 46.9074 86.8745ZM 53.7801 82.729L 57.2165 80.6563L 56.1835 78.9437L 52.7471 81.0164L 53.7801 82.729ZM 60.6529 78.5836L 64.0892 76.5108L 63.0562 74.7983L 59.6199 76.871L 60.6529 78.5836ZM 67.5256 74.4381L 70.9619 72.3654L 69.929 70.6528L 66.4926 72.7255L 67.5256 74.4381ZM 74.3983 70.2927L 77.8347 68.2199L 76.8017 66.5073L 73.3653 68.5801L 74.3983 70.2927ZM 81.271 66.1472L 84.7074 64.0745L 83.6744 62.3619L 80.2381 64.4346L 81.271 66.1472ZM 88.1438 62.0017L 91.5801 59.929L 90.5471 58.2164L 87.1108 60.2892L 88.1438 62.0017ZM 95.0165 57.8563L 98.4529 55.7836L 97.4199 54.071L 93.9835 56.1437L 95.0165 57.8563ZM 101.889 53.7108L 105.326 51.6381L 104.293 49.9255L 100.856 51.9983L 101.889 53.7108ZM 108.762 49.5654L 112.198 47.4927L 111.165 45.7801L 107.729 47.8528L 108.762 49.5654ZM 115.635 45.4199L 119.071 43.3472L 118.038 41.6346L 114.602 43.7073L 115.635 45.4199ZM 122.507 41.2745L 125.944 39.2017L 124.911 37.4892L 121.474 39.5619L 122.507 41.2745ZM 129.38 37.129L 132.816 35.0563L 131.784 33.3437L 128.347 35.4164L 129.38 37.129ZM 136.253 32.9836L 139.689 30.9108L 138.656 29.1983L 135.22 31.271L 136.253 32.9836ZM 143.126 28.8381L 146.562 26.7654L 145.529 25.0528L 142.093 27.1255L 143.126 28.8381ZM 149.998 24.6927L 153.435 22.6199L 152.402 20.9073L 148.965 22.9801L 149.998 24.6927ZM 156.871 20.5472L 160.307 18.4745L 159.274 16.7619L 155.838 18.8346L 156.871 20.5472ZM 163.744 16.4018L 167.18 14.329L 166.147 12.6164L 162.711 14.6892L 163.744 16.4018ZM 170.616 12.2563L 174.053 10.1836L 173.02 8.47099L 169.583 10.5437L 170.616 12.2563ZM 177.489 8.11084L 180.926 6.03811L 179.893 4.32553L 176.456 6.39826L 177.489 8.11084ZM 184.362 3.96539L 187.798 1.89266L 186.765 0.180077L 183.329 2.2528L 184.362 3.96539Z"/>
</defs>
</svg>
