<svg width="273" height="361" viewBox="0 0 273 361" xmlns="http://www.w3.org/2000/svg" xmlns:xlink="http://www.w3.org/1999/xlink"><title>Path</title><desc>Created using Figma</desc><use xlink:href="#a" transform="translate(1 1)" fill="#A9BEE1"/><defs><path id="a" d="M270.403 153.072h1v-.583l-.507-.287-.493.87zM-.493.87l1.734.981.985-1.74L.493-.87-.493.87zm5.2 2.944l3.467 1.962.985-1.74-3.466-1.963-.986 1.74zm6.934 3.925L15.107 9.7l.986-1.74-3.467-1.963-.985 1.74zm6.933 3.925l3.467 1.962.985-1.74-3.466-1.963-.986 1.74zm6.934 3.925l3.466 1.962.986-1.74-3.467-1.963-.985 1.74zm6.933 3.925l3.467 1.962.985-1.74-3.467-1.963-.985 1.74zm6.933 3.925l3.467 1.962.986-1.74-3.467-1.963-.986 1.74zm6.934 3.924l3.467 1.963.985-1.74-3.467-1.963-.985 1.74zm6.933 3.925l3.467 1.963.985-1.74-3.466-1.963-.986 1.74zm6.934 3.925l3.466 1.963.986-1.74-3.467-1.963-.985 1.74zm6.933 3.925l3.467 1.963.985-1.74-3.467-1.963-.985 1.74zm6.934 3.925l3.466 1.963.986-1.74-3.467-1.963-.985 1.74zm6.933 3.925l3.467 1.963.985-1.74-3.467-1.963-.985 1.74zm6.933 3.925l3.467 1.963.985-1.74-3.466-1.963-.986 1.74zm6.934 3.925l3.466 1.962.986-1.74-3.467-1.963-.985 1.741zm6.933 3.925l3.467 1.962.985-1.74-3.467-1.963-.985 1.74zm6.934 3.925l3.466 1.962.986-1.74-3.467-1.963-.985 1.74zm6.933 3.925l3.467 1.962.985-1.74-3.467-1.963-.985 1.74zm6.933 3.925l3.467 1.962.985-1.74-3.466-1.963-.986 1.74zm6.934 3.925l3.467 1.962.985-1.74-3.467-1.963-.985 1.74zm6.933 3.925l3.467 1.962.985-1.74-3.466-1.963-.986 1.74zm6.934 3.924l3.466 1.963.986-1.74-3.467-1.963-.985 1.74zm6.933 3.925l3.467 1.963.985-1.74-3.467-1.963-.985 1.74zm6.934 3.925l3.466 1.963.985-1.74-3.466-1.963-.985 1.74zm6.933 3.925l3.467 1.963.985-1.74-3.467-1.963-.985 1.74zm6.933 3.925l3.467 1.963.985-1.74-3.466-1.963-.986 1.74zm6.934 3.925l3.466 1.963.986-1.741-3.467-1.962-.985 1.74zm6.933 3.925l3.467 1.963.985-1.741-3.467-1.962-.985 1.74zm6.934 3.925l3.466 1.962.986-1.74-3.467-1.962-.985 1.74zm6.933 3.925l3.467 1.962.985-1.74-3.467-1.963-.985 1.741zm6.933 3.925l3.467 1.962.985-1.74-3.466-1.963-.986 1.741zm6.934 3.925l3.467 1.962.985-1.74-3.467-1.963-.985 1.741zm6.933 3.925l3.467 1.962.985-1.74-3.467-1.963-.985 1.741zm6.934 3.925l3.466 1.962.986-1.74-3.467-1.963-.985 1.741zm6.933 3.925l3.467 1.962.985-1.74-3.467-1.963-.985 1.741zm6.933 3.924l3.467 1.963.985-1.741-3.466-1.962-.986 1.74zm6.934 3.925l3.467 1.963.985-1.741-3.467-1.962-.985 1.74zm6.933 3.925l3.467 1.963.985-1.741-3.466-1.962-.986 1.74zm6.934 3.925l3.466 1.963.986-1.741-3.467-1.962-.985 1.74zm6.933 3.925l1.733.981.986-1.74-1.734-.981-.985 1.74zm1.226.111v1.983h2v-1.983h-2zm0 5.948v3.965h2v-3.965h-2zm0 7.929v3.965h2v-3.965h-2zm0 7.93v3.965h2v-3.965h-2zm0 7.93v3.965h2v-3.965h-2zm0 7.93v3.965h2v-3.965h-2zm0 7.93v3.965h2v-3.965h-2zm0 7.93v3.965h2v-3.965h-2zm0 7.93v3.965h2v-3.965h-2zm0 7.93v3.965h2v-3.965h-2zm0 7.93v3.965h2v-3.965h-2zm0 7.93v3.965h2v-3.965h-2zm0 7.929v3.965h2v-3.965h-2zm0 7.93v3.965h2v-3.965h-2zm0 7.93v3.965h2v-3.965h-2zm0 7.93v3.965h2v-3.965h-2zm0 7.93v3.965h2v-3.965h-2zm0 7.93v3.965h2v-3.965h-2zm0 7.93v3.965h2v-3.965h-2zm0 7.93v3.965h2v-3.965h-2zm0 7.93v3.965h2v-3.965h-2zm0 7.93v3.964h2v-3.964h-2zm0 7.929v3.965h2v-3.965h-2zm0 7.93v3.965h2v-3.965h-2zm0 7.93v3.965h2v-3.965h-2zm0 7.93v3.965h2v-3.965h-2zm0 7.93v1.982h2v-1.982h-2z"/></defs></svg>