<svg width="331" height="328" viewBox="0 0 331 328" xmlns="http://www.w3.org/2000/svg" xmlns:xlink="http://www.w3.org/1999/xlink"><title>Path</title><desc>Created using Figma</desc><use xlink:href="#a" transform="translate(1.403 .962)" fill="#A9BEE1"/><defs><path id="a" d="M-1 0v1.988h2V0h-2zm0 5.965v3.977h2V5.965h-2zm0 7.954v3.977h2V13.92h-2zm0 7.954v3.977h2v-3.977h-2zm0 7.954v3.977h2v-3.977h-2zm0 7.954v3.977h2v-3.977h-2zm0 7.954v3.977h2v-3.977h-2zm0 7.954v3.977h2V53.69h-2zm0 7.954v3.977h2v-3.977h-2zm0 7.954v3.977h2v-3.977h-2zm0 7.954v3.977h2v-3.977h-2zm0 7.954v3.977h2v-3.977h-2zm0 7.954v3.977h2V93.46h-2zm0 7.954v3.977h2v-3.977h-2zm0 7.954v3.977h2v-3.977h-2zm0 7.954v3.977h2v-3.977h-2zm0 7.954v3.977h2v-3.977h-2zm0 7.954v3.977h2v-3.977h-2zm.506 6.835l1.74.989.988-1.739-1.74-.989-.988 1.739zm5.22 2.966l3.48 1.977.988-1.739-3.48-1.977-.988 1.739zm6.96 3.955l3.48 1.977.988-1.739-3.48-1.977-.988 1.739zm6.96 3.954l3.48 1.977.988-1.738-3.48-1.978-.988 1.739zm6.96 3.955l3.48 1.977.988-1.739-3.48-1.977-.988 1.739zm6.96 3.954l3.48 1.978.988-1.739-3.48-1.978-.988 1.739zm6.96 3.955l3.48 1.977.988-1.739-3.48-1.977-.988 1.739zm6.96 3.955l3.48 1.977.987-1.739-3.48-1.977-.987 1.739zm6.96 3.954l3.48 1.977.987-1.738-3.48-1.978-.987 1.739zm6.96 3.955l3.48 1.977.987-1.739-3.48-1.977-.988 1.739zm6.96 3.954l3.48 1.978.987-1.739-3.48-1.978-.988 1.739zm6.96 3.955l3.48 1.977.987-1.739-3.48-1.977-.988 1.739zm6.96 3.955l3.48 1.977.987-1.739-3.48-1.977-.988 1.739zm6.96 3.954l3.48 1.977.987-1.738-3.48-1.978-.988 1.739zm6.96 3.955l3.479 1.977.988-1.739-3.48-1.977-.988 1.739zm6.959 3.954l3.48 1.978.988-1.739-3.48-1.977-.988 1.738zm6.96 3.955l3.48 1.977.988-1.739-3.48-1.977-.988 1.739zm6.96 3.955l3.48 1.977.988-1.739-3.48-1.977-.988 1.739zm6.96 3.954l3.48 1.978.988-1.739-3.48-1.978-.988 1.739zm6.96 3.955l3.48 1.977.988-1.739-3.48-1.977-.988 1.739zm6.96 3.954l3.48 1.978.988-1.739-3.48-1.978-.988 1.739zm6.96 3.955l3.48 1.977.988-1.739-3.48-1.977-.988 1.739zm6.96 3.955l3.48 1.977.988-1.739-3.48-1.977-.988 1.739zm6.959 3.954l3.48 1.978.988-1.739-3.479-1.978-.989 1.739zm6.96 3.955l3.48 1.977.988-1.739-3.48-1.977-.988 1.739zm6.96 3.954l3.48 1.978.988-1.739-3.48-1.977-.988 1.738zm6.96 3.955l3.48 1.977.988-1.739-3.48-1.977-.988 1.739zm6.96 3.955l3.48 1.977.988-1.739-3.48-1.977-.988 1.739zm6.96 3.954l3.48 1.978.988-1.739-3.48-1.978-.988 1.739zm6.96 3.955l3.48 1.977.988-1.739-3.48-1.977-.988 1.739zm6.96 3.954l3.48 1.978.988-1.739-3.48-1.977-.988 1.738zm6.96 3.955l3.48 1.977.988-1.739-3.48-1.977-.988 1.739zm6.96 3.955l3.48 1.977.988-1.739-3.48-1.977-.988 1.739zm6.96 3.954l3.48 1.978.988-1.739-3.48-1.978-.988 1.739zm6.96 3.955l3.48 1.977.988-1.739-3.48-1.977-.988 1.739zm6.96 3.954l3.48 1.978.988-1.739-3.48-1.977-.988 1.738zm6.96 3.955l3.48 1.977.988-1.739-3.48-1.977-.988 1.739zm6.96 3.955l3.48 1.977.988-1.739-3.48-1.977-.988 1.739zm6.959 3.954l3.48 1.978.989-1.739-3.48-1.978-.989 1.739zm6.96 3.955l3.48 1.977.988-1.739-3.48-1.977-.988 1.739zm6.96 3.954l3.48 1.978.988-1.739-3.48-1.977-.988 1.738zm6.96 3.955l3.48 1.977.988-1.739-3.48-1.977-.988 1.739zm6.96 3.955l3.48 1.977.988-1.739-3.48-1.977-.988 1.739zm6.96 3.954l3.48 1.978.988-1.739-3.48-1.978-.988 1.739zm6.96 3.955l3.48 1.977.988-1.739-3.48-1.977-.988 1.739zm6.96 3.954l3.48 1.978.988-1.739-3.48-1.977-.988 1.738zm6.96 3.955l3.48 1.977.988-1.739-3.48-1.977-.988 1.739zm6.96 3.955l3.48 1.977.988-1.739-3.48-1.977-.988 1.739z"/></defs></svg>