<svg width="506" height="375" viewBox="0 0 506 375" xmlns="http://www.w3.org/2000/svg" xmlns:xlink="http://www.w3.org/1999/xlink"><title>Group</title><desc>Created using Figma</desc><use xlink:href="#a" transform="translate(376 316)" fill="#CE93D8"/><use xlink:href="#b" transform="translate(376 312)" fill="url(#c)"/><use xlink:href="#d" transform="translate(407 327)" fill="#FFF"/><g filter="url(#e)" transform="translate(-572 -1076)"><use xlink:href="#f" transform="translate(948 1361)" fill="#F57F17"/><use xlink:href="#f" transform="translate(948 1356)" fill="url(#g)"/><use xlink:href="#h" transform="translate(974 1371)" fill="#FFF"/></g><g transform="translate(-572 -1076)"><mask id="j"><use xlink:href="#i" transform="translate(576.316 1281.13)" fill="#FFF"/></mask><g mask="url(#j)"><use xlink:href="#k" transform="translate(576.316 1281.13)" fill="#F5E3BC"/></g></g><use xlink:href="#l" transform="translate(17 231)" fill="#FFF"/><use xlink:href="#m" transform="translate(17 243)" fill="#FFF"/><use xlink:href="#n" transform="translate(17 242)" fill="#FFF"/><g transform="translate(-572 -1076)"><mask id="p"><use xlink:href="#o" transform="translate(572 1279.02)" fill="#FFF"/></mask><g mask="url(#p)"><use xlink:href="#q" transform="translate(571.999 1279.02)" fill="#F5D89B"/></g></g><g transform="translate(-572 -1076)"><mask id="s"><use xlink:href="#r" transform="translate(621.074 1284.33)" fill="#FFF"/></mask><g mask="url(#s)"><use xlink:href="#t" transform="translate(621.074 1284.33)" fill="url(#u)"/></g></g><use xlink:href="#v" transform="translate(99 272)" fill="#ACCCD4"/><use xlink:href="#w" transform="translate(45 207)" fill="#ACCCD4"/><use xlink:href="#x" transform="translate(60 223)" fill="#FFF"/><use xlink:href="#l" transform="translate(60 234)" fill="#FFF"/><use xlink:href="#y" transform="translate(60 246)" fill="#FFF"/><use xlink:href="#z" transform="translate(60 245)" fill="#FFF"/><use xlink:href="#A" transform="translate(281 120)" fill="#326D6B"/><use xlink:href="#B" transform="translate(281 5)" fill="url(#C)"/><use xlink:href="#D" transform="translate(496.7 125.22)" fill="#357472"/><use xlink:href="#E" transform="translate(281.394)" fill="#55BBB8"/><use xlink:href="#F" transform="translate(200.204 122.32)" fill="url(#G)"/><g transform="translate(-572 -1076)"><mask id="I"><use xlink:href="#H" transform="translate(750 1206.29)" fill="#FFF"/></mask><g mask="url(#I)"><use xlink:href="#J" transform="translate(749.999 1206.29)" fill="url(#K)"/></g></g><use xlink:href="#L" transform="translate(189.973 148.07)" fill="#FFF"/><use xlink:href="#M" transform="translate(200.614 161.07)" fill="url(#N)"/><use xlink:href="#O" transform="translate(249.676 165.79)" fill="#7986CB"/><use xlink:href="#P" transform="translate(249.34 284.87)" fill="#7986CB"/><use xlink:href="#Q" transform="translate(301.387 255.25)" fill="#7986CB"/><use xlink:href="#R" transform="translate(197.629 195.42)" fill="#7986CB"/><use xlink:href="#S" transform="translate(252.484 167.91)" fill="#606060"/><use xlink:href="#T" transform="translate(247.479 167.91)" fill="#474747"/><use xlink:href="#U" transform="translate(235.668 227.8)" fill="#606060"/><use xlink:href="#V" transform="translate(240.039 227.8)" fill="#474747"/><use xlink:href="#W" transform="translate(247.84 222.38)" fill="#7986CB"/><use xlink:href="#X" transform="translate(314.171 57.92)" fill="#FFF"/><use xlink:href="#Y" transform="translate(348.081 75.65)" fill="#FFF"/><use xlink:href="#Z" transform="translate(386.775 106.5)" fill="#FFF"/><use xlink:href="#aa" transform="translate(403.038 107.07)" fill="#FFF"/><use xlink:href="#ab" transform="translate(441.29 125.65)" fill="#FFF"/><defs><filter id="e" filterUnits="userSpaceOnUse" x="945" y="1356" width="107" height="85" color-interpolation-filters="sRGB"><feFlood flood-opacity="0" result="BackgroundImageFix"/><feColorMatrix in="SourceAlpha" values="0 0 0 0 0 0 0 0 0 0 0 0 0 0 0 0 0 0 255 0"/><feOffset dy="18"/><feGaussianBlur stdDeviation="1"/><feColorMatrix values="0 0 0 0 0 0 0 0 0 0 0 0 0 0 0 0 0 0 0.077389 0"/><feBlend in2="BackgroundImageFix" result="effect1_dropShadow"/><feBlend in="SourceGraphic" in2="effect1_dropShadow" result="shape"/></filter><linearGradient id="c" x2="1" gradientUnits="userSpaceOnUse" gradientTransform="matrix(0 59 -101 0 50.5 0)"><stop offset="0" stop-color="#F2E0F5"/><stop offset="1" stop-color="#E1BEE7"/></linearGradient><linearGradient id="g" x2="1" gradientUnits="userSpaceOnUse" gradientTransform="matrix(0 59 -102 0 51 0)"><stop offset="0" stop-color="#FDD34C"/><stop offset="1" stop-color="#F9A825"/></linearGradient><linearGradient id="u" x2="1" gradientUnits="userSpaceOnUse" gradientTransform="matrix(0 82.5661 -64.8897 0 32.445 0)"><stop offset="0" stop-color="#E4F3F7"/><stop offset="1" stop-color="#C4E3EC"/></linearGradient><linearGradient id="C" x2="1" gradientUnits="userSpaceOnUse" gradientTransform="matrix(0 234 -216 0 108 0)"><stop offset="0" stop-color="#85D3D2"/><stop offset="1" stop-color="#4DA8A6"/></linearGradient><linearGradient id="G" x2="1" gradientUnits="userSpaceOnUse" gradientTransform="matrix(0 198.416 -143.773 0 71.886 0)"><stop offset="0" stop-color="#BFA4C1"/><stop offset="1" stop-color="#836585"/></linearGradient><linearGradient id="K" x2="1" gradientUnits="userSpaceOnUse" gradientTransform="matrix(0 195.577 -152.246 0 76.123 0)"><stop offset="0" stop-color="#D0BAD1"/><stop offset="1" stop-color="#A384A5"/></linearGradient><linearGradient id="N" x2="1" gradientUnits="userSpaceOnUse" gradientTransform="matrix(0 134.024 -103.322 0 51.66 0)"><stop offset="0" stop-color="#FFF2E8"/><stop offset="1" stop-color="#F5E4F1"/></linearGradient><path id="a" d="M48.394 58.562L.78 30.729c-1.157-.675-1.009-1.875.326-2.654L48.068.646a5.006 5.006 0 0 1 4.538-.195L100.22 28.27c1.157.675 1.009 1.875-.326 2.655L52.932 58.337a5.007 5.007 0 0 1-4.538.225z"/><path id="b" d="M48.394 58.514L.78 30.72c-1.157-.675-1.009-1.874.326-2.654L48.068.646a5.008 5.008 0 0 1 4.538-.195l47.614 27.81c1.157.675 1.009 1.874-.326 2.654l-46.962 27.48a5.008 5.008 0 0 1-4.538.12z"/><path id="d" d="M43.572 12.202a20.322 20.322 0 0 0-13.8-2.312s2.929-3.932-4.017-7.924C18.81-2.026-8.972-2.402 2.925 25.304c48.257 6.874 47.608-9.11 40.647-13.102z"/><path id="f" d="M48.889 58.55L.79 30.731c-1.17-.683-1.022-1.87.326-2.657L48.533.644A5.104 5.104 0 0 1 53.11.45l48.099 27.817c1.171.683 1.022 1.87-.326 2.657L53.467 58.356a5.104 5.104 0 0 1-4.578.193z"/><path id="h" d="M36.426 27.646a30.476 30.476 0 0 0 7.092-2.828c9.976-5.672 9.976-14.81 0-20.542-9.976-5.731-26.142-5.672-36.058 0-9.916 5.673-9.977 14.81 0 20.542a29.845 29.845 0 0 0 6.31 2.621L25.308 34l11.118-6.354z"/><path id="i" fill-rule="evenodd" d="M63.588 106.109H0V0h63.588v106.109z"/><path id="k" fill-rule="evenodd" d="M63.588 8.44c-1.955-2.587-4.318-4.604-6.998-6.026-6.92-3.66-15.955-3.286-25.47 2.006C12.003 15.052-1.842 41.47.2 63.432c.958 10.33 5.266 17.837 11.549 21.783h.01c.008.004.008.014.014.011-.006-.007-.015-.003-.024-.011-2.482 6.68-.062 17.213 5.445 20.584.311.124.632.223.95.311-4.212-5.379-1.566-12.945 1.504-17.992 5.663.853 12.138-.433 18.863-4.17 3.239-1.801 6.333-4.064 9.225-6.678-4.047-4.168-6.55-10.076-7.244-17.557C38.798 41.494 48.81 19.977 63.588 8.44z"/><path id="l" fill-rule="evenodd" d="M41 3.681L0 27v-3.681L41 0v3.681z"/><path id="m" fill-rule="evenodd" d="M32 3.817L0 23v-3.816L32 0v3.817z"/><path id="n" fill-rule="evenodd" d="M47 3.62L0 30v-3.622L47 0v3.62z"/><path id="o" fill-rule="evenodd" d="M0 108.669V0h60.43v108.669H0z"/><path id="q" fill-rule="evenodd" d="M15.827 88.095C9.577 84.152 5.292 76.65 4.339 66.323 2.31 44.37 16.08 17.966 35.096 7.338c9.464-5.29 18.45-5.665 25.334-2.006-7.18-6.52-17.967-7.337-29.474-.91C11.941 15.044-1.832 41.448.2 63.402 1.113 73.281 5 81.533 11.71 85.99c-2.118 7.298-1.687 13.075 1.545 18.185 2.591 1.434 5.176 3.431 7.988 4.495-5.478-3.369-7.884-13.896-5.416-20.575z"/><path id="r" fill-rule="evenodd" d="M64.888 0v82.566H0V0h64.888z"/><path id="t" fill-rule="evenodd" d="M64.703 23.302c-.91-9.825-5.05-16.912-11.07-20.534a1.356 1.356 0 0 0-.142-.087c-6.544-3.872-15.269-3.687-24.489 1.453-2.793 1.557-5.458 3.47-7.972 5.672C7.51 21.686-1.418 41.957.186 59.269.708 64.9 2.293 69.635 4.69 73.329c2.56 3.972 6.065 6.748 10.181 8.154 6.019 2.074 13.351 1.227 21.018-3.043 5.057-2.817 9.704-6.824 13.744-11.582a60.97 60.97 0 0 0 2.486-3.127c2.82 3.722 3.897 10.203 3.083 14.707.016.007.03.022.049.028 3.632-6.685 7.572-15.537 2.182-23.144 5.377-10.084 8.239-21.586 7.27-32.02z"/><path id="v" fill-rule="evenodd" d="M2.559 0A57.521 57.521 0 0 1 0 2.976c1.822 2.077 2.462 6.217 1.863 8.926 1.297.749 2.59 1.472 3.864 2.098.84-4.287-.269-10.457-3.168-14z"/><path id="w" fill-rule="evenodd" d="M9.171 74.802c-2.398-3.713-3.985-8.468-4.507-14.126C3.06 43.29 11.994 22.928 25.52 10.994c2.515-2.212 5.182-4.134 7.977-5.698C42.723.135 51.452-.051 58 3.837c-7.125-4.38-19.559-5.654-28.98-.382a44.568 44.568 0 0 0-5.786 3.88C8.487 18.924-1.505 40.534.186 58.833c.693 7.514 3.19 13.45 7.23 17.636C10.515 79.7 14.538 81.9 19.35 83l.008-.008c-4.12-1.413-7.627-4.203-10.188-8.19z"/><path id="x" fill-rule="evenodd" d="M48 3.692L0 31v-3.692L48 0v3.692z"/><path id="y" fill-rule="evenodd" d="M32 3.817L0 23v-3.817L32 0v3.817z"/><path id="z" fill-rule="evenodd" d="M47 3.622L0 30v-3.622L47 0v3.622z"/><path id="A" fill-rule="evenodd" d="M0 20l8.268-4.711L28 0l-8.268 4.714L0 20z"/><path id="B" fill-rule="evenodd" d="M.383 0L0 135.773l19.514-15.479L215.692 234 216 124.975.383 0z"/><path id="D" fill-rule="evenodd" d="M.3 4.71L0 113.825l8.973-4.821L9.294 0 .3 4.71z"/><path id="E" fill-rule="evenodd" d="M8.79 0L0 5.02l215.579 124.94 9.027-4.74L8.79 0z"/><path id="F" fill-rule="evenodd" d="M13.732 5.13c13.838-8.032 33.003-6.9 54.158 5.299 42.048 24.245 76.017 83.012 75.882 131.248-.068 23.973-8.541 40.836-22.207 48.768l-13.732 7.971c13.666-7.932 22.139-24.795 22.207-48.768.137-48.236-33.834-107.004-75.88-131.248C33.005 6.198 13.84 5.069 0 13.1l13.732-7.97z"/><path id="H" fill-rule="evenodd" d="M0 195.577V0h152.245v195.577H0z"/><path id="J" fill-rule="evenodd" d="M76.365 10.429C34.32-13.816.14 5.653 0 53.89c-.134 48.25 33.825 107.015 75.868 131.257 42.046 24.243 76.241 4.784 76.378-43.471.137-48.236-33.835-107.003-75.88-131.248z"/><path id="L" fill-rule="evenodd" d="M62.498 8.508c34.359 19.81 62.217 68.004 62.107 107.418-.112 39.431-28.154 55.39-62.513 35.579C27.75 131.702-.112 83.508 0 44.079.113 4.663 28.155-11.298 62.498 8.508z"/><path id="M" fill-rule="evenodd" d="M75.666 134.024c16.995-.002 27.592-13.751 27.656-35.884.093-33.424-23.53-74.28-52.664-91.08C42.533 2.375 34.794 0 27.653 0 10.661 0 .063 13.745 0 35.873c-.093 33.428 23.525 74.291 52.65 91.087 8.13 4.686 15.873 7.064 23.012 7.064h.004z"/><path id="O" fill-rule="evenodd" d="M2.773.377C1.248-.501.007.206 0 1.956-.005 3.704 1.231 5.84 2.756 6.722c1.532.883 2.775.176 2.78-1.574.005-1.75-1.231-3.886-2.763-4.771z"/><path id="P" fill-rule="evenodd" d="M2.77.377C1.246-.501.005.206 0 1.963-.005 3.713 1.229 5.85 2.753 6.73c1.535.883 2.776.176 2.78-1.574.005-1.76-1.23-3.896-2.763-4.778z"/><path id="Q" fill-rule="evenodd" d="M2.78.381C1.248-.504.005.205 0 1.955-.007 3.713 1.229 5.85 2.763 6.734c1.522.877 2.766.171 2.77-1.589C5.539 3.395 4.306 1.26 2.78.381z"/><path id="R" fill-rule="evenodd" d="M2.773.378C1.248-.502.007.207 0 1.958c-.005 1.757 1.231 3.89 2.756 4.773 1.532.882 2.775.176 2.78-1.584C5.54 3.397 4.305 1.26 2.773.378z"/><path id="S" fill-rule="evenodd" d="M.171 0L0 60.359l5.245-37.38L.17 0z"/><path id="T" fill-rule="evenodd" d="M5.176 0L0 17.068l5.005 43.29L5.176 0z"/><path id="U" fill-rule="evenodd" d="M4.371 44.471L16.608 0 0 31.421l4.371 13.05z"/><path id="V" fill-rule="evenodd" d="M0 44.471l10.32-8.318L12.237 0 0 44.471z"/><path id="W" fill-rule="evenodd" d="M4.454.61C2.002-.807.007.327 0 3.133c-.007 2.816 1.973 6.24 4.425 7.653 2.445 1.41 4.437.277 4.444-2.54C8.88 5.445 6.9 2.018 4.454.61z"/><path id="X" fill-rule="evenodd" d="M19.944 56.556l-9.092-5.243V10.9L0 8.526V0l18.97 3.102.974.562v52.892z"/><path id="Y" fill-rule="evenodd" d="M32.308 65.509L.913 47.407V40.22l14.816-9.667c2.034-1.388 3.539-2.76 4.515-4.106.975-1.35 1.462-2.882 1.462-4.598 0-2.346-.514-4.488-1.54-6.42-1.028-1.937-2.496-3.452-4.405-4.555-2.056-1.185-3.676-1.302-4.86-.354-1.185.95-1.777 2.755-1.777 5.417L0 10.674c0-3.217.666-5.771 2-7.663C3.33 1.117 5.212.117 7.645.01c2.432-.11 5.188.726 8.272 2.503 4.718 2.72 8.384 6.14 10.993 10.258 2.611 4.116 3.918 8.558 3.918 13.322 0 2.61-.587 4.934-1.762 6.966-1.175 2.03-3.186 4.025-6.04 5.986L12.617 45.7l19.69 11.354v8.455z"/><path id="Z" fill-rule="evenodd" d="M0 33.19c0-1.67.487-2.743 1.464-3.22.974-.479 2.195-.293 3.663.553 1.49.86 2.722 2.09 3.696 3.693.976 1.601 1.463 3.236 1.463 4.906 0 1.645-.482 2.7-1.446 3.175-.964.47-2.203.271-3.713-.601-1.488-.858-2.716-2.078-3.68-3.664C.481 36.448 0 34.835 0 33.19zM0 3.48C0 1.81.487.737 1.464.258c.974-.477 2.195-.293 3.663.555 1.49.858 2.722 2.087 3.696 3.69.976 1.604 1.463 3.24 1.463 4.906 0 1.645-.482 2.704-1.446 3.175-.964.472-2.203.274-3.713-.598-1.488-.858-2.716-2.078-3.68-3.664C.481 6.738 0 5.125 0 3.48z"/><path id="aa" fill-rule="evenodd" d="M10.35 22.06l4.843 2.794c2.308 1.33 4.019 1.65 5.13.96 1.111-.689 1.666-2.133 1.666-4.333 0-2.13-.55-4.104-1.652-5.923-1.1-1.82-2.616-3.287-4.544-4.4-1.743-1.004-3.199-1.292-4.374-.87-1.174.42-1.762 1.518-1.762 3.28L.565 8.329c0-2.757.646-4.857 1.936-6.301C3.791.58 5.595-.093 7.912.01c2.318.103 4.87.96 7.66 2.57 4.844 2.793 8.64 6.318 11.388 10.573 2.746 4.258 4.121 8.731 4.121 13.424 0 2.417-.64 4.275-1.918 5.568-1.28 1.293-2.96 1.885-5.035 1.78 2.58 2.547 4.504 5.255 5.771 8.114 1.27 2.86 1.904 5.74 1.904 8.643 0 4.694-1.483 7.597-4.451 8.714-2.966 1.12-6.895.272-11.78-2.55-4.571-2.634-8.31-6.18-11.216-10.634C1.454 41.756 0 37.242 0 32.67l9.092 5.24c0 1.985.646 3.977 1.933 5.979 1.29 2 2.88 3.547 4.768 4.634 2.158 1.244 3.852 1.562 5.078.953 1.229-.61 1.84-2.006 1.84-4.182 0-5.272-2.515-9.359-7.547-12.263l-4.814-2.774V22.06z"/><path id="ab" fill-rule="evenodd" d="M1.165 25.32L3.808 0l25.668 14.8v8.743l-18.213-10.5L10.13 23.74c2.16-.083 4.456.577 6.889 1.978 4.361 2.515 7.78 6.047 10.254 10.593 2.475 4.547 3.713 9.628 3.713 15.235 0 3.413-.624 6.106-1.872 8.084-1.248 1.977-3.035 3.035-5.362 3.182-2.33.144-5.076-.694-8.243-2.52-2.768-1.599-5.338-3.728-7.707-6.387-2.369-2.662-4.241-5.558-5.617-8.697C.813 42.073.085 38.98 0 35.931l8.996 5.189c.189 2.307.855 4.405 2 6.284 1.14 1.882 2.636 3.351 4.481 4.417 2.056 1.186 3.64 1.247 4.75.181 1.111-1.066 1.667-3.156 1.667-6.275 0-2.999-.639-5.665-1.919-8-1.277-2.334-3.093-4.177-5.443-5.531-2.158-1.247-3.91-1.603-5.252-1.07l-.88.434-7.235-6.24z"/></defs></svg>