<svg width="30" height="31" viewBox="0 0 30 31" xmlns="http://www.w3.org/2000/svg" xmlns:xlink="http://www.w3.org/1999/xlink"><title></title><desc>Created using Figma</desc><use xlink:href="#a" fill="#E91E63"/><defs><path id="a" d="M9.174 1.474A14.663 14.663 0 0 1 15 .286c2.031 0 3.973.396 5.826 1.188 1.853.793 3.449 1.859 4.788 3.198 1.34 1.34 2.405 2.935 3.197 4.788A14.664 14.664 0 0 1 30 15.286c0 2.031-.396 3.973-1.189 5.826-.792 1.852-1.858 3.448-3.197 4.788-1.34 1.339-2.935 2.405-4.788 3.197A14.664 14.664 0 0 1 15 30.286c-2.031 0-3.973-.396-5.826-1.189-1.853-.792-3.449-1.858-4.788-3.197-1.34-1.34-2.405-2.936-3.197-4.788A14.663 14.663 0 0 1 0 15.286c0-2.031.396-3.973 1.189-5.826.792-1.853 1.858-3.449 3.197-4.788 1.34-1.34 2.935-2.405 4.788-3.198zm11.87 2.461A12.797 12.797 0 0 0 15 2.43c-2.12 0-4.135.502-6.044 1.506l3.248 3.248A8.597 8.597 0 0 1 15 6.714c.949 0 1.88.157 2.796.469l3.248-3.248zM3.65 21.33l3.247-3.248a8.597 8.597 0 0 1-.468-2.795c0-.949.156-1.88.468-2.796L3.65 9.242a12.797 12.797 0 0 0-1.507 6.044c0 2.12.502 4.135 1.507 6.043zm5.306 5.307A12.798 12.798 0 0 0 15 28.143c2.12 0 4.135-.502 6.044-1.507l-3.248-3.248a8.597 8.597 0 0 1-2.796.47c-.949 0-1.88-.157-2.796-.47l-3.248 3.248zm1.49-6.797c1.262 1.25 2.78 1.875 4.554 1.875 1.775 0 3.287-.625 4.537-1.875 1.261-1.26 1.892-2.779 1.892-4.553 0-1.775-.631-3.287-1.892-4.537-1.25-1.261-2.762-1.892-4.537-1.892s-3.292.63-4.554 1.892c-1.25 1.25-1.875 2.762-1.875 4.537 0 1.774.625 3.292 1.875 4.553zm12.657-1.758l3.247 3.248a12.796 12.796 0 0 0 1.507-6.043c0-2.12-.502-4.135-1.507-6.044l-3.247 3.248a8.597 8.597 0 0 1 0 5.591z"/></defs></svg>