<svg width="141" height="110" viewBox="0 0 141 110" version="1.1" xmlns="http://www.w3.org/2000/svg" xmlns:xlink="http://www.w3.org/1999/xlink">
<title>Path 10</title>
<desc>Created using Figma</desc>
<g id="Canvas" transform="translate(-1558 -273)">
<g id="Path 10">
<use xlink:href="#path0_stroke" transform="translate(1559 273)" fill="#A9BEE1"/>
</g>
</g>
<defs>
<path id="path0_stroke" d="M 0 85.6948L -0.519366 84.8402L -1 85.1324L -1 85.6948L 0 85.6948ZM 1 110L 1 107.975L -1 107.975L -1 110L 1 110ZM 1 103.924L 1 99.8728L -1 99.8728L -1 103.924L 1 103.924ZM 1 95.822L 1 91.7711L -1 91.7711L -1 95.822L 1 95.822ZM 1 87.7202L 1 85.6948L -1 85.6948L -1 87.7202L 1 87.7202ZM 0.519366 86.5494L 2.23888 85.5043L 1.20015 83.7952L -0.519366 84.8402L 0.519366 86.5494ZM 5.6779 83.4142L 9.11693 81.3241L 8.0782 79.615L 4.63917 81.7051L 5.6779 83.4142ZM 12.556 79.2339L 15.995 77.1438L 14.9562 75.4347L 11.5172 77.5248L 12.556 79.2339ZM 19.434 75.0537L 22.873 72.9636L 21.8343 71.2545L 18.3953 73.3446L 19.434 75.0537ZM 26.312 70.8735L 29.7511 68.7834L 28.7123 67.0743L 25.2733 69.1644L 26.312 70.8735ZM 33.1901 66.6932L 36.6291 64.6031L 35.5904 62.894L 32.1514 64.9841L 33.1901 66.6932ZM 40.0681 62.513L 43.5072 60.4229L 42.4684 58.7138L 39.0294 60.8039L 40.0681 62.513ZM 46.9462 58.3328L 50.3852 56.2427L 49.3465 54.5336L 45.9075 56.6237L 46.9462 58.3328ZM 53.8242 54.1525L 57.2633 52.0624L 56.2245 50.3533L 52.7855 52.4434L 53.8242 54.1525ZM 60.7023 49.9723L 64.1413 47.8822L 63.1026 46.1731L 59.6636 48.2632L 60.7023 49.9723ZM 67.5803 45.7921L 71.0194 43.702L 69.9806 41.9928L 66.5416 44.083L 67.5803 45.7921ZM 74.4584 41.6118L 77.8974 39.5217L 76.8587 37.8126L 73.4197 39.9027L 74.4584 41.6118ZM 81.3364 37.4316L 84.7755 35.3415L 83.7367 33.6324L 80.2977 35.7225L 81.3364 37.4316ZM 88.2145 33.2514L 91.6535 31.1612L 90.6148 29.4521L 87.1758 31.5423L 88.2145 33.2514ZM 95.0925 29.0711L 98.5316 26.981L 97.4928 25.2719L 94.0538 27.362L 95.0925 29.0711ZM 101.971 24.8909L 105.41 22.8008L 104.371 21.0917L 100.932 23.1818L 101.971 24.8909ZM 108.849 20.7107L 112.288 18.6205L 111.249 16.9114L 107.81 19.0016L 108.849 20.7107ZM 115.727 16.5304L 119.166 14.4403L 118.127 12.7312L 114.688 14.8213L 115.727 16.5304ZM 122.605 12.3502L 126.044 10.2601L 125.005 8.55097L 121.566 10.6411L 122.605 12.3502ZM 129.483 8.16996L 132.922 6.07984L 131.883 4.37074L 128.444 6.46085L 129.483 8.16996ZM 136.361 3.98972L 139.8 1.89961L 138.761 0.190503L 135.322 2.28062L 136.361 3.98972Z"/>
</defs>
</svg>
