<svg width="497" height="596" viewBox="0 0 497 596" xmlns="http://www.w3.org/2000/svg" xmlns:xlink="http://www.w3.org/1999/xlink"><title>Group 18</title><desc>Created using Figma</desc><use xlink:href="#a" transform="translate(134 126)" fill="#F8BBD0"/><use xlink:href="#b" transform="translate(95)" fill="#F8BBD0"/><use xlink:href="#c" transform="translate(103 5)" fill="#FCE4EC"/><use xlink:href="#d" transform="translate(133 22)" fill="#FFF"/><use xlink:href="#e" transform="translate(129.552 435.08)" fill="#FFCDD2"/><use xlink:href="#f" transform="translate(131.782 385.35)" fill="#FFDBDF"/><use xlink:href="#g" transform="translate(131.782 393.88)" fill="#EF9A9A"/><use xlink:href="#h" transform="translate(148.045 393.88)" fill="#FFCDD2"/><use xlink:href="#i" transform="translate(148.045 440.3)" fill="#EF9A9A"/><use xlink:href="#j" transform="translate(129.534 437.42)" fill="#3A3853"/><use xlink:href="#k" transform="translate(163.465 453.85)" fill="#8C8C9A"/><use xlink:href="#l" transform="translate(140.85 384.37)" fill="#3A3853"/><use xlink:href="#m" transform="translate(131.8 354.12)" fill="#FFCDD2"/><use xlink:href="#n" transform="translate(131.782 354.12)" fill="#EF9A9A"/><use xlink:href="#o" transform="translate(167.437 413.91)" fill="#FFCDD2"/><use xlink:href="#p" transform="translate(169.498 364.13)" fill="#FFDBDF"/><use xlink:href="#q" transform="translate(169.498 372.73)" fill="#EF9A9A"/><use xlink:href="#r" transform="translate(185.892 372.73)" fill="#FFCDD2"/><use xlink:href="#s" transform="translate(185.798 419.15)" fill="#EF9A9A"/><use xlink:href="#t" transform="translate(167.437 416.3)" fill="#3A3853"/><use xlink:href="#u" transform="translate(201.349 432.65)" fill="#3A3853"/><use xlink:href="#v" transform="translate(178.585 363.04)" fill="#3A3853"/><use xlink:href="#w" transform="translate(169.498 332.98)" fill="#FFCDD2"/><use xlink:href="#x" transform="translate(169.515 332.98)" fill="#EF9A9A"/><use xlink:href="#y" transform="translate(201.911 288.6)" fill="#3A3853"/><use xlink:href="#z" transform="translate(197.414 247.76)" fill="#FFE1E4"/><use xlink:href="#A" transform="translate(197.358 251.42)" fill="#EF9A9A"/><use xlink:href="#B" transform="translate(207.869 253.96)" fill="#FFCDD2"/><use xlink:href="#C" transform="translate(207.869 293.54)" fill="#FFCDD2"/><use xlink:href="#D" transform="translate(203.41 297.37)" fill="#EF9A9A"/><use xlink:href="#E" transform="translate(230.016 326.29)" fill="#757487"/><use xlink:href="#F" transform="translate(224.901 330.44)" fill="#3A3853"/><use xlink:href="#G" transform="translate(230.653 333.3)" fill="#FFE1E4"/><use xlink:href="#H" transform="translate(121.346 336.96)" fill="#3A3853"/><use xlink:href="#I" transform="translate(118.086 243.31)" fill="#F3E5F5"/><use xlink:href="#J" transform="translate(118.086 261.92)" fill="#FFCDD2"/><use xlink:href="#K" transform="translate(118.086 276.23)" fill="#C78183"/><use xlink:href="#L" transform="translate(187.653 315.81)" fill="#EF9A9A"/><use xlink:href="#M" transform="translate(172.477 325.5)" fill="#EF9A9A"/><use xlink:href="#N" transform="translate(157.244 335.21)" fill="#EF9A9A"/><use xlink:href="#O" transform="translate(157.881 280.83)" fill="#EF9A9A"/><use xlink:href="#P" transform="translate(135.117 288.77)" fill="#3A3853"/><use xlink:href="#Q" transform="translate(130.34 328.85)" fill="#3A3853"/><use xlink:href="#R" transform="translate(125.897 288.04)" fill="#FFE1E4"/><use xlink:href="#S" transform="translate(125.88 291.65)" fill="#EF9A9A"/><use xlink:href="#T" transform="translate(136.56 294.24)" fill="#FFCDD2"/><use xlink:href="#U" transform="translate(136.56 333.77)" fill="#FFCDD2"/><use xlink:href="#V" transform="translate(131.932 337.6)" fill="#EF9A9A"/><use xlink:href="#W" transform="translate(158.462 366.52)" fill="#757487"/><use xlink:href="#X" transform="translate(153.59 370.65)" fill="#3A3853"/><use xlink:href="#Y" transform="translate(159.324 373.52)" fill="#FFE1E4"/><use xlink:href="#Z" transform="translate(82 203.18)" fill="url(#aa)"/><use xlink:href="#ab" transform="translate(89.382 207.37)" fill="url(#ac)"/><use xlink:href="#ad" transform="translate(128.84 215.01)" fill="#EF9A9A"/><use xlink:href="#ae" transform="translate(128.84 196.42)" fill="#F3E5F5"/><use xlink:href="#af" transform="translate(169.18 223.91)" fill="#3A3853"/><use xlink:href="#ag" transform="translate(172.852 231.56)" fill="#FFCDD2"/><use xlink:href="#ah" transform="translate(141.843 189.14)" fill="#3D5662"/><use xlink:href="#ai" transform="translate(161.254 178)" fill="#3D5662"/><use xlink:href="#aj" transform="translate(0 321.01)" fill="url(#ak)"/><use xlink:href="#al" transform="translate(5 324)" fill="url(#am)"/><use xlink:href="#an" transform="translate(239 129.01)" fill="url(#ao)"/><use xlink:href="#ap" transform="translate(246 133)" fill="url(#aq)"/><use xlink:href="#ar" transform="translate(239.767 530.14)" fill="url(#as)" opacity=".2"/><use xlink:href="#at" transform="translate(294.289 498.75)" fill="url(#au)" opacity=".2"/><use xlink:href="#av" transform="translate(348.98 467.32)" fill="url(#aw)" opacity=".2"/><use xlink:href="#ax" transform="translate(403.83 435.84)" fill="url(#ay)" opacity=".2"/><use xlink:href="#az" transform="translate(239.634 412.26)" fill="url(#aA)" opacity=".3"/><use xlink:href="#aB" transform="translate(232 408.74)" fill="url(#aC)"/><use xlink:href="#aD" transform="translate(294.3 412.26)" fill="url(#aE)" opacity=".3"/><use xlink:href="#aF" transform="translate(287 409)" fill="url(#aG)"/><use xlink:href="#aH" transform="translate(348.968 278.32)" fill="url(#aI)" opacity=".3"/><use xlink:href="#aJ" transform="translate(341.334 274.81)" fill="url(#aK)"/><use xlink:href="#aL" transform="translate(403.701 275.51)" fill="url(#aM)" opacity=".3"/><use xlink:href="#aN" transform="translate(396.068 272)" fill="url(#aO)"/><defs><linearGradient id="aa" x2="1" gradientUnits="userSpaceOnUse" gradientTransform="matrix(0 209.223 -161.618 0 80.809 0)"><stop offset="0" stop-color="#B1BBE7"/><stop offset="1" stop-color="#7986CB"/></linearGradient><linearGradient id="ac" x2="1" gradientUnits="userSpaceOnUse" gradientTransform="matrix(0 209.209 -161.618 0 80.809 0)"><stop offset="0" stop-color="#CDD3EF"/><stop offset="1" stop-color="#9FA8DA"/></linearGradient><linearGradient id="ak" x2="1" gradientUnits="userSpaceOnUse" gradientTransform="matrix(0 58.9841 -64.8338 0 32.417 0)"><stop offset="0" stop-color="#D7EBF9"/><stop offset="1" stop-color="#ADD2F1"/></linearGradient><linearGradient id="am" x2="1" gradientUnits="userSpaceOnUse" gradientTransform="matrix(0 56 -60 0 30 0)"><stop offset="0" stop-color="#FFF"/><stop offset="1" stop-color="#E5EFF9"/></linearGradient><linearGradient id="ao" x2="1" gradientUnits="userSpaceOnUse" gradientTransform="matrix(0 88.9761 -97.7495 0 48.875 0)"><stop offset="0" stop-color="#D7EBF9"/><stop offset="1" stop-color="#ADD2F1"/></linearGradient><linearGradient id="aq" x2="1" gradientUnits="userSpaceOnUse" gradientTransform="matrix(0 85 -90 0 45 0)"><stop offset="0" stop-color="#FFF"/><stop offset="1" stop-color="#D1E9FF"/></linearGradient><linearGradient id="as" x2="1" gradientUnits="userSpaceOnUse" gradientTransform="matrix(31.0752 92.1558 -169.042 16.9411 87.977 -44.77)"><stop offset="0" stop-color="#6B5170"/><stop offset="1" stop-color="#A795AB" stop-opacity=".01"/></linearGradient><linearGradient id="au" x2="1" gradientUnits="userSpaceOnUse" gradientTransform="matrix(25.0715 82.0372 -136.383 15.081 70.98 -39.854)"><stop offset="0" stop-color="#6B5170"/><stop offset="1" stop-color="#A795AB" stop-opacity=".01"/></linearGradient><linearGradient id="aw" x2="1" gradientUnits="userSpaceOnUse" gradientTransform="matrix(33.8982 99.337 -184.399 18.2612 95.969 -48.259)"><stop offset="0" stop-color="#6B5170"/><stop offset="1" stop-color="#A795AB" stop-opacity=".01"/></linearGradient><linearGradient id="ay" x2="1" gradientUnits="userSpaceOnUse" gradientTransform="matrix(24.0707 94.0726 -130.939 17.2935 68.146 -45.701)"><stop offset="0" stop-color="#6B5170"/><stop offset="1" stop-color="#A795AB" stop-opacity=".01"/></linearGradient><linearGradient id="aA" x2="1" gradientUnits="userSpaceOnUse" gradientTransform="matrix(0 140.2 -38.723 0 19.361 0)"><stop offset="0" stop-color="#D0BAD1"/><stop offset="1" stop-color="#A384A5"/></linearGradient><linearGradient id="aC" x2="1" gradientUnits="userSpaceOnUse" gradientTransform="matrix(0 143.713 -46.356 0 23.178 0)"><stop offset="0" stop-color="#FFF"/><stop offset="1" stop-color="#C7A2CA"/></linearGradient><linearGradient id="aE" x2="1" gradientUnits="userSpaceOnUse" gradientTransform="matrix(0 108.815 -38.724 0 19.362 0)"><stop offset="0" stop-color="#D0BAD1"/><stop offset="1" stop-color="#A384A5"/></linearGradient><linearGradient id="aG" x2="1" gradientUnits="userSpaceOnUse" gradientTransform="matrix(0 112 -46 0 23 0)"><stop offset="0" stop-color="#FFF"/><stop offset="1" stop-color="#C7A2CA"/></linearGradient><linearGradient id="aI" x2="1" gradientUnits="userSpaceOnUse" gradientTransform="matrix(0 211.366 -38.724 0 19.362 0)"><stop offset="0" stop-color="#D0BAD1"/><stop offset="1" stop-color="#A384A5"/></linearGradient><linearGradient id="aK" x2="1" gradientUnits="userSpaceOnUse" gradientTransform="matrix(0 214.878 -46.358 0 23.179 0)"><stop offset="0" stop-color="#FFF"/><stop offset="1" stop-color="#C7A2CA"/></linearGradient><linearGradient id="aM" x2="1" gradientUnits="userSpaceOnUse" gradientTransform="matrix(0 182.589 -38.724 0 19.362 0)"><stop offset="0" stop-color="#D0BAD1"/><stop offset="1" stop-color="#A384A5"/></linearGradient><linearGradient id="aO" x2="1" gradientUnits="userSpaceOnUse" gradientTransform="matrix(0 186.101 -46.357 0 23.178 0)"><stop offset="0" stop-color="#FFF"/><stop offset="1" stop-color="#C7A2CA"/></linearGradient><path id="a" fill-rule="evenodd" d="M11.452 10.322L7.567 4.613 0 0l3.888 5.709 6.547 9.678L18 20l-6.548-9.678z"/><path id="b" fill-rule="evenodd" d="M85.226 3.355c-9.071-5.252-21.635-4.513-35.498 3.46C22.177 22.664-.09 61.086 0 92.64c.044 15.66 5.598 26.679 14.55 31.86l7.773 4.5c-8.951-5.182-14.503-16.196-14.549-31.86-.089-31.555 22.177-69.976 49.73-85.823C71.365 3.344 83.93 2.604 93 7.854l-7.774-4.5z"/><path id="c" fill-rule="evenodd" d="M49.339 6.822c27.334-15.861 49.57-3.125 49.66 28.46.078 27.37-16.531 59.913-38.763 78.424l-3.905 10.136L49.716 141l-6.676-9.447-3.962-5.572C16.814 133.292.077 120.095 0 92.726-.088 61.14 22.002 22.684 49.34 6.822z"/><path id="d" fill-rule="evenodd" d="M19 57l7.945-4.76L29 37l-7.982 4.788L19 57zm6.936 4.36l-8.304 4.817-3.097 22.258L6.665 93l3.098-22.253L0 76.41v-8.59l11.053-6.413 2.149-15.414-9.98 5.786v-8.687l11.313-6.566 3.14-22.576 7.828-4.545-3.138 22.58 8.345-4.84 3.14-22.58L41.721 0 38.58 22.578l9.42-5.46v8.684l-10.752 6.24-2.151 15.415 9.636-5.586v8.583l-10.928 6.343-3.095 22.255-7.874 4.567 3.1-22.26z"/><path id="e" d="M0 2.347L6.989 0 3.485 4.45 0 2.347z"/><path id="f" d="M32.657 8.507l-16.263 9.295L0 8.582 16.244 0l16.413 8.507z"/><path id="g" d="M0 0v44.824l16.244 9.69.15-45.237L0 0z"/><path id="h" d="M16.394 0v46.42L0 54.533.131 9.277 16.394 0z"/><path id="i" d="M30.858 13.558l-5.246-7.305L16.394 0 0 8.112l10.66 6.197 4.779 7.793 15.42-8.544z"/><path id="j" d="M33.912 24.957l-4.777-7.794L0 0v9.859l33.912 19.717v-4.62z"/><path id="k" d="M15.439 0L0 8.582v4.563l15.439-7.943V0z"/><path id="l" d="M20.853 8.075L9.068 14.59 0 8.957V2.911L20.853 0v8.075z"/><path id="m" d="M32.638 30.534l-16.244 9.22L0 30.534V0l32.638.789v29.745z"/><path id="n" d="M16.394 39.754L16.244.319 0 0v30.534l16.394 9.22z"/><path id="o" d="M0 2.385L6.839 0 3.504 4.263 0 2.385z"/><path id="p" d="M32.638 8.582l-16.075 9.22L0 8.582 16.394 0l16.244 8.582z"/><path id="q" d="M0 0v44.674l16.394 9.859.15-45.313L0 0z"/><path id="r" d="M16.244 0v46.42L0 54.533.15 9.22 16.244 0z"/><path id="s" d="M30.821 13.52l-5.34-7.323L16.244 0 0 8.112l10.66 6.197 4.779 7.624 15.382-8.412z"/><path id="t" d="M33.912 24.788l-4.777-7.625L0 0v9.69l33.912 19.867v-4.77z"/><path id="u" d="M15.27 0L0 8.432v4.77l15.289-7.944L15.27 0z"/><path id="v" d="M20.853 8.187L9.237 14.704 0 9.07V3.023L20.853 0v8.187z"/><path id="w" d="M32.638 30.365l-16.075 9.39L0 30.364V0l32.638.789v29.576z"/><path id="x" d="M16.544 39.754L16.394.32 0 0v30.365l16.544 9.39z"/><path id="y" d="M0 .338l2.698 15.023 8.281-7.793V0L0 .338z"/><path id="z" d="M16.975 6.197L6.37 0 0 3.662l10.511 6.197 6.464-3.662z"/><path id="A" d="M10.511 6.197V41.33L0 34.965V0l10.511 6.197z"/><path id="B" d="M6.52 0L0 3.662v35.134l6.52-3.661V0z"/><path id="C" d="M6.52 0L0 3.756 22.146 36.88l7.007-4.131L6.52 0z"/><path id="D" d="M0 9.22L4.46 0l22.145 33.069-5.096 9.54L0 9.22z"/><path id="E" d="M6.989 0l2.866 7.004-5.62 3.174L0 4.13 6.989 0z"/><path id="F" d="M0 9.54L5.115 0l4.29 6.047-3.747 7.793L0 9.54z"/><path id="G" d="M9.218 0l-2.06 6.685L0 10.985l3.747-7.793L9.218 0z"/><path id="H" d="M0 14.779v2.591l28.966 17.164L84.05 3.53V0L0 14.779z"/><path id="I" d="M0 32.919l32.151 18.29 56.04-32.6L55.871 0 0 32.919z"/><path id="J" d="M0 14.31v73.61L32.151 107l56.04-32.6V0l-56.04 32.6L0 14.31z"/><path id="K" d="M0 0l32.151 18.29v74.4L0 73.613V0z"/><path id="L" d="M0 21.933l12.74-7.305V0L0 7.305v14.628z"/><path id="M" d="M.056 21.933l12.516-7.305V0L0 7.305l.056 14.628z"/><path id="N" d="M0 21.933l12.816-7.305V0L.075 7.305 0 21.933z"/><path id="O" d="M0 54.214l41.707-24V0L0 24.168v30.046z"/><path id="P" d="M0 .958L1.424 0l9.162 5.465V17.07l-2.698 1.427L0 .957z"/><path id="Q" d="M0 .32l2.867 15.022 8.281-7.793V0L0 .32z"/><path id="R" d="M17.181 6.197L6.521 0 0 3.662l10.66 6.197 6.521-3.662z"/><path id="S" d="M10.66 6.197V41.33L0 34.965V0l10.66 6.197z"/><path id="T" d="M6.52 0L0 3.662V38.74l6.52-3.662V0z"/><path id="U" d="M6.52 0L0 3.756l21.977 33.069 7.008-4.132L6.52 0z"/><path id="V" d="M0 9.22L4.61 0l21.977 33.069-4.928 9.54L0 9.22z"/><path id="W" d="M7.064 0l3.016 7.004-5.62 3.174L0 4.13 7.064 0z"/><path id="X" d="M0 9.54L4.928 0l4.459 6.047L5.64 13.84 0 9.54z"/><path id="Y" d="M9.218 0l-2.06 6.685L0 10.985l3.747-7.793L9.218 0z"/><path id="Z" d="M161.618 57.862c0-51.754-36.086-72.636-80.809-46.759C36.086 36.98 0 99.643 0 151.378s36.086 72.636 80.809 46.721c44.723-25.914 80.809-88.484 80.809-140.237zM11.242 144.844c0-19.323 5.752-40.938 16.525-61.725l98.121 56.767c-12.572 19.492-28.46 35.491-45.079 45.068-18.736 10.798-36.086 12.582-49.201 4.995-13.115-7.586-20.479-23.398-20.366-45.105zM150.3 64.415c0 19.323-5.752 40.937-16.525 61.725L35.73 69.392c12.572-19.53 28.366-35.53 45.079-45.2 18.736-10.798 36.086-12.582 49.201-4.995 13.115 7.586 20.479 23.492 20.291 45.218z"/><path id="ab" d="M161.618 57.858c0-51.734-36.105-72.635-80.809-46.758C36.105 36.977 0 99.64 0 151.375s36.086 72.579 80.809 46.758c44.723-25.82 80.809-88.521 80.809-140.275zM11.354 144.84c0-19.342 5.62-40.956 16.47-61.725l98.045 56.73c-12.572 19.53-28.366 35.529-45.079 45.2-18.66 10.741-36.086 12.619-49.2 4.995-13.116-7.624-20.46-23.492-20.236-45.2zm138.947-80.503c0 19.323-5.752 40.937-16.525 61.725L35.711 69.388c12.572-19.53 28.367-35.529 45.08-45.2 18.735-10.797 36.085-12.581 49.2-4.995 13.116 7.587 20.479 23.492 20.31 45.144z"/><path id="ad" d="M0 45.95l40.433 12.714V23.849L0 0v45.95z"/><path id="ae" d="M0 18.61L32.226 0l32.151 27.51L40.34 42.534 0 18.61z"/><path id="af" d="M24.038 0v37.2L0 49.67V14.947L24.038 0z"/><path id="ag" d="M16.713 0v25.914L0 34.514V10.329L16.713 0z"/><path id="ah" d="M.919 29.068a1.029 1.029 0 0 0 .955-.958V.77A.958.958 0 0 0 .938 0 .954.954 0 0 0 0 .769V28.11a.922.922 0 0 0 .918.958z"/><path id="ai" d="M.918 29.538a1.03 1.03 0 0 0 .956-.958V.769A.958.958 0 0 0 .937 0 .954.954 0 0 0 0 .769v27.81a1.034 1.034 0 0 0 .918.959z"/><path id="aj" fill-rule="evenodd" d="M8.233 35.983c.07-.04.128-.063.197-.102.89-5.724 4.886-11.959 9.687-14.725 1.375-.793 2.688-1.224 3.877-1.332a33.335 33.335 0 0 1 3.11-7.172c2.798-4.834 6.472-8.564 10.151-10.682C38.935-.15 42.617-.662 45.431.94l5.042 2.925c1.236.702 2.196 1.758 2.891 3.073 1.339-.189 2.545.01 3.537.586l5.042 2.925c-.006-.004-.012-.006-.017-.008 1.789 1.027 2.9 3.224 2.908 6.353.017 5.982-4.003 13.202-9.12 16.643L13.332 57.861c-2.438 1.404-4.626 1.443-6.144.387.09.063.174.132.267.186l-5.042-2.925C.928 54.649.007 52.818 0 50.217c-.015-5.23 3.674-11.607 8.233-14.234z"/><path id="al" fill-rule="evenodd" d="M35.379 1.967C31.687 4.084 28 7.809 25.192 12.637a33.153 33.153 0 0 0-3.12 7.165c-1.195.108-2.511.538-3.891 1.329-4.819 2.764-8.828 8.99-9.722 14.708-.068.04-.128.063-.197.103C3.687 38.566-.015 44.936 0 50.159c.014 5.228 3.74 7.337 8.316 4.712L50.85 30.476c5.133-3.438 9.168-10.647 9.15-16.624-.018-6.27-4.484-8.798-9.976-5.648-.093.052-.183.12-.276.173-.358-3.38-1.743-6.071-4.159-7.438-2.824-1.6-6.52-1.09-10.21 1.028z"/><path id="an" fill-rule="evenodd" d="M12.413 54.28c.105-.06.194-.096.296-.154 1.343-8.636 7.367-18.04 14.606-22.213 2.073-1.195 4.053-1.846 5.845-2.009 1.053-3.553 2.609-7.22 4.69-10.819 4.218-7.293 9.757-12.918 15.304-16.114 5.547-3.197 11.099-3.97 15.342-1.553l7.602 4.412c1.863 1.06 3.31 2.652 4.359 4.636 2.018-.285 3.836.016 5.332.884l7.602 4.412a.172.172 0 0 0-.026-.012c2.698 1.55 4.372 4.864 4.384 9.583.027 9.025-6.034 19.915-13.748 25.107L20.099 87.282c-3.675 2.118-6.975 2.177-9.263.584.135.094.263.199.403.28l-7.603-4.412C1.4 82.435.011 79.674 0 75.75c-.023-7.888 5.54-17.508 12.413-21.47z"/><path id="ap" fill-rule="evenodd" d="M53.069 2.985C47.53 6.2 42 11.853 37.788 19.182c-2.078 3.618-3.63 7.303-4.681 10.874-1.792.164-3.767.817-5.837 2.017-7.226 4.197-13.24 13.647-14.581 22.325-.103.06-.193.096-.296.157C5.531 58.537-.023 68.205 0 76.133c.021 7.937 5.61 11.138 12.475 7.154l63.8-37.029c7.7-5.218 13.751-16.16 13.725-25.233-.027-9.516-6.726-13.354-14.965-8.572-.138.078-.274.183-.412.261-.539-5.129-2.616-9.214-6.24-11.288-4.236-2.429-9.778-1.654-15.314 1.56z"/><path id="ar" fill-rule="evenodd" d="M0 22.264l78.23 42.639 40.822-28.851L38.599 0 0 22.264z"/><path id="at" fill-rule="evenodd" d="M0 22.311l58.27 35.466 37.781-28.82L38.74 0 0 22.311z"/><path id="av" fill-rule="evenodd" d="M0 22.363L81.669 69.96l48.198-28.585L38.716 0 0 22.363z"/><path id="ax" fill-rule="evenodd" d="M0 22.225l81.026 44.028 11.19-37.864L38.524 0 0 22.225z"/><path id="az" fill-rule="evenodd" d="M0 22.357V140.2l38.723-22.357V0L0 22.357z"/><path id="aB" fill-rule="evenodd" d="M0 22.357v116.97l7.634 4.386V25.87L46.356 3.513 38.723 0 0 22.357z"/><path id="aD" fill-rule="evenodd" d="M38.724 86.458L0 108.815V22.357L38.724 0v86.458z"/><path id="aF" fill-rule="evenodd" d="M7.574 112L0 107.627V22.292L38.425 0 46 3.503 7.574 25.793V112z"/><path id="aH" fill-rule="evenodd" d="M38.724 189.009L0 211.366V22.358L38.724 0v189.009z"/><path id="aJ" fill-rule="evenodd" d="M7.634 214.878L0 210.492V22.357L38.724 0l7.634 3.512L7.634 25.87v189.008z"/><path id="aL" fill-rule="evenodd" d="M0 22.357v160.232l38.724-22.357V0L0 22.357z"/><path id="aN" fill-rule="evenodd" d="M38.723 0L0 22.357v159.358l7.633 4.386V25.869L46.357 3.512 38.727 0h-.004z"/></defs></svg>